<mxfile host="app.diagrams.net" modified="2022-09-30T13:08:17.394Z" agent="5.0 (Windows NT 10.0; Win64; x64) AppleWebKit/537.36 (KHTML, like Gecko) Chrome/105.0.0.0 Safari/537.36" etag="nTj2c0ZqtDGTTZ91zyLQ" version="20.3.7" type="github">
  <diagram name="Page-1" id="e7e014a7-5840-1c2e-5031-d8a46d1fe8dd">
    <mxGraphModel dx="1860" dy="975" grid="1" gridSize="10" guides="1" tooltips="1" connect="1" arrows="1" fold="1" page="1" pageScale="1" pageWidth="1169" pageHeight="826" background="none" math="0" shadow="0">
      <root>
        <mxCell id="0" />
        <mxCell id="1" parent="0" />
        <mxCell id="2" value="Thread 1" style="swimlane;whiteSpace=wrap" parent="1" vertex="1">
          <mxGeometry x="164.5" y="128" width="280" height="570" as="geometry" />
        </mxCell>
        <mxCell id="5" value="" style="ellipse;shape=startState;fillColor=#000000;strokeColor=#ff0000;" parent="2" vertex="1">
          <mxGeometry x="100" y="40" width="30" height="30" as="geometry" />
        </mxCell>
        <mxCell id="6" value="" style="edgeStyle=elbowEdgeStyle;elbow=horizontal;verticalAlign=bottom;endArrow=open;endSize=8;strokeColor=#FF0000;endFill=1;rounded=0" parent="2" source="5" target="7" edge="1">
          <mxGeometry x="100" y="40" as="geometry">
            <mxPoint x="115" y="110" as="targetPoint" />
          </mxGeometry>
        </mxCell>
        <mxCell id="7" value="idle" style="" parent="2" vertex="1">
          <mxGeometry x="60" y="110" width="110" height="50" as="geometry" />
        </mxCell>
        <mxCell id="8" value="user action" style="" parent="2" vertex="1">
          <mxGeometry x="60" y="220" width="110" height="50" as="geometry" />
        </mxCell>
        <mxCell id="9" value="" style="endArrow=open;strokeColor=#FF0000;endFill=1;rounded=0" parent="2" source="7" target="8" edge="1">
          <mxGeometry relative="1" as="geometry" />
        </mxCell>
        <mxCell id="10" value="post command" style="" parent="2" vertex="1">
          <mxGeometry x="60" y="325" width="110" height="50" as="geometry" />
        </mxCell>
        <mxCell id="11" value="" style="endArrow=open;strokeColor=#FF0000;endFill=1;rounded=0" parent="2" source="8" target="10" edge="1">
          <mxGeometry relative="1" as="geometry" />
        </mxCell>
        <mxCell id="12" value="" style="edgeStyle=elbowEdgeStyle;elbow=horizontal;strokeColor=#FF0000;endArrow=open;endFill=1;rounded=0" parent="2" source="10" target="7" edge="1">
          <mxGeometry width="100" height="100" relative="1" as="geometry">
            <mxPoint x="160" y="290" as="sourcePoint" />
            <mxPoint x="260" y="190" as="targetPoint" />
            <Array as="points">
              <mxPoint x="30" y="250" />
            </Array>
          </mxGeometry>
        </mxCell>
        <mxCell id="3" value="Thread 2" style="swimlane;whiteSpace=wrap" parent="1" vertex="1">
          <mxGeometry x="444.5" y="128" width="280" height="570" as="geometry" />
        </mxCell>
        <mxCell id="13" value="" style="ellipse;shape=startState;fillColor=#000000;strokeColor=#ff0000;" parent="3" vertex="1">
          <mxGeometry x="60" y="40" width="30" height="30" as="geometry" />
        </mxCell>
        <mxCell id="14" value="" style="edgeStyle=elbowEdgeStyle;elbow=horizontal;verticalAlign=bottom;endArrow=open;endSize=8;strokeColor=#FF0000;endFill=1;rounded=0" parent="3" source="13" target="15" edge="1">
          <mxGeometry x="40" y="20" as="geometry">
            <mxPoint x="55" y="90" as="targetPoint" />
          </mxGeometry>
        </mxCell>
        <mxCell id="15" value="idle" style="" parent="3" vertex="1">
          <mxGeometry x="20" y="110" width="110" height="50" as="geometry" />
        </mxCell>
        <mxCell id="16" value="check for &#xa;new commands" style="" parent="3" vertex="1">
          <mxGeometry x="20" y="220" width="110" height="50" as="geometry" />
        </mxCell>
        <mxCell id="17" value="" style="endArrow=open;strokeColor=#FF0000;endFill=1;rounded=0" parent="3" source="15" target="16" edge="1">
          <mxGeometry relative="1" as="geometry" />
        </mxCell>
        <mxCell id="18" value="command queue" style="" parent="3" vertex="1">
          <mxGeometry x="20" y="325" width="110" height="50" as="geometry" />
        </mxCell>
        <mxCell id="19" value="" style="endArrow=open;strokeColor=#FF0000;endFill=1;rounded=0" parent="3" source="16" target="18" edge="1">
          <mxGeometry relative="1" as="geometry" />
        </mxCell>
        <mxCell id="21" value="queue empty" style="rhombus;fillColor=#ffffc0;strokeColor=#ff0000;" parent="3" vertex="1">
          <mxGeometry x="150" y="225" width="80" height="40" as="geometry" />
        </mxCell>
        <mxCell id="22" value="yes" style="edgeStyle=elbowEdgeStyle;elbow=horizontal;align=left;verticalAlign=bottom;endArrow=open;endSize=8;strokeColor=#FF0000;exitX=0.5;exitY=0;endFill=1;rounded=0;entryX=0.75;entryY=0.5;entryPerimeter=0" parent="3" source="21" target="25" edge="1">
          <mxGeometry x="-1" relative="1" as="geometry">
            <mxPoint x="160" y="150" as="targetPoint" />
            <Array as="points">
              <mxPoint x="190" y="180" />
            </Array>
          </mxGeometry>
        </mxCell>
        <mxCell id="23" value="no" style="edgeStyle=elbowEdgeStyle;elbow=horizontal;align=left;verticalAlign=top;endArrow=open;endSize=8;strokeColor=#FF0000;endFill=1;rounded=0" parent="3" source="21" target="30" edge="1">
          <mxGeometry x="-1" relative="1" as="geometry">
            <mxPoint x="190" y="305" as="targetPoint" />
          </mxGeometry>
        </mxCell>
        <mxCell id="24" value="" style="endArrow=open;strokeColor=#FF0000;endFill=1;rounded=0" parent="3" source="16" target="21" edge="1">
          <mxGeometry relative="1" as="geometry" />
        </mxCell>
        <mxCell id="25" value="" style="shape=line;strokeWidth=6;strokeColor=#ff0000;rotation=90" parent="3" vertex="1">
          <mxGeometry x="130" y="127.5" width="50" height="15" as="geometry" />
        </mxCell>
        <mxCell id="26" value="" style="edgeStyle=elbowEdgeStyle;elbow=horizontal;verticalAlign=bottom;endArrow=open;endSize=8;strokeColor=#FF0000;endFill=1;rounded=0" parent="3" source="25" target="15" edge="1">
          <mxGeometry x="130" y="90" as="geometry">
            <mxPoint x="230" y="140" as="targetPoint" />
          </mxGeometry>
        </mxCell>
        <mxCell id="30" value="dispatch&#xa;command&#xa;worker thread" style="" parent="3" vertex="1">
          <mxGeometry x="140" y="325" width="110" height="50" as="geometry" />
        </mxCell>
        <mxCell id="31" value="critical&#xa;section" style="shape=note;whiteSpace=wrap;size=17" parent="3" vertex="1">
          <mxGeometry x="105" y="490" width="100" height="50" as="geometry" />
        </mxCell>
        <mxCell id="32" value="" style="endArrow=none;strokeColor=#FF0000;endFill=0;rounded=0;dashed=1" parent="3" source="18" target="31" edge="1">
          <mxGeometry relative="1" as="geometry" />
        </mxCell>
        <mxCell id="34" value="" style="whiteSpace=wrap;strokeColor=#FF0000;fillColor=#FF0000" parent="3" vertex="1">
          <mxGeometry x="245" y="395" width="5" height="45" as="geometry" />
        </mxCell>
        <mxCell id="41" value="" style="edgeStyle=elbowEdgeStyle;elbow=horizontal;entryX=0;entryY=0.5;strokeColor=#FF0000;endArrow=open;endFill=1;rounded=0" parent="3" source="30" target="34" edge="1">
          <mxGeometry width="100" height="100" relative="1" as="geometry">
            <mxPoint x="60" y="480" as="sourcePoint" />
            <mxPoint x="160" y="380" as="targetPoint" />
            <Array as="points">
              <mxPoint x="195" y="400" />
            </Array>
          </mxGeometry>
        </mxCell>
        <mxCell id="4" value="Thread 3" style="swimlane;whiteSpace=wrap" parent="1" vertex="1">
          <mxGeometry x="724.5" y="128" width="280" height="570" as="geometry" />
        </mxCell>
        <mxCell id="33" value="process&#xa;command" style="" parent="4" vertex="1">
          <mxGeometry x="90" y="405" width="110" height="50" as="geometry" />
        </mxCell>
        <mxCell id="35" value="" style="edgeStyle=elbowEdgeStyle;elbow=horizontal;strokeColor=#FF0000;endArrow=open;endFill=1;rounded=0;entryX=0.25;entryY=0.5;entryPerimeter=0" parent="4" target="25" edge="1">
          <mxGeometry width="100" height="100" relative="1" as="geometry">
            <mxPoint x="-30" y="410" as="sourcePoint" />
            <mxPoint x="-120" y="120" as="targetPoint" />
            <Array as="points">
              <mxPoint x="-10" y="135" />
            </Array>
          </mxGeometry>
        </mxCell>
        <mxCell id="37" value="" style="edgeStyle=none;strokeColor=#FF0000;endArrow=open;endFill=1;rounded=0" parent="4" target="33" edge="1">
          <mxGeometry width="100" height="100" relative="1" as="geometry">
            <mxPoint x="-30" y="429.5" as="sourcePoint" />
            <mxPoint x="90" y="429.5" as="targetPoint" />
          </mxGeometry>
        </mxCell>
        <mxCell id="38" value="" style="ellipse;shape=endState;fillColor=#000000;strokeColor=#ff0000" parent="4" vertex="1">
          <mxGeometry x="130" y="500" width="30" height="30" as="geometry" />
        </mxCell>
        <mxCell id="39" value="" style="endArrow=open;strokeColor=#FF0000;endFill=1;rounded=0" parent="4" source="33" target="38" edge="1">
          <mxGeometry relative="1" as="geometry" />
        </mxCell>
        <mxCell id="20" value="" style="endArrow=open;strokeColor=#FF0000;endFill=1;rounded=0" parent="1" source="10" target="18" edge="1">
          <mxGeometry relative="1" as="geometry" />
        </mxCell>
        <mxCell id="h23zuk4P_A4nYP4DR8VI-41" value="" style="shape=image;verticalLabelPosition=bottom;labelBackgroundColor=default;verticalAlign=top;aspect=fixed;imageAspect=0;image=data:image/png,iVBORw0KGgoAAAANSUhEUgAAA+8AAALHCAYAAAD/8nPKAAAAAXNSR0IArs4c6QAAAARnQU1BAACxjwv8YQUAAAAJcEhZcwAAFiUAABYlAUlSJPAAAP+lSURBVHhe7N0LXBTl+gfwH1aKZYqlx6UyBe0CZYmVCaUlZiXmKSEtITPFLorZBbWTYBcFK5UuHi/VEbsY2NHAjgqevwZWFph2QLuA5QVLi7UblKVY1vzneXd2BVxGLgsM8Pt+PuPsvjMOuy/L7Dzzvu/zeh05ckRr3bo13nvvPXTr1g3du3dHTf3+++9qLcepC08dR+zevRs9evQwntWO1d4X68cc68cc68cc68cc68cc68cc68cc68cc68cc68cc68cc68ec1eqnlbEmIiIiIiIiIoti8E5ERERERERkcV6HDh3SWrVqhYMHD6ruAG3atDE2Vd9ff/2l1nKcuvDUccS+ffvQtWtX41ntWO19sX7MsX7MsX7MsX7MsX7MsX7MsX7MsX7MsX7MsX7MsX7MsX7MWa1+Wnl5eUGW9u3bw9vbWz1uDotwV87FsbB+zBfWj/nC+jFfWD/mC+vHfGH9mC+sH/OF9WO+sH7MF9aP+cL6MV9YP+aLR+rHmbCuLpgwwRzrxxzrxxzrxxzrxxzrxxzrxxzrxxzrxxzrxxzrxxzrxxzrx1xzrZ+6t/8TERERERERUb1yBe+lpaUoKysznhERERERERGRVbiC9+3bt8NutxvPiIiIiIiIiMgq2G2eiIiIiIiIyOIYvBMRERERERFZHIN3IiIiIiIiIotzBe+9e/eGzWYznhERERERERGRVbiC9w4dOsDb29t4RkRERERERERWwW7zRERERERERBbH4J2IiIiIiIjI4lzBe2lpKcrKyoxnRERERERERGQVruB9+/btsNvtxjMiIiIiIiIisgp2myciIiIiIiKyOAbvRERERERERBbH4J2IiIiIiIjI4rwOHTqktWrVCgcPHkTr1q3Rpk0bY1P1/fXXX2otx6kLTx1H7Nu3D127djWe1Y7V3hfrxxzrxxzrxxzrxxzrxxzrxxzrxxzrxxzrxxzrxxzrxxzrx5zV6qeVl5cXZGnfvj28vb3V4+awCHflXBwL68d8Yf2YL6wf84X1Y76wfswX1o/5wvoxX1g/5gvrx3xh/ZgvrB/zhfVjvnikfo4cOaJJi3td/P7772ptleOI3bt3o0ePHsaz2rHa+2L9mGP9mGP9mGP9mGP9mGP9mGP9mGP9mGP9mGP9mGP9mGP9mLNa/TB4N8EPjzmr109xcTECAwPV45qSLjKe6B7TXLF+zLF+zLF+zLF+zLF+zLF+zLF+zDWV+ikpKTEenRivn82xfsxZrX5cwXtpaanqNi9LTfHDY471Y66+jiPB+1lnnaUeExEREVHT5+Pjw+BdZ7XjCNaPOY8G7++99x66deuG7t27G5uqjx8ec6wfc/V1HGfwfu2112L16tWqjIiIiIiaJsnRxeDdwWrHEawfcwzeTfDDY66lBe8bN25UZURERETU9MjMWAzej7HacQTrx5wn6oeDfoiIiIiIiIgsjsE7ERERERERkcW5gvfevXvDZrMZz4iIiIiIiIjIKlzBe4cOHWqVaZ6IiIiIiIiI6he7zRMRERERERFZHIN3IiIiIiIiIotzBe+lpaUoKysznhERERERERGRVbiC9+3bt8NutxvPiIiIiIiIiMgq2G2eiIiIiIiIyOIYvBMRERERERFZHIN3IiIiIiIiIovzOnTokNaqVSscPHgQrVu3Rps2bYxN1ffXX3+ptRynLjx1HLFv3z507drVeFY7VntfrB9zlY9TXFwMPz8/XHvttdi4caMqIyIiIqKmR2KV9u3bw8fHp0Z5unj9bI71Y85q9dPKy8sLssgfg7e3t3rcHBbhrpyLY2kp9UNEREREzYu7a76GWBrzZzeFhfVjvnikfo4cOaJJi3td/P7772ptleOI3bt3o0ePHsaz2rHa+2L9mKt8HGl5P+uss9jyTkRERNTElW95LykpMUpPjNfP5lg/5qxWP3Vv/yciImoo+1MRYdx9Hr+q1ChsYX7NxhRfqYMQJG4uMwobWi4S1e8hAqn7HSX25RGOVoFqL4n6USrKneXr2BaUhHyjzK3NiceOc6J9xbYk9HHuP6vyTyUiImoaXMF7aWkpysoa6yKAiIjoxIo2pCAdNthsQPK/0lBklLckRSuTkGS3ITI1BXH9vI1SC2jnh9DBoRWXfn6ObbaA47cN9kGFV1+WjYxFdv13q/9yt81D2sZqXpNsS0H2NuNxFfL1z80JA3wiIiKLcwXv27dvr1HyByIiooaVj/T5mcDgeCQ9HASsW4j0EwRtzY4e4CZPz0TwzHQkjzICY4uwDZuHrPVZFZfnoh0b+8cjpfK29THQf4supRvSkahfhkTNSUI07EhclokT9q3oHaQfIx8pG81C81xkPpvvuClARETUhLHbPBERNQ3bspGiB+tBQ0IQOThKBW3zVmSjRfUZ8w5FQrGGnBnBFVutm7xSZK9aqK9jEDosDGFj9YevJCNtl9pYtWFRiOoN5K/Lq7oXxuZsLLDbMGmicSOBiIioiWLwTkRETUAZslfM08P1IEQNDAJ6hyNmMGB/JRs5VUXvR+3I/uckRAT7G+OjfREYOh6Jy/Pdt+jac5E6azxCznOMjfbtNQjj52bDftTYXl5pIdL1fQf1MsZoe/kjZOQkLFxX5PZmgn3jQkwaGQL/8q9jVeFxr8MxbjwCqTsKkfrwIPiq1zEU8escPeOc48oTN6unFZR+lo7EcYNcr9/1mja66VVXw9df73alIfkVfT0hDCE+PggbFas/yUT6phMMjDglBKGR+udhQyqyqwj0czcsgN02CaED2xolRERETRODdyIisr6yHGS/ogehQ2IQ3lsK/BA6KkyPZhORus5dKF6E1HFBGDQ5DYV+4Zg3Zx7mzYiA3/cZiI/sg4CJFbtkl21LwtCgEEQ9loHSK2LV/lG9ipExTQ+g+yci91djR/FrLhKHBCLisWx49492HHtqKJCvB+hh/gh9rnwX7lJkTw+Bb6geGOd3RNgMfd85UQiS1xEeiIA7U920GBdhwdhQxG6wIUq9Dh8Enmfe5btoeRQCekUgfpM3+oySnzEPcRMCULpJf02hQYhaWS6Ar9HrbxhFm9L1UN2GuBGh8NGfe/cPQ5z+ljPnp59wrHqQ6oWRjdSN7gL9XGTLOPqJoQg+2SgiIiJqqmSqOFFaWqodPnxYPa4pOYbzOHXhqeOIXbt2GY9qz2rvy1PHES2hfr799ltN/4hr1157rVFCRE1VSXq0+nuOTi8xSnTfp2nRehmGLNH2GEVOh9fHqv3DXq68ZY+2ZIifFjw4Vsv43ig6nKMl9NaPg2Atbn254+v2pEZqegyp2SZkaM4te14O1fe1abHrK31nHszSYnsGaKHDFmh5RlHxCuP/j07R9vxhFColWtajweo1Bj/r3FvfPzVclaF3nJZz0Cgsx7k9IdcoEM566Jdw/P8pStHCZdvgY3VUk9dfNb3O5LgI11L2GUXu5CY43s+IFK3YKDpenjZP6r/3vAo/N29OkHqdcdlurk2cx52Zoz8x/n+59+ii72dDkDYv3/H42P8hoqbml19+UX/DPj4+Rkn1eOo6UzC+MMf6MeeJ+nG1vHfo0AHe3s1rBB0RETUHpchek6yvYxA+UNplDZ3CEDlVX7tJXFf6g6MV1rdTR7U+xg/RmXuQs34ewjo5SkrXJSNe//+2RxMQP7jc8XV+oxZi4VjAvniha/y13Z6t/+sL386VvjPbhWLezgJkrXYmYstHyuxU2BGOpNmR8KvQ8uuD0McSVOty7sMpyK7UVz3ozggEtzOenEBpbg6K+vkhfHL08f+nux/6yHqDXX8dDtV//Q3EmcvgztAKPzdoeAxCq5W4LqjKrvOqy3zvKISq3hpERERNG7vNExGRtRnjoW2PhiO0QmztjZAhcbC5SVxn6xWKYH2dHN4HEdOSkb65EKVuB3OXIS9XbgwA0WGhbpLA+SBoYLi+zkR2viP8Dbg8Rv3MKUNkTHwqMrcVoczduHh7EfLkpsJwPRA/x1FUgXcoht4tD1KQ+5kqcQnpWf1M8j6S5T13D9JG2YBfS1G6Nx/ZG9ORPHcKxodGY4Gxn1O1X3+DcOYyCEPMsEq3DHqGInKIvq5G4jr3XecdXeaDIiveFCAiImqqGLwTEZGlFW3UA0x9bX9qENqq5GrHlrahiapF2f5UOrLLN89eHIOUFdEIsBUhfe54RAQHomNbXwT+fRKSlueWS0JXCvteWQegcHUSkuYev6TnOqL+1B2OwNBnyDykzwmDnz0bydOiMDTIH21P8UfIuClIXld0rJVYD94LZX2xH6oKxW1dQ/V/7SgpqXhnwbdzxR4AJ1K2IxVTwvzhdXpHdPTrg0GhERg/LR0FnY7/2dV+/Q2hLAeZT8lvMBPjXYn2nIs/xq+TnTKxcM0JRr73DlVZ57NXZh/LIaCyzAchajBDdyIiah5cwXtpaSnKytw2SxARETWSfKQvytaj3ACEDg51v1xs0/dbiPSNFcNOvxFLUFBUgoLMJYibEKYH8nYUrlmIKZEhxyeh08Ps9LlTMGWam2Wx3DoozxvBUzOw5+Ae5KQuQOzYYD1ALkLuK0kYrwfQ7pPQmfNuW4dha9uSEBoQhaR8P0TPSUFGbgGKS0pwWNNf34p4DDV2O8bzr7+2StelIklf+/Vz83tVi7w2/VPwerb+STBTuet8GbJXs8s8ERE1L67gffv27bDby2WjJSIiamybMzFPxqNPTEbW+iz3y7Ipqlt08r/Sjg86vX0QMCQaCYsyUFCsoaQwAwnD9GB/czwSVsrePrB1lx3DkVKkQdNMlhnSEb+cdn4IHhWDeUtzsEc7jOLcJYjpB9iXxSJ5Y5n+ov0QIPt9VlRFMFyGop0y/tyG2sfuepCaOgW5+qOYpRlYMjUSYf0CYPPxOfE88Cd6/fXOjszlMmQhXP9duPm9qiUTCybou2ybh7QTvCZn13k1vZwxO0HlcfRERERNGbvNExGRRRmtp3pwO2lwpcC5PGPO92OJ6/T/99ggDOo1FMmVxkr7XBiGuGnR6nHmfrlh7Y3AIBnTno7s/Op0GC9EcqTMpT6lUpI5b9j6RSN2ohzLjkK7fiw9eO8jrb6r0pC7X+1UkQSYy+RBBIJ6qpJacHb7D0dILzfh+rYcpBkPHWrw+uvbrgykrNTXIyIQ6i4ngOKD0OEy53s1EtcZXeczV2ajMDcbydJlfiBDdyIiaj4YvBMRkTWVZiNdxkPbJiG0n1HmljHnO5yJ67zRJ8gP2Z9lYuHr2ZUCvjLkrnd0g4/prdrFYRsWg1gbkDwxBqkqEC7naBFS7/SF13khiN8g0W6AfuwS5O5KwsLlldvTi5C7Jl1fByEkQLry68Hj9EjYkI7Y6akoqpAUrhTZM+ORqL+94NnRlRLx1YSz50A60irPc16ai8QJUyp1N6/J669f+WsWqlwG4cND9TqqmnPO9xMnrjO6zq/LRIK+L7vMExFRc8PgnYiILKl0YzoW6mvbREfmeDN+/cMh4bv9qVRk/qCHtMPjkDLahvxZgxDQKwpTVPK5eEwKC0TIrHzYRqcgdpgRMbcLRcKqBIQiFVF+jsRtKlndtPF6EOuPqGV2/fhTED3Y0bIdNGEhEvrp4fI4f/iHTUK8OvYURPUKQdRKPRifuRAxRtBoG7EQKY8Gw74sCv4BQzHpMee+ARj0VK7+OpYg+f6gE3dxr5I3QkYmqPpJvzMEgZGO1x4/cSj8O4YgOWAB5qmM9nkoMlr/a/L6608+sl+X2wrhiOh/ghsF3iEIHSv7ZGLhqhOMfFdd59ORqv/O2GWeiIiaG1fw3rt3b9hs9X+nnYiI6MSKkPYvGQ9tQ/TV1QjBeoYiXKYVQzJSNkh3eD9ELs1H1vwYhLTL1QNxST6XjOwyPVBPzUPh65EqEZqTd784ZOVnYcEE/WdtSnIkqpubrUeDMViQuQd5S8OP7d8uGHHrCpA2Mxp++9KQqI6djqKACLVv9ozgcsG4D0Jn56A4ewFigkqQOUv2TUF+56FISC/QX0c0Aqo5n3tVvC+PQ+ancjOiI0qWy2ufh/T9fohVrzsG4VdIRvt05BUa/eRr9PrrR9nGNJXLAEPC3E+jV4E3QgZHq9b5/Gcz1fj+Khld54HQ46eeIyIiauK8du7cqcmULHUhiXyEVY4jDh8+jLZt2xrPasdq74v1Y67ycb777juEhITg2muvxcaNG1UZERERETU9Bw8eRPv27dWSl5dnlJ4Yr5/NsX7MWa1+vI4cOaK1bt3aeFo7v//+u1pb5Thi9+7d6NGjh/Gsdqz2vlg/5iofp7i4GGeddRaDdyIiIqImzhm8+/j4oKSkxCg9MV4/m2P9mLNa/XDMOxEREREREZHFuYL30tJSlJWZz6FKRERERERERA3PFbxv374ddrsk+SEiIiIiIiIiK2G3eSIiIiIiIiKLY/BOREREREREZHEM3omIiIiIiIgszhW89+7dGzabzXhGRERERERERFbhCt47dOgAb29v4xkRERERERERWQW7zRMRERERERFZHIN3IiIiIiIiIotzBe+lpaUoKysznhERERERERGRVbiC9+3bt8NutxvPiIiIiIiIiMgq2G2eiIiIiIiIyOIYvBMRERERERFZHIN3IiIiIiIiIovzOnTokNaqVSscPHgQrVu3Rps2bYxN1ffXX3+ptRynLjx1HLFv3z507drVeFY7VntfrB9zlY9TXFwMPz8/XHvttdi4caMqIyIiIqKmR2KV9u3bw8fHp0Z5unj9bI71Y85q9dPKy8sLssgfg7e3t3rcHBbhrpyLY2kp9UNEREREzYu7a76GWBrzZzeFhfVjvnikfo4cOaJJi3td/P7772ptleOI3bt3o0ePHsaz2rHa+2L9mKt8HGl5P+uss9jyTkRERNTElW95LykpMUpPjNfP5lg/5qxWPwzeTfDDY87q9VM+eCciIiKipu3dd99l8G6w2nEE68ecR4P30tJS1W1elprih8cc68dcfR3HGbwTERERUfPA4N3BascRrB9zHg3e33vvPXTr1g3du3c3NlUfPzzmWD/m6us4zuC9f//+yMjIUGVERERE1PT8+uuvruu6999/3yg9MV4/m2P9mLNa/TB4N8EPjzmr149zbBTHvBMRERE1bbW9ruP1sznWjzmr1U/dc94TERERERERUb1i8E5ERERERERkca7gvXfv3rDZbMYzIiIiIiIiIrIKV/DeoUOHWmWaJyIiIiIiIqL6xW7zRERERERERBbH4J2IiIiIiIjI4lzBe2lpKcrKyoxnRERERERERGQVruB9+/btsNvtxjMiIiIiIiIisgp2myciIiIiIiKyOAbvRERERERERBbH4J2IiIiIiIjI4rwOHTqktWrVCgcPHkTr1q3Rpk0bY1P1/fXXX2otx6kLTx1H7Nu3D127djWe1Y7V3hfrx1zl48hnunPnzrj22muxceNGVUZERERETY9c17Vv3x4DBgzA+vXrjdIT4/WzOdaPOavVTysvLy/IIn8M3t7e6nFzWIS7ci6OpaXUDxERERE1L+6u+Rpiacyf3RQW1o/54pH6OXLkiCYt7nXx+++/q7VVjiN2796NHj16GM9qx2rvi/VjrvJxnHdo2fJORERE1LTV9rqO18/mWD/mrFY/dW//JyIiIiIiIqJ65QreS0tLUVZWZjwjIiIiIiIiIqtwBe/bt2+H3W43nhERERERERGRVbDbPBEREREREZHFMXgnIiIiIiIisjgG70REREREJo4ePYoDBw5gx44d+Oijj5CdnY21a9ciLS0N//73v5Gamorly5djxYoVWLVqFdatW4f33nsPeXl5KsP0Tz/9ZByJiKj2XFPF/fzzz2jTpo2a672mOFWBOdaPufo6DqeKIyIiour47bff8MUXX2Dnzp3qGmnv3r34+uuv8c0336C4uBg//vijsWftnXTSSejSpQvOOussnHPOOTj33HPh5+eHnj174rzzzsMFF1xg7EnucKq4iqx2HMH6MeeJ+uE87yb44TFn9fph8E5ERESVfffdd9i6dSv+97//Ydu2bfj000+xa9cuY2tF0rDl6+uLv/3tbzjzzDPRsWNHdOjQAe3atcOpp56qtp988slo1crRmfXPP//EH3/8oWZwOnTokLoWkRmdSkpK8P3336ufLTcD3DnllFNw8cUX49JLL0Xv3r1x2WWXoW/fvh657msOGLxXZLXjCNaPOQbvJvjhMcfgnYiIiFoCaUF/99138f777+PDDz9UXd/Lk2uFiy66CBdeeCHOP/98dX0kLeLSMi5Bu6f99ddf2LdvH7766isUFRWpGwfS6l9YWIjPP/8cmqYZezqEhITg6quvxoABAzBw4EB106AlYvBekdWOI1g/5hi8m+CHxxyDdyIiImqu5Htfxp2vX79eTYfs1LZtW/Tr10+1aEvLdlBQkOq2bhXSci+vV8bKf/zxx2p8vfQOKO+6667DDTfcgLCwMAQGBhqlzR+D94qsdhzB+jHn0eBduvTIeHeOeT+GHx5zVq8fBu9EREQtx4YNG1QCubffflsllxNeXl4YNGgQQkNDVcv1VVddpcqbErlG37Rpk+o9IInyygfz0sV++PDhiIiIUF3umzMG7xVZ7TiC9WPOE/XjyjYvd/nsdrvxjIiIiIjI2qSb+aOPPoru3bvj+uuvx0svvaS6nUdHRyM9PV0lopOgXvZpioG78PHxwbBhw5CUlIT8/HyVTG/x4sW46aab1PX7E088gV69eqnu9QsXLlRJqImoeeJUcURERETUpKxcuRI33nijam1++umn1VRsErBLV3lpdV+yZIlqkZZu8s1Nt27dcN9992HNmjUqUF+6dCmGDBmC3NxcTJo0SSXWu/vuu1WXeyJqXhi8ExEREZHlSaK3F154QU2pNnLkSPzf//2f6hL/6quvqmzuErBLQN+SSDfysWPHIjMzUyXAS0hIUN1ypS5kbL+MjV+9erWxNxE1dQzeiYiIiMiyJGifM2eOmh/9wQcfVHOxS8uzTPX2zjvvYMyYMWoO9ZZOsuPHxcWpzPWrVq1SrfGSsO/mm29WXeolHwARNW1ehw4d0mRuSkkCIQPxZb7KmpKTqnDOcVlbnjqOkCk4unbtajyrHau9L9aPucrHkc90586dmbCOiIioiVq0aBFmz56Nb775BqeffjomT56M+++/H126dDH2IDPSdX7+/PlITU1Vz+WaSMb/S36ApsaZsE4SD8pNieri9bM51o85q9VPK8nCKYv8MUimeefzpr4Id+VcHEtLqR8iIiJqejIyMnD55ZcjJiYG33//PeLj47F//37VLZyBe/VdeeWVSElJUVPPjRo1SmWsl670UVFRan75psrdNV9DLI35s5vCwvoxXzxSP5znvWqcqsCc1euHU8URERE1LTLz0T/+8Q+89tpr6vmECRNU4C5d5qnu3nvvPcyaNQtZWVnquST7e+SRR9Rjq+NUcRVZ7TiC9WPOo1PFERERERE1ltdffx0XXXSRCtwHDhyIDz/8UHWbZ+DuOddcc43KEyAZ6n19fdWNEumGLvkDiMj6XMF7aWkpysrKjGdERERERPXvyJEjapo3STwnU58999xzyM7OVknWqH6MHTsWO3bsUFPKbdq0SQ1ReP75542tRGRVruB9+/btqqsSEREREVFDkIRqEjhKS7BM+/bpp5+qjPJU/6QL+ssvv4wVK1aoPAIPPfQQ7rjjDjbmEVkYu80TERERUYN744031Fzkn332GaZPn666cwcEBBhbqaGMGDFCJbS76aabVHI76fHw+eefG1uJyEoYvBMRERFRg5JEaaNHj1ZJoJYvX47ExERjCzUGySuwZs0albwuPz8f/fv3x4YNG4ytRGQVDN6JiIiIqMFIkjSZa9zf31+Nt7799tuNLdTY5KbK4sWLUVJSouaCf+utt4wtRGQFruC9d+/esNlsxjMiIiIiIs+KjY3FM888g8suu0wlpevbt6+xpW7KNsbDV+ZADktGkVFmpnTVeDVncp+5+UZJ9eTOcsy1nLjZKNA5yiKQut8oMGVH6sia7N/w7rvvPlfQLl3q//3vf6vHRNT4XMF7hw4d4O3tbTwjIiIiIvIcGdf+7LPPqnHu//3vf9GtWzdjS915DxyKSdIGtS4d2bscZVWzI3N5sr4OQtTgIEcRVRAREYGMjAy0atVK9YxYvXq1sYWIGhO7zRMRERFRvUpKSsJTTz2lenpKINipUydji6cEI+xhCcQzkbrxBG3vuzKQslJfD4lBeG9HUV0Ez9CgaWmIPMcoaCbCwsLw9ttvq8e33norcnNz1WMiajwM3omIiIio3qSnp2PKlCk455xzVHfszp07G1s8K2h4DEL1dfaidJh1hi/amKqH+ED03RHwcxRRFYYNG4bXX38df/zxh5pG7sCBA8YWImoMruC9tLSU8zoSERERkcfs3LkT48aNU4+XLVuGHj16qMf1omcoIofo620pyN7mKDpePtIXZevraIT193EUoRSFqxIx/voQ+Mu4eVnOC0HExIXIthu7mKhyzLs9G0njnMf0x9BpqSj81djmjr7/wokRGNTL1/EavHwRGDoeiasK9VdYkeNnJiL3h1wkjfRX+/sHj0fyZ56/lpdZARISErBnzx6MHz/eKCWixuAK3rdv3w67vRpnKCIiIiKiaoiJicHPP/+MhQsX4tprrzVK64sfIu6O1tf5SNlQRdv7tmyk6IG97dFIhKme+0VIvTMAgeHxyD65DyLnzMO8OXGICShFzuJJGBQUhfRaJJYr25yIEN9BmPKKHQET4vRjhsNnXSwCB8cio3IkrnPuP0kP1G1Dpuj7669j6lD47EtGfHggwp7Kx/FheQZih4Vg4a9hiNNfc1hnP/j1rJ/8VXFxcbjtttuwdu1aTutH1IjYbZ6IiIiIPG7u3LlqrnDpbj1x4kSjtH75DAxHjL7OT81223U+d808vdyGSX8PhYS5pasSEbXMjuCZOSjIXICEqbGInZqABasLkPN6OGBPxcJ11clfX05ZLpImxCMX4VhQWICMRQn6Mech5dNC5IQVIfW46dPzsVD2t0UiJbcAKXPkNejLnCXIyc9BXG/9dU9PQc5x0XsucrumIEu9bnnNcQitx9zTMoVc165dER8fj61btxqlRNSQGLwTERERkUft3r0bjzzyiEpMJxnmG4xPKMIftQHb5iGz3HRuSlm2Hkjbgd5TENZPCkqRk1uE4J7hmDQ2WAXz5fmd10ets2vYM7VsUxritwFBc+IRc2H5o/ogWA+y4yrPzLwtB9kdA+A3cRIiuxtlTu38EHiePCiC/QdVUkHM6LAGG7ffsWNHlXhQyDz9RNTwGLwTERERkUfNnDkTmqapsdL1laDOPW+E/n0SbLBjwersCl3Ny3KzkazH4WGTw+GYIM4HYXOykLPTkSm+rLQURduykb0qGUnTxmPQ3QvUXjVV+HGKWocFu5mGzrsPQoYbj516xyAjuwB7ZgTLi0CpvRC5GzOR+s94TBoZjnjJjO9WEPy6OsftNwyZ933kyJHIyspSOQyIqGG5gneZusNmq3wrkIiIiIio+qRLtWQov/LKK3HvvfcapQ2oXxim9Absr2SX62peiuyViXpIH4bw/uXbqstQuHwKhp7nhbYdO8I/aBAGhY/HlFUF8OlauzbtsqPSUh8KP7eX1T7o6Gs8LE8Sz0UGwrdtR317IEJChyJqcjKyf+gIvyqns/ODr6dn3KuGxx57TK2ffvpptSaihuO1c+dOTTJU1oXcWRVWOY44fPgw2rZtazyrHau9L9aPucrH+e2333DppZeqBDkbN25UZURERFS/JDv5G2+8gRUrVqiW2sZQ9MpQ+I/LQ1x2ERIGeuvBcTrGd45A8tg0lCwN10Noh/znQtDn4VzYBkZjyt3hCAnqgwCbD3x89P+zORFewfHAzBxo0iqukyzvIXrsmpCrIU51vXeWhSNln6MF3/E8FEt2ZiG6p2Of8irvjx8yManXUCy0+yF8ahyihvRBUJAemLfzgffJdqSO9EXUynL7uztGA7vnnnvwr3/9S92kkd93Qzh48CDat2+vbgqlpDh6N1QHr5/NsX7MWa1+cOTIEf011Y0cw0rHEbt27TIe1Z7V3penjiNaQv388ssv8tem6cG7UUJERET16auvvlLfvZdccolR0kh2LtHC9NeBqVnaYf1pcWq4el2x6+WZ4XCWFiv7IEbLOGiUlZeboP6PHrwbBZqWM1P2h6YH7y6OsnAtZZ/jed5sm9onbpPjeWU5Myruv+flULV/6KICR0EFxVrKiIr7i8o/s6Ft375dveb+/fsbJfWvttd1nrrOFIwvzLF+zHmifjjmnYiIiIg8wtkiOnbsWLVuND0jEC0vYW4mcsrsyF6VDtjiENa/XAK5H+xQeeRHhKBPO1VSQf6mNONRzQT0i4b0mE/OrDjm3iEfOWuMhwa7XeadB0KDAtS6gh9ykF3lmPfGc8kll+CGG27Apk2bkJ9fxbR8RORxruC9tLQUZWXHn2KIiIiIiKojLc0R8I4aNUqtG48PQofLpHFJyFyWgTQ9AA56OKLiVGqdbI5M7SvTkL1XlbiUfpCImGm1C0q9B0ZgSj89KH8qHkkflJ/UvQy5s2IwZZvx1GCzhap1WmZuxWD/aBFSH45BsvHUam6//Xa1Tk9PV2siqn+u4H379u2w13AqDCIiIiIiUVRUhP/9738YNGgQunTpYpQ2Hp/B4WpatpTH4pGOIEQNrpT93TsEUbNlLHs6ooIDETUtCUlz4zEpzB8d+ycjcP48RMt+nxahZlfIQYhdnoJIWy7i+wcgMHKKcdxANV4+2Bgr7+Q3JEbfF8ifFYLAsEmIn6u/jmlRCOzqj9j90VgwQ4L7dBTtd+xvFTfffLNaZ2ZmqjUR1T92myciIiKiOnvvvffUWoJ3S/AORcTDQY7GKT1ADj8ua7s3gh7NREFqLMI6lSB17hRMeVYPkrvHImNnHpbcH47gwfpuK/NQUNPOqd0jkfKpfoypfYCNSZgyLRnZJ4dhwaZMJIUZ+zidE46U/CzMGxsMrFuIxGlTsHBTW0Q9m4P89QmI7u+46ZD9qerkbxky7/vVV1+NvLw8fPfdd0YpEdUnLxmA37p1a3XC7datG7p3725sqr7ff/9dreU4deGp44jdu3ejR48exrPasdr7Yv2Yq3wcZ1ZSZpsnIiI6sQ0bNqjAu1Wr2rXtTJw4EYsXL8a7776La665xiil5mzatGmYO3cu1q5di6FDhxql9aO213W8fjbH+jFntfphyzsRERERYcGCBTj11FNx00034fnnn8dnn31mbKke5/69e1c5MTk1MzIlr/j888/Vmojqlyt4lxOtzSa5MYmIiIiopQkKCpIphJGRkYGHHnoIvXr1gr+/v5rTW+Zs/+mnn4w93duzZ48a696hQwejhJq7nj0dE9nL756I6p8reJcTrbd3+RScRERERNRSSPBe2d69e/Gvf/0Lt912G84880w1xvmJJ57ABx98YOxxjIwtZ0NQy+Lr66vWBw4cUGsiql/sNk9EREREboN3TdOMRw4ffvghnnzySfTv318lLBs5ciRefvll1W36zz//VGOSqeVw/r5lPDoR1T8G70RERESEc889t0Yt56WlpVi5ciXuvfdeXHzxxarspJNOUmtqGZy/b7lxQ0T1zxW8ywm4rKym82AQERERUXPhrvX9RE4//XQsX75cPea1ZMvi/H1z6C1Rw3AF79u3b3fMg0lERERELYqMbZfu8DVNPCZj4Ldu3Yrbb79dBfE//vijsYVagh9++EGtzzjjDLUmovrFbvNE1ITYkTrSC15eEUjdbxRZUi4SvfTXOTJVf8VERNYhPS1lqeztt99Wiei++OILo+TEZF73TZs24YILLlDPpdv9119/rR5Ty/DVV1+pddeuXdWaiOoXg3ciIiKiZkiC9Pfee0+1qA8fPhx+fn4qydy2bduMPY655ZZb8Morr2DNmjVGibnFixdj4cKFxjMHCeJlqrkvv/zSKGlKSpH/z0SkW/rG8IkUIXPaUPifF4LxczNRJPdoSjMxycsLiZsde3haYWGhWp9//vlqTUT1i8E7EbVYkh1XWg0++eQT5OTkYMOGDerC9a233sKbb76J1NRUNY7z3//+N9LT09Xcx9nZ2fjoo4/UBcu3335bxfjOYMRpGrQVkeCkSUTUmK699lrVoi4t69I1/pprrjG2VNS9e3fcdddduOmmm9CpUyej9HiBgYEq4/x9991nlBzjHC//8ccfq3VTkv9UAPpMzkNTHrFf9MokDJ1bCFvXUmRIEB8QiJD+0ViIcPidY+zkYc7fdW1yJRBRzXkdOnRIa9WqlbqIbd26Ndq0aWNsqr6//vpLreU4deGp44h9+/bVuQuP1d4X68dc5ePIZ7pz587qwmXjxo2qjJo66Tbvi6iV4UjZl4ZIk4sR/dymWn92796NoqIiFaTv378f33zzjcrv8d1336kWIk+QcZ5dunRR892effbZ6m9LLoT9/f3Ro0cPnHfeecaeRER1J0G45CqSFvR3331XrW+++Wa8+uqrxh7HSODeu3dvtch5qTquv/56dTOzMpnrfcmSJWjXrp1RUpHc3Bw0aBDuuecevPTSS0Zp05A7ywshj534u8W67Ei/0xcR3XOgzQxG6WepSJgWj6R8b0TPz8CSEX7Gfp4l33e//vorSkpKjJL6I9d1MjXdgAEDsH79eqP0xHj9bI71Y85q9eN1+PBhFbzXhRUrR8ZcydirumjOH56WUD9ykpfWAwbvzYn74F2C9Pz8fHUx++mnn6r5hiVgr9JJp6B9h87wu+A8+NvOQIcOHVQAftppp6mMuW1+348tGz9Azmc7cODg6fhbYBCuve4a2Pa/hfnphegbPgHntf0FP//8M3766Sd8//336maAPHfn5JNPRmCgftH8yS58MngCMu/pjb0bV2PZ+gzk7gL8+kUjelosYocHgPl6iehEpIv7f/7zH+MZ1DlMWs2ff/55o6RuHnnkEcyZM8d45pCYmIjp06cbz6om51JJXuYcC91UNP3gveFJL7R+/fqpuf6lh1p9Kx+8u7u5VBVeP5tj/ZizWv1Iy5NWV3IMKx1H7Nq1y3hUe1Z7X546jmgJ9fPLL79o+kdc04N3o4SavmLt9Vuh/177ayOmztLCwsK0M888U/2eyy8dO3bUgoODtTFjxmiPTb5FC+kg5WdoPW++W5vz9BwtbkKY5qf2DdYScg8bx3Y4nJughdpkm58WNiFOmzcnVou82Kb2jRwdqo6fkGvsXMmvv/6q7dixQ1u//nntFjn+hX/Xbrr1Vq1Xr17aySefpP5v+cVHf+19ArtrtvaO58HP5hlHIqKWKD8/X3v11Ve1Bx98UH13yXnBnVdeeUV7/PHHtVWrVmlFRUVGqee8+eabrvNUly5dtDVr1hhbTuyOO+5Q/++dd94xSk6gpEBLmxmtharzrP4zewZr4VNTtIISY3t5xVnaggnhWnBPx2uzXRyqRc9Mc7NvjpYgx5qZo46fMvXY//HrF60lpBdorjP/vhQtXPatsIRrKftk47HjlGyap4WrY/hpwWOXaAXOAxivyfX6YdMCBjp+xnEv649iLWt+jBbez6/ivql5x+8rSvZoGfr+YSesmxq83/Jq8trdmDJlivp/b7zxhlFSv2p7Xeep60zB+MIc68ecJ+qHwbsJq70vTx1HMHinpuR///uf9vTTT2uDB1+jneTluCBxLueee64WHh6uJSQkqAvMr776yvhfusN5WkI/2U8P0jdVvBQ5XLhEi5Qg3RajZXzvLNQvgHob+1cI6ku0nJnBrp9ZVfB+jHEhNSJFKzZKpGyy8f/PujpKGxAaqrVv3951TLW0aqddd/vt2pIlS7Svv/7a+H9E1BJs3Lix4vlAX7p166YC+ob2xRdfqJ8/ePDgiufUapDzsPxfuXl6QkUpjvOwBI3DYrS4OfO02FEBmk3evy1SSyl3X6JkfZwWrOrFeWO16n1d5+CxsVqs/h1guzhSi9X3nzc1UgtQP6/czdKSHG2Jvi1miJQHaZGP6vvNWaLlqK8M4zj9gvWfbfzcGXowPTNLBcNys1e9JluAFjlV/p/8jGhX4Bw8O69c0LxHSxktQbL+XkfFOvaVYxmBs21CRsWAuShDi1HfX3oAPsRRN64bz3V5v4aavXb3fH19tXbt2mm///67UVK/GLxXZLXjCNaPOY8G7yUlJZp0oa+N5lo5VntfnjqOYPBOVvff//5Xi4mJ0bp3765+j87lHNVK7a/FLEjV9u7da+ztXsnqGPV/gmbmuL0I2bM0TG0PfXmPen54faxj/zluWsBdgX3tg3dV5mrRccjLy9MWLJit9esq27zV8Z1L3759tZkzZzbKxTsRec67775boUX9ueeeM7YcI9dhN998s2pRl0Benjem2NhY41HNXXjhheocZn4Tco+2RAXMwVrc+orvdU9qpArKbfcbAe2+NONma+WgtVxQ32+eduzM7Tzf6kGotJobpUqR0dJuS9D3OiZnpuxf8fxc/jjhrzu+J47J0+bJd4Kb16QdzNHi1PdFrJZlfPk4v1/CjO+bY6Qe/LTgwbHHbiTr3xwpI+T/27TIlyu2mruC7jq935q9dnfkJrP8vAceeMAoqX8M3iuy2nEE68ecJ+rH1XlfxopKEiciosYiuQlk3uC//e1vuPHGG9U0RDKmXMbTJScn46uvPsYzN8ievRFy8yh069ZN/b+qFH2WptZhA4PdjiX3GxgF/aIG2Zvy1XzshR+nqPKI/m6y5noHI3SY8bgubH0QUG48pWTojYl5FM/eLc/CkJj5Pzz99NMYOHAgtmzZgscee0ztc+mll2LWrFk1moOZiBqfJInTgw3XmHRJMOdunnUfHx/XXOuyvzxvTPPmzTMe1Zycx8Vzzz2n1m5tS8fCdfr6/njED674Xv1GJSBhSAACdxSi8CiQvzIBqfpJOvzZJERWyrnnMzgeCY/qof7mKUjZUDlXfDgmjQ1GhaN3D0XECH1tz0NRtaeFi0H0sEoJ37blILtjAPwmTjruNaGdHwJVntIi2H9QJSj9wZGHxbdTR7U+xg/RmXuQs34ewpxJ/relYN5KfT1Er4e7K+ZC8e4Xh4Vz9O+ozfOQtrGW77eGr92dF154Qa3dzTpARPWn7iPviYjqQJIaJSQk4MILL0RoaKiaO1iSgtx7773IzMxUSeAkEc64ceNw7rlnG/+rOkpRvE9C8nAEVpV8yGbTL5t09hIc1sP3okLH/lVNqWM7T0L9OurvB1/joTvde/VRyaIka7Mkwlu6dKnKIi3T2UkgL/Uk2ZxlPuY///zT+F9E1BhkDnUJYsaOHYsHH3zQKK1IksuNGTNGBbJyg1LTNBWgN2f333+/mlNe3nNVNxzthTnI19eR/fu4ubkqAW0BstbHIvhk/dycL3uGIyLY3eSb3ggNi1aPUj52zDnuUulmqYN+3u9lPKyu3vp5u/K9lN4xyMguwJ4ZwUBZKUrthcjdmInUf8Zj0shwxEvwXY6tVyj0PZEc3gcR05KRvrkQpVXMS1e0NVPVTfioUMd3VCVBwWH6v3Yk68eooLrvt4avvbJFixap5LB33323+k4ioobD4J2IGoVM8yIt6tIqNWPGDDWl2x133KHmWZdeQC+++CKGDBli7F3P2rVVK7dTtjcimS1BggJpjZNpeGTqJbnBIYG93MyQ7VOmTMGOHTuM/0FEDUFa0L28vFQLuQTtMkWbsyWyMtlXtst+sn9LER8fr9Zy09Gdol3pah3Y1V1AXl4xij6VdQD8qprpzuaHUH1l18+TFU7jJ7hZWm3n+bo/zg+5SIoMhG/bjujoG4iQ0KGImpyM7B86wq+3sY/TxTFIWRGNAFsR0ueOR0RwIDq29UXg3ychaXku7EeN/XR2e7Zal25KRdLcpOOXzCJI/zB7fqHqNeZSk/dbk9dejvQakZtPcpO9OrMPEJFnMXgnogb1+uuvq6llbrjhBqxcuRJXXHEFFixYoLrHL1u2DDfddJOxZ135wFddFKajoKqukfuLVOsG2nmjrat1Ir3KrpT2nY6LzcYgXWhl7uSsrCwUFBTgH//4h5rWLikpCQEBAbj99tvx/vvvG3sTUW1JcCIt6k8++SSGDx+u5lCvTG46XnPNNce1qNMxcoNx8ODBWLFiBd544w2jtJ55t2246TZ/yMSkXiGYsrwMIVOXIC07D3tKSnD4j2IUZCcjWnU9r8hvxBIUFJWgIHMJ4iaE6YG8HYVrFmJKZAh8+yci91djR0P2v+IxZdqU45enUh3fXbVVi9fuNHXqVNUrTHrMyd8BETUsV/Deu3dv2GwnuvtJRFQ7L7/8sgoy5WJX5oa97bbbVCAq47pjYmLU3MCe5ndxhFpnbsyt2BpjKNqUDmnfCAry00N3IKB3jCpP2+TusigfOWuMh41M6vGpp55CcXGx6j4vN0NkaIEEE0OHDsU777xj7ElE1SVBu3T17tixo2ohl9ZF6fXiLniXrvAydr0ltqjXhHOueKkjmd+4PFt3xzCkAjW8yYyvcWO1EEV7VcFxyooK1bnc1rbBQncUrUrCQv2lhy7KQNqcaIQPDIKfjw+8TzZ2qIq3DwKGRCNB/38FxRpKCjOQMEz/Btocj4SVjnHxNpv0IwDiNmnqplCVy4pI9d1VU7V97XITZsmSJbjqqqvw6KOPGqVE1JBcwXuHDh1UKw4RkSdJS3tgYKAawy7duyWRUWFhId58803VBbw++QzWL5D66WH3Y7FI+qBigqiyHcmIn56pXyVFIn6EI0Gdz+AoJPTW95+WgIU7yof7ZcidFYMpx1/DNzpJgpWbm6vyA8gwA1lLa9ff//535OTkGHsR0d69e/Gf//xHtahL0F2Z9G6R4SlyE+yBBx5QN8by8/PV3xjVjjQMSc+EH3/8UfUcKs+vV4jq+p26Kc/NzdUyZE/zRWDoeKTutcEvSPZMR1quu0C/DDkbjWSjF7sbIV4/nF3bQ4MC1LqCH3KQXWHcuP5+HhuEQb2GInmXUWTwuTAMcdMcY/Yz9zven1+vUBWUZ+bWqX29SjV77Q6ff/65Kznd/Pnz1ZqIGh67zRNRvdiwYQP69++vWtolWJcERnLxLBnk657gJgcJd+oXQtdXtSx0dCn0DkLsK0sQactFfP8ABEZOUeMF4ycORWCAflFoD0bc6wsR7kzw4x2M2MUJCNYvEicFBGLoxHh9/3hMCgtEyGNAcD/ZKQhWvM/pDNylN0NYWJjKHSCtI9J1VZICErVU0uorrenSqi4t5tKi7i54F9L6Li3qMk5dgnYJPqlupP5Hjx6N//u//1M3RVx6hyNG0pr8M+H4m6vbFurnXjsK9XNycHf9rDsiXj+P6+H7w7F6MG/sZCjdkID4p/Sgt18Coitlra+5IhSbZFgvz9k6npZZqWfX0SKkPhyDZOOpgzf6BPkh+7NMLHw9G5XeLXLXZ6pHMb2NYLpfJBL0usmfFoPESnWjv2PkzgqBl28gIl6plLCummr22oHDhw+r7/LffvtN9aLr06ePsYWIGhzn0aua1d6Xp44jOM871Zf9+/dr+kWvqntZ7rzzTm3Hjh3G1rpyzn17oqXi/L1aSYGWNjNaC73Y5tjeM1gLn7BAyzo2CXsFh4sytHljgzU/dSw/LXhsgpZWeLiKeYDdMZnnvULZMdU/dvWsXbtWCw4OVu/35JNP1p566iljC1HzUlRUpL399tuaHpQbJRXJvOkdOnTQrrnmGvV41apV6v9Qwzl69KjrfDR79myjVFeU4pi/HTYtYFSsNm/OPC1uQpjj3FtpDnLXfO76OTlsQpzaN3ZUgJoPXvZdop+jj6n5+bY4NVy9PtsweR1LtBw157rJcZxzz+vb/YbEaHH665k3NVIL0MtsA+O0BTNC1baEXGN/bY+WMtrxHWS7OFKLlf3nxGkxQ/wcZaNT9D3KKUrTonvK8fW6GWYcf0aMFmZ8j9kG6t9zB419a/p+a/jahw0bpp5PmTLFUdBIOM97RVY7jmD9mPNE/biC95KSEu3w4fInvuprrpVjtfflqeMIBu9UHxYtWqS1a9dO1fuAAQO0jRs3GluaA+eNg1gtq3anykbx4osval26dFG/kyuuuEJ79913jS1ETVd+fr46t/v4+KjPtnORcrKmvXv3av7+/ur39MILLxilOuPmarAKVPVFbq5OXaLlqeC5kuIsbcGEcNe+totDteiZaVpBibHdpRY3Sw8WaClTjRsH+hK3SQrNjyOv59iNXj0Q7hetJaTmaMV/aNrh9bGqLPTlciH5H8Va1vwYLbyfI2BXgflA+T952nFvQVS+8eza3/EzjqnF+63ma4+MjFSPo6KijP/YeBi8V2S14wjWjzmPBu9yQVfbO9HNtXKs9r48dRzB4J08Sc4df//731V9n3baado///lPY0sTk5ugLhyjX6/Q/qGUbEpQrT62CRnuL7Is7Oeff9YmTpyofj+yTJ8+3dhCZF0SiL/66qtuA3Ipk89yt27dtJtvvlm1qMvNQmmIIOvatm2bZrM5AtHnnnvOKCWrcgbu8jdmBQzeK7LacQTrx5wn6odj3omoTlJSUnDppZdi9erVuPXWW9U0ZpMmTTK2NjG9w5DQKRfJd4aouXfj1Zy68Zj090AE9I9Hbr8YJE8LQ11HVTa09u3bq1wD69atU5nqZ8+ejauvvhqffPKJsQeRNTz00EMYOHCgmkM9KChIjTuXjO+VyVh0SS4neTRku4xj1y/oVdI5si75rli7di3OOuss9bueOXOmsYWsRA9UoAfsSE1NVWt3f4NE1DgYvBNRrT388MO44447cPDgQRUcyrzt5557rrG1CfIOQty6PciYH4GA7zORqObUTUTm9wGImJ+BPesWIKwJT2t744034tNPP8WECRPw4Ycf4rLLLsNrr71mbCVqGDKHelXBQH5+vkoY161bNxU0PP744yrJnDsM1JsmOe+sX79eJS6V36+cj8g6du7ciQEDBqgb8lFRUQzciSyGwTsR1ZjdbscNN9ygpgC64oorkJeXp6aAaxZ8/BB2/wKk5e5xzaW7JzcNC+4Pg18ziBVOOukkLFq0SAXt8lhaNv/xj38YW4k8T4LxsWPHqpZ0aVGXFnJ57o5kea/cos6M783PRRddhI0bN6peFi+++CKuu+46zophARKwh4SEYMuWLYiNjVXzuhORtXgdOnRIa9WqlWo5a926Ndq0aWNsqr6//vpLreU4deGp44h9+/aha9euxrPasdr7Yv2Yq3wc+Ux37txZXSjKRQJ5xscff4xRo0Zh165d6gJ86dKlxhZqarZv365+h9LaOXLkSCxfvtwj5xdqmaRFXbpFV24Rl2nZnMG6bJdgXBaZQoxI5n//17/+hU6dOmHx4sVq+BU1POkF4RzGsGDBAsTExKjHViLXdTIMTHoGSO+N6uL1sznWjzmr1U8ruQsui/wxeHt7q8fNYRHuyrk4lpZSP+RZMk+vtJRI4D5r1iwG7k2cBFLSfT48PBwrVqxAaGgofvihmpMcU4v35JNPYvjw4Wr+dDnfyo1SaWWvTLq9yw1U6cWybds2FcwzcCcnmTd8/vz56twzYsQI3H///Th69Kixleqb3MSVc78E7jKUQf6GrRi4V1b5eq+hlsb82U1hYf2YL56oH87zbsJq78tTxxEtoX6Ybd6z0tPTVX3KsmTJEqOUmosJEyao322fPn20ffs8NNk8NXmSvb2qmWic5wNZZA71Bx54oJlND+nOCaYOo1r76KOPtCuvvFJ9ns477zwtLS3N2EL1JSEhwfU3HB0drUlvXCtjtvmKrHYcwfox54n6qXv7PxE1e6tWrVKts0KS0ulf8uoxNR8yDn7atGkqf8FNN92Eb7/91thCLYm0jJdvUe/YsWOVreTSmi5DLvRrCdVaJ+PVpfWdqDb69u2LzZs3Y8aMGSppWkREhBqi9cUXXxh7kKesWbMGffr0QXx8PM455xw1ZGrJkiVo27atsQcRWZUreC8tLUVZWZnxjIjIQcaVOQN3SSDF8YjN1zPPPINHH31UdaOU4O2XX34xtlBzIwnh3JEAXJLEyd+67HPNNddUGZBLectLJheMOElkuSISNqOEPEu6b2/duhXXX3893nzzTdWVW24sSiJDqhupVzm3//3vf1c33iZPnozCwkLcfvvtxh5EZHWu4F0u1iSDNBGRk7TCyRhEIWOiZeomat5kDniZAlCyDd92221GKTVlcnP+P//5j2pRl5wV0pourepSXpnMPiA9bYqKilwt6i17fHopitYlIeq5fOP58eyrpmDKK7mwc5i2x1x++eUqx8rrr7+O8847D3PnzlXTkEpSNXefWzInPapGjx6tejfIjbmwsDDVy+GFF15Au3btjL2IqClgt3kicksukGSOV2l9lal8nEE8NX9JSUkYM2YM/vvf/6pM0NS0yU04SRonLeoSjEtQLi3q7oIgaU2Xfbt3726UtFBHS5G/KhER53WEf9gUpP7q7JmYi0RJGjQyFa7mjrIiJI0LgW/XQETNzUQRY0uPkYDzyy+/xLx583DaaaepVvmzzjoLU6dOxZ49e4y9qCoytEW+u2VufZn2TaaBk+A9IyMDV155pbEXETUlDN6JyK1x48ahoKAAcXFxuPfee41SaikkI7gEcjKFk8znT9YjQbnM1//QQw+pFnXJQisBemXye5QWS2eLugTtEsS3+ADdnaN25L4yBUMDOqJPeDzSfw1F9PwsFE8NNnY4nm1EMvLSExDerhCp04bCv6M/ImalI58TN3iMzDkuUyzNmTMHZ555pgrme/ToocbE12TKsJbgzz//RHJyMq666iqVRf6tt95C//791VpmF2EPOqKmjcE7ER0nMTHRlaQuISHBKKWW5pVXXsHf/vY31Y1+06ZNRilZhXRxl0XGqUsw3q1bN2PL8SSoZ4u6iTI7sv85HoO6+iJkXBIyEYbYpTko3peFJfeHwuZt7OfOyT4IGh6HtJ0l2JM5D5EXH0b6YxHo09kfQ6clI5cjEj3ilFNOUS3uEsTLTUXpWi9j4m+44QZcdNFF6ntr165dxt4tz/vvv4+JEyfijDPOwPjx45GTk6OS/snNDdkmj4mo6XMF75J0xmZj+hWilu6DDz5QGWi7du2q5t+llksCPRkyISSxETWM9957T41Fdbaoy/h0dyRwlxZ16RorybwkwZy7lncy8UM+0mdFwL+tLwZNTkZ2u3AkpOehpDAD88YGw3aysV+1+MBvSCxSPi1CcfYCRA88jMy54xHiqx/7noXI3s+kwJ4iwakkX8vKylJd66WXmHxvyfh4GRIiN7RaQrf63Nxc/OMf/8AFF1yg3vfixYvRvn17TJ8+XQ03kNb2wYMHG3sTUbPAefSqZrX35anjiJZQP5znvXac8+yuWrXKKKGWTubvls+EfpFolFB90YNxVdfll0svvdTYSp5VrKWMMOq5Z7iWkF6glRhbqlazed71IF6LHmgzfpcJ+v+m+lBSUqLpgas2cOBA19+NLJdffrkWFxenbdy40dizafvpp5+0lStXanfffbd27rnnut5n69attaioKO0///mPsWfzxHneK7LacQTrx5wn6ofd5onIRcYRfvTRR9AvDFQXWyIhCex69uyJp59+Gv/73/+MUqopZ4v62LFjERQUpLq6VyZ/d5IsUPIMSIu6/j2txrZTfStD8f5CFHmydfyHQhTYS3H4e+M51RsfHx/cd999yM7OVj1Q5O9MWpw//vhj1Z1eerBIVnXJsi7PZb/ffvvN+N/W9c033yAtLU2N+ZcEc9IlXhLQybABSSYrSWX//e9/q8eSkE6mgCOi5s1L7iS0bt3aeFo7v//+u1pb5Thi9+7dKplJXVjtfbF+zFU+zsGDB1X3MUnWJBfBZO77779X3XNPOukkNW6wc+fOxhYiqAtEmQtYLg5l2jGqPkkQJ9OzVSY5BaTrOzWiMjtyVyVjwewFSP3MMTjdr180oidHI3JYMPyOm0VLss2HIH5ECordzfVeVorCjSlYuHgh0tYUOjLS9wxDzOQYxIwKQ0AntRc1EPnb27BhA9555x11HbBz505ji0OvXr3UsNFLLrlEjZsPCAholLwQf/zxB7744gs15/pnn32mpm+Wedi//vprYw+H4OBgdSPiuuuuU+uWprbXdbx+Nsf6MWe1+nEF73KC8/b2VktN8cNjjvVjrr6Ow+C9ZiQRkLS8SzZfeUxU2Y033qjmXpYp5CRJFDmCA7nQllZ0aSG/9NJL3Y47dyaLk0BB1nJeImsp25uL9GULkLAoFYUq6rYhYFQUYkdHI2JwAHzU+Hd3wXsZ7NsykfZyMpIWZ6JIlfkhbEKsHrRHIfRCH9T8yorqg7TKSyI3meN8y5YtqifR0aMVJ+hv27atuj6Sv1OZW/7ss8+Gr68vunTpojLdS+t3hw4dVEv+qaeeavyv40nW90OHDqlrETlP/PTTT+om+YEDB/Dtt99i//79KjiXGSDcjc+XnyVJ+WRudgnaJXu8XNO0ZAzeK7LacQTrx5xHg3fpzieZamtzx5EfHnOsH3P1dRwG79X33XffqYsTuUipfKefyEmSQ0mLjwTx69atM0pbLmk1l6naypPgXFrMqAk7WorCDZVaz2fmQJsh08UdH7zbl0fANzJd9nK12kcPDzbPUE+WIMNS5Obbp59+is8//xw7duxQid7kGsl5TXEibdq0UZnwW7VqpY4nQbu0pMtSHdLlX4YlSdI5afmXHgDSI6Cu12jNEYP3iqx2HMH6MeeJ+mHwboIfHnNWrx8G79U3c+ZMlbWare50IjKOVLqgSpbjfv36GaXNj7TQyUW9tKZLq7q7c4i0sMs2CdjLL9SM/FCIzOULsbAsChlqrnc3wfvK8YjdEYpJY8MRfA4j9uZCWsZlWjoZd15cXKxucv/4449qZoeff/4Zv/76Kw4fPoyysjLVev/XX3+p/ydDzySYl56sp512mmqhlwBdWuw7deqkWvCdN8ulZV9a2Kl6GLxXZLXjCNaPOQbvJvjhMcfgncqTv3u5OJEufVJnRFVZuXIlRo4ciXvuuQcvvfSSUdp8SLAuY0mlm2t5cg6Rcwm1dCcY805E9YbBe0VWO45g/ZjzRP0w2zxRC5eRkYGvvvpKzZXLwJ1ORDIdS4tRamqq6h7a1EiLuiTce/LJJ/Hqq68apcfIjSzp+ipzJktvlFWrVqkxqQzciYiIqLF5HTp0SJNxOnI3S+4oyNidmnJ2FZLj1IWnjiOkq1PXrl2NZ7VjtffF+jFX+TjymZaM6Wx5NxcdHY2lS5eqRGTXX3+9UUpUtYceegjPP/+8aoW/9dZbjVJrk4Rx0sOsfIu6TMnmLoAnIiLrcba8DxgwAOvXrzdKT4zXz+ZYP+asVj+tvLy8IIv8Mcj4HOfzpr4Id+VcHEtLqR86sczMTDXmjoE7VZdzLmErJa2T7u6SPK6qYFyCdskQffPNN6sWdbmhJzcgiIio6XF3zdcQS2P+7KawsH7MF4/UD+d5rxrHXJizev1wzPuJ5eXl4bLLLsNtt92GN9980yglOjH525KbPtKlvLG8/fbbeOGFF1TSuPKk2zsRETUvHPNekdWOI1g/5jjmnYjqROa6FVdffbVaE1WXzDks48clX0J9kq7uEqDLz3JHAndJtlq+RZ2IiIioOXIF79KlUKa7IKKWwzkf9eWXX67WRNUlPTaEdFf3tLFjxyIoKEh1D5MWlgcffPC41nUh26SVXQJ7aYWXqdukjIiIiKg5cgXvMp+t3W43nhFRS7Bjxw61DgwMVGui6nJ+ZpyfoZqQgH/atGm47rrrVMBdmWR4l30uvfRSlVTuueeecxuUy9zJRERERC0Fu80TtWDSYvm3v/1NjSEjqgl/f3+1rk63eenZdf/996txXjJmTFrV586di6ysLFcLfnnSyi4t6hLASwI6aXmXKdyIiIiIWjIG70Qt2IEDB9ClSxfjGVH12Ww2tZbPkJME6TJGXchaxqD3798fHTt2xIIFC7Bnzx788ccfaruTu+C9d+/exiMiIiIicnJlm5cLLUn6U5vWDWY7NMf6MVdfx2G2eXOHDx/GqaeeivPPP18FWUQ18euvv+Lee+/FOeeco3ImbNmyBd9++63adtppp+G3335Tj6si49llrtP6TnhHRETNA7PNV2S14wjWjzlP1I8reP/555/Rpk0bNdd7TfHDY471Y66+jsPg3dzSpUsRHR1tPCNqeMOHD0d6errxjIiIqGoM3iuy2nEE68ecR4P3uuCHxxzrx1x9HYfBe9XeeecdDB48WD328/NDTEyMekxUXdJzY8aMGWjbtq16XBuzZs1CfHy88YyIiKhqDN4rstpxBOvHHIN3E/zwmGPw3nJ98sknqk5KSkpw0kkn4eKLL66X6b6oefv666/VUCtpPX/ooYcwfvx4fPnll8bW6snMzMSQIUOMZ0RERFVj8F6R1Y4jWD/mPFE/TFhH1ILIdJC33XabCtwl27ckqyufcIyoupxTi3bu3Fklpfviiy9US3pNSLI6ySw/cOBAdQPgtdde440kIiIioiq4gnfJElxWVmY8I6Lm5q+//lKBu8zLPXXqVEyZMkW1nEoQdujQIWMvC/uhEJmvTMH460Pg7+WlEp55+QZi0MhJWLiuEKVHjf0sLHeW43UnbjYKmjCZZlDIZ8hJusDLkIzyZe5IHchwDZmmUIJ3WZ5//nncddddaho52U5EREREFbmC9+3bt7taUoio+ZHA/f3338eYMWMwZ84cVXbBBReodUFBgVpbUyny/xkB/86BGDouCdkHfRE2Yx7mzZmHuOEBOJy/EJPCAtGx/yRkOuJJagCFhYVq7fwMOQ0aNAgfffQRhg4dapQcT+ZwP+uss9TjJ554QvUEkS6QMuvBzTffrBZ3ZL73J598Ev/5z39cNw+IiIiIWgp2mydqASQh3VtvvaXGF7/66qtG6bH5tPPy8tTaesqQOysMfSan4/DAOGTsO4w9uWlYMDMWsVNjkbAoDTk7S1DwciRsmxdi6KhE5LMDUYNwfmYuvfRStS5PhmOsXbsW06ZNM0qO9+GHH+Kiiy7Cs88+q1raZQyjBPJvv/22WtyRoF32ueWWW1TLvcwfL8+JiIiIWgIG70TNnLRULlq0CH369MG///1vo9ThyiuvVOsPPvhAra2mbHMSYh7LBfolIH11AsLOcTeVpQ8C7k5G+owgYHM84pcXGeVUnyT4ltbznj17GiXHe+aZZ/D666/jlFNOMUqOueaaa1SPj9jYWHTq1An33Xcftm7damx1Lz8/v0ILvbTg+/j4GFsrYgs9ERERNTcM3omascWLF6uWyXPOOQcrVqzA6aefbmxx6Nevn2q9zMrKMkqspBSZL8cjHzbEzoxFcDuj2C1vBN8Zg/B+0Qg4uRSVG9/tGxdi0kjnWHlfBIaOR+KqQv0nuFez/UtRuCoR44P9VQuy13khGD83G/ajuUiU5yNTceIBSaUoWqf/zL8Hwlf9TH+EjJyC1M+qeoWNKycnBz/++KNKNHcio0ePVt3oZSx7eTK/uwTWMt2ctNS/9NJL6Nu3L0JDQ5GSkmLsVZEE6uVb6CVXi3Slr0zG0FduoZes+AzkiYiIqClzBe/SfdZmsxnPiKipS0tLw8SJE9XUFtLiXtXUFGFhYfj222/VeHhL2Z+JlFf0tW0SIga7a3GvpGc00nKXYN7oID2UdypF9vQQ+IZOwsL8jsZY+SgEfZ+B+PBABNyZiort9DXdvwjp4/ogMDweGb8GI1bG4Q/uiOxpgxA0bgGqNxihCJmTw+Afpv/MQj9EyM+cEYaO+UmI6hWAKAv2JFizZo1aV3eaNwncN2/ejDvuuEM9P++883DGGWeoxHYzZ87E/v37sWzZMnUzQFrWZT+54SQt7F999ZX6PzUh32erVq1S/19a+KWFXoJ9d630Eui/99576kYAERERkZV57dy5U6trZl+5MBJWOY44fPgw2rZtazyrHau9L9aPucrH+e2339R43JY4z/umTZtUIPTnn3+qIEZaIKsiY+FHjBiBSZMm4Z///KdRagEfxMOrfyIwIQMli8LgvnO0OftKPfAemQqMTkHO0kj4nWxsUEF6GAY9lYvgZ/OQ85CjVbjG+y+PgG9kOmyy/+v6/qpUtzcVUcFRSJUm9xEpKF4RCbk1KtnmQx4DEnI1xPVTe5Y7xhJkL4pGgLOHwa+5SBwcgvjNwZiXn4NYR3oCS5Dgu6ioCD///DNOO+00o7R6pCu9dH9/8803jZKKtmzZgqVLlyI5ORlHjzqmELj99tsRHR2N6667Tj2vDWl17969u/HsGMlwL1PUCdkugb90yZdyIiKyDuc87zLkr6oeWu7w+tkc68ec1eoHR44c0V9T3cgxrHQcsWvXLuNR7VntfXnqOKIl1M8vv/wif22aHrwbJS3Djh07NF9fX/XeX3rpJaPUXOfOnTUfHx/tjz/+MEoaX3FquHoPmJljlNRUnjavt/7/Ea6l7DOKyjucpcXZZHuslnVYCmq6/x5tyWB5Hq2lfa/2qMD1+kekaMVGWc5M2R+aHrwbnD8zTFuy0ygqL3+eFqTvb3s0S1M/0gLWrl2r3sPo0aONkpqTY5xISUmJlpSUpAUGBjrqUV/69OmjLVy4UNO//Iy96m7VqlXaAw88oF1zzTWun6MH78bWit59913jERERNbTaXtd56jpTML4wx/ox54n64Zh3omZEptySKeGKi4sxa9Ys3HPPPcYWc+PGjVPdhmXccVPhnDP9+CURubKDvQh52/T18AgEnyMFlXiHYujd8iAFuZ/pqxrvn4/sDfp6RChCOkl5RbbgCIQbj6u0Kw+Z6mdGIdRd3rfeIQjTV/ZXcuGYmK3x/etf/1LrurRMm00j5yRd3B9++GF8/vnnWL16teo9IhnuZeaEzp07q7Hun3zyibF37clxZY556T6vfyeqXgHy3B3pxSOfMRkGMHbsWLzwwgscR09EREQNxhW8y4V7WRnnWCJqyiRw3759O+6//37Ex8cbpSd27733qvWCBQvU2gp8Ohmd0A8ePi4BnfD2CUXo4PJL8LFu60IPxlXAe7FfxfJybF1D9X/tKCnRf0JN999fiGwp7OWnusQfp7sfAoyHVfrB7jhGaTZS5yYh6bglA0XSXd6eh8L9smPjksRzksG9f//+KrFcQxk2bJga/rFjxw41/VybNm1U4CzDYiRngwz98BTpNu+ue70E6Q888ID6mdu2bVNTLsoNBHfBO8fPExERUX1wBe9ywW+3nzgnMhFZkyT52rBhgwrg58+fb5RWj2Tklqm6JDiSDPVW4B3Qx9FyvSHfbatz0P1ZyFpffklCtLGtprzbViMhXjlq/6MSxnvIxmTET5uCKcctiUiVlnmLmDNnjlq7y/DeEC644AI1Zv7777/HkiVLEBwcjHXr1qmcDTJl3ezZs3HgwAFjb8+SgF5a5CVwlxZ6yaPx3HPPqWC/MkmOJy30knfioYceUmPq5f8RERER1QW7zRM1A9K9WJK3SLBQVSKwE5EWTZGQkGCNXjjnBCNMkplvS0Hm5lq8HpvR8v1ZUaUM8U5lKNop7d42qNi9pvuf4+e4ufBpkfsgfq/Rkm+mkw2q/XpGjgoIq17SEOmuK38DysjIUNO7SYt7ePgJBwTUKwmMJYGdTFknsySMGTMGu3fvRlxcnJo1Rbr0S9LG+iRd6OUmRlXzzEsLvXTFl4BfXo/sT0RERFQXDN6Jmrinn35atQBedNFFakq42pLW98cee0xNGydBUOPzQ9RjCQhCPuIfSkLur0ZxdenBeB9pFF2Vhlx3Xc7LcpC9TB5EIEjGm9d0/3MCECL7r8xGzg9SXlFpfjbSjcdV6hmIUOlzvyZHf5fWJvOxC/mMWIl04Zcu7NJzLDExEf7+/qqle8CAAbjqqqtU1vqGJsF65RZ6mXfeHQnq2UJPRERE1eLMnidZdIuKitTjmmqu2fys9r48dRzBbPPNgx6YqPco2eI/++wzo7RunNm9s7KyjJLGdFjLmRmsXo9tYKyW8mmJUV7R4e/ztJSHQjU9Dtb3TdCc+emLV0SqMtvoFG1PhUT6JVrWo47jBs/Oc2Vyr/H+Rkb5oKkZ+h7lFKVokSozvb6YZpvXtD0vhzmOOzOn4jF0JZsStGDYtIARS7QCo6wx6IG7eo0xMTFGibWtXLlSu/HGGx31ry+dOnXSpk2bpn3xxRfGHtbRrVs31+t0Lo8//rixlYis5Mcff9RkiuWtW7dq2dnZauaMtLQ07c0339RSUlK01NRU7d///reaxWLdunXa+++/r23btk3bu3evdvDgQeMoVFvMNl+R1Y4jWD/mPFE/XvJiWrdurebrlSRA3t41G/spfv/9d7WW49SFp44jpAtljx49jGe1Y7X3xfoxV/k4zvlApWWrOc7zrl80qEReQr+IUK13npCZmamygUtLvrQCnnyya7LzRlKGwuXxmPRwErLtgO3iMEQMD4Xf6fqm7wuRuSkb2ZsdHd31AB8Jc+IRfbmzK/Ox+dnRMwwxo+T/FSPv9RSkfmY/fm71Gu9fhNQ7QxC1TN92cSSi7uwD3+/zkLwsFSXdg+G7ORf55eapdzfPuxwjfdwgRLxSVO69laBoUzrS1hTCbgtFwqoMff+an5s9ISsrS82vLi3an376KU499VRji/VJNnppeZd543/91dF1Q7LLS5f7m266ST23AklwJ39r0s1e1tIdv3I3eymX1nkpl3H20i3fXWI9Iqq9b775RuV+0QN0dZ0kCSm//vpr1SNNZnH5888/jT1rR86fvr6+OOecc3DuueeqHm+Sr+P8889HQECAumahqtX2uo7Xz+ZYP+asVj+u4L0u+OExx/oxV1/Hac7B+5YtW1SwfujQITXGXZLUedIjjzyikpPJdFgS+FhCmR25q1KQsioT2XrAXqgGmvsheHAQ+gyOQPiwMIRe6H78sX3jQiQsTkHmylw9VLYhYOBQRN0fi5jhASqorqxm+5ci/5UExD+r7y8BvgTg98QjYVgRov2ikD4zB9qMYLWn++BdlKJw1UIk/TMFGRv1gF0vsV0ciqEjoxF9dySC3aazr38SVPbt21ddyMrNoupM8WZFksNBgnhZZCo4ERgYqIJ4WTp06KDKrEyGBsjfY3ky3r6oqKjKcfdEVDX525Hv0o8//lidFyRx8w8/uBkDpevSpYvKpyHTVJ5xxhnqb+7000/Haaedphq+TjnlFLRq5RiJKgG+XI/IeUduGsq1iEzj+uOPP+K7775TNwGkwcwduUkqN+b69OmDK664AldeeSX/vsth8F6R1Y4jWD/mGLyb4IfHHIP3pktaAiRwl7VklZdp4erDoEGDVIv+3LlzMWXKFKOUqm1zInyD4xH48h5k3V3V5HPWNnz4cJU5/fHHH69yzHZTIzMySBDvzA8hPUucQbxcLFuZ/M1LC7yzlV6ey1KZBPpfffWVOvdJIMCLfyLH3498p8nfjiS6lL+R8qQlXHqcSQu4tITLNZK0jEu5BOee9Msvv6ifLzcQdu3ahS+++AIFBQX47LPPjptqUgJ5yeEhf8/SC0puGLRUDN4rstpxBOvHnCfqxzXmvS7kGFY6juCYC3MtoX6a45j33377Tevbt696X/Hx8UZp/dAvdLSzzjpL/SwZw0eVFWspI2xawMAELavyUMY/9mgpo2163QVr8/KNsibmgQceUL/7ESNGGCXNi3y+ZSz/2Wefrd6nLAMHDtTeeOMNY4+m65prrnG9J1m6d++ufp9ELU1OTo42ffp0rXfv3hX+Jjp27KgNHTpUmzlzphqb/t133xn/o/HJmHoZQ//www9rISEhFV63LNdff732wgsvaHv27DH+R8vBMe8VWe04gvVjzhP14wreS0pKtMOHnWmYaqa5Vo7V3penjiMYvDdNN910k3pP99xzj1FSvyQhj/OCYcOGDUYpOTkT3KFnsBY9dZ42b46+TI3WgntKndm0sGePJbdrSmbNmqV+5/369dPKysqM0uZr2bJlKnB3ftYloH/sscdUgN8USfJZSZglie+cgXxVSfCeeOIJlbBWrgGImoO8vDztH//4h9azZ0/X37QsgwcP1p555hlty5Ytxp5Ng1ybyw2GqVOnHncTon///iqQt9vtxt7NG4P3iqx2HMH6MefR4J3Z5o9ntfflqeMIBu9Nz7hx49T7ueWWW4yShiEtAPJz27VrpzLnUkXFuSlawthQLcCZXd4WoIWOTdBScp055puWuXPnqvdx3nnnaV999ZVR2jJ89NFH2r333qudfPLJjt+lvtx+++3N4saVu+BcvvOd71MWaaG/6667an0tQNRYJMBdvHixFhzsmBVElrZt22qjRo3Sli9f3qwyvcv12/PPP6+FhoZW+PuVXlKS/b45Y/BekdWOI1g/5jxRPwzeTVjtfXnqOKIl1E9zCt6lFUHei3Sh80Rd1ZRzSrrTTz/dIlPIUX14+umn1e+5a9euHpt6sCmSQDcpKck1baIsffr00RYuXFjrHmpWJO/zlVdeUV3qy3e1z88/fqyHXB/IdQKRlXz55Zeqe7ncXHZ+fqWHmgx/+f333429mi+5wTpnzhwtKCjI9f4vuugi1RrfHN8/g/eKrHYcwfoxx+DdBD885hi8Nx3PPvuseh/SBXDfvn1GacNbsmSJeh3SKildcql5iYuLU79faX395JNPjFJavXq16u0idSOLBAkS7G7fvt3Yo3lxF7gL6XbvrAPpuist9NL6R9QYtm3bpj6Dzs+kc6hLSxwH7vTee+9VqJMzzzxTjemXa6HmgsF7RVY7jmD9mPNE/TjmtSAiS0pNTcXDDz+ssqtKdmyZG7axSDbulJQUHD16VGUhX7x4sbGFmrq7774biYmJ6NWrF/7v//5Prclh2LBhWLVqlZr7edq0aWpaqBdeeEFlcQ8LC8Nbb71l7Nk8yBzy7sic8mPGjFHvW7LdS0Z7qRd33GXAJ/IEmbZSvovkcyqfQcnELrNH7N+/H08++aTKDt9SSUb6V155RU1FN2PGDOjX+HjsscfQtWtXPPXUU+o5ETV9XocOHdJkbkqZfkFS4MuFSU399ddfau2c47K2PHUcsW/fPnXCqgurvS/Wj7nKx5HPtMzJem0TnSrunXfeweDBg9XjdevW4cYbb1SPG5sEd6NGjVLz1soUcjKVHDVN33zzDe666y71WZOpAd9880106tTJ2EruyAXw0qVLVcCQm5urymTal3HjxqmgQuaDbgneffddtZbza2UdO3ZU013JNgmyZLnmmmvUDQCi2pCpmmS6SglCRd++fREbG4uRI0eq53S8I0eO4Nlnn0VSUpKaY17+/mTaTznnN1XOqeLkRsX69euN0hPj9bM51o85q9WPl4zfa46V8/XXX6u5OeuiOX94WkL9yEleApGmGLx/8skn6nVLgPzaa6/hzjvvNLZYw+eff65a4f73v/9hyJAhePnllxu1VwDVXGZmJu655x4VwEvQuWTJEmMLVdemTZtUEC9/o07ydyH12b9/f6Ok5ZHgQIL78vNoS4tgUw4aqPFID7RHH31UXbf07NkTcXFx/CzVwG+//YbZs2erRdxwww3qJkhQUJB63pSUD943bNhglJ4Yr5/NsX7MWa1+XGPe68JTYwE8dRzBMRfmOObduoqLi7ULL7xQvXbJ/G1VUtejR49Wr7Nz587aihUrjC1kdTK/ufzeZJk3b55RSrUl0zQlJiZq/v7+rnqV5JKSJ6Ilk4R4GzduVOPl3eXUkdwZUldyjpYp695++21muicX+buSbPHOvyn5jFDtyfzxMnuGsz4TEhKMLU0Hx7xXZLXjCNaPOU/UD4N3E1Z7X546jmDwbk1//vmnNmDAAPW6ZU7XpkCSVjkvBu677z5NhuJ4TG6C49gzc4yCKuxL0cLVa0jQTrDnCZRoefMTtLTGywt4jPM9jUjRPDXp3Mcff+z6fF1wwQWcOaAerFy5UrvxxhtdfxOdOnXSpk2bpn3xxRfGHuQkme67devmqivnQvTWW29pXbp0UZ+HIUOGaJ9++qmxhepKbrQ7/+4GDRrUpM5NDN4rstpxBOvHnCfqx9X+L+PTysrKjGdE1Bhuu+02vP/++6rr7Zw5c4xSa3vggQewZcsWhISE4MUXX0RgYKBKrtcU5T8VgD6T89Acz4QyXvTyyy9Xny9JUJefn4/Q0FBjK3nKrbfeqnJUbN++HZMnT1bfq/K3fMEFF6hEj2vXrjX2JOn6LMntZHiQDG2S8bhyPnFH9h04cKBKSvaf//yHSfGaMekWL39HBw4cUOO1ZYjPxRdfbGyluhoxYgQ+++wzjB07FllZWbjsssugB/TGViKyOlfwLhcadrvdeEZEDS0mJkZlrpYx5JJFtym54oor8OGHH6oLa7movv3229XFl4yNb0rKjja/c6BkBJfs8fK7kYRFK1euVDkK2rZta+xB9eGSSy5RWem///57LFiwQI0vffvtt1X2+osuukglkvr555+NvVs2Hx8fleNDbjA9//zzRmlFkuFextHLPrfccovKKv7ggw8aW6k5OHToECIiItTYbPn7kYSQMttK1exIHekFLy/HMmlNqVFelVKkj3PuH4HU/UZxfTtahPSHFyLfeGoF7dq1U4k3X3rpJfz666+q4SAhIcHYSkRWVveR90RUZxJYLVq0SE1701RbrYVMSyMtujKFVlpammotmTp1qmpZo4a1detWFeSEh4erVha5CJbpzuSmCjUcb29vdWMuLy9PZUeWi+SCggKVKVsSat53333qd0XmJHgvKipSN6OkhV6y17ub1k56EUoPBzmnvvfee+o5WZ/c9JUbOOnp6SqD/EcffYR+/foZW6tn4bocPTw38UM2Ml8xHjcYO9LH+SPiuVJL9uiSpKVyk+T8889X08tNmDDB2EJEVsXgnaiRyXzp0pok2dql69rpp59ubGma5II6IyMDb7zxhrogmDdvHrp166bu6jfK0JzSQqTPGo9BvXwdLS7nhSBi4kJkl29k35+KCH1byGPyJB1RXcu3zOQiUf7frFz9WPlInjgUgb6y3ReBf5+C1B2O91S2Ix2J40LgL/v6BmLotFQUuruStGdj4cSIY69HjhM6HomrCs0vPKtJejtId0iZSkm6F990000qOJTup7WZCpQ8R6Z+lOn4JFCRC2WZVk5avuR3JUMYUlJSjD3JHek5Ijek5HwprfDuMo5LkC89HGQfCQZl2jpppZdysia5mSV/G3KekulH5Qa23PSqviAEyX2cxZnIMTmJ2jekIBk22GxGQQOx+ohUuUkiM2fIsBQZ+hYZGWlsISIrYvBO1IikdXrixIlo3bq1umCR+aKbi6ioKHzxxRdqHnh5fxKsnH322apFrKFa4st2JCMqIBARj2WguFcU5s2Zh7jBHZG/eBIG+YYgcbNxVdXOD2H6tpgh8iQIkY/O0/cNg187tdXh02SMv6IP4jf5IOxh/Th3B6JkTRKiBkYjeXkiQgNikFIWgpg5cYgJKkPm3CgERiajyPjvomxzIkJ8B2GSHqjbhkxRr2fe1KHw2ZeM+PBAhD2VX+vWGWnZlWBGejvIsIsrr7xStVKuWbNGjXUn65CbWTNnzsT+/fuxbNkyddEsY77vuOMOdRNPWpbLT7NG1ScBu/T+kanpZPy8tNDLzRJ3rfRyA0CGNkgLPTUO6Q00dOhQ7Nq1C4mJier7oub8EBUZra8XIntrVWdQO7JXpQMjJmFSy53FsUp/+9vfkJ2drW6OLV++XA19IyKLcmbPKy0t1WTO99portn8rPa+PHUc0RLqx+rZ5t9//33tpJNOUq9Rpkxqzn777Tdt1qxZWseOHdX71YN5bfLkydpnn31m7FGFumSbP5ynJfSTsmAtYVOJUehwuHCJFmnTt9litIzvjUJdzkzZP1xLqZBtPkdLUMeGFqy/jvJHypsT5Hh9CNLisstv2aOljHCUz8s3irQ8bV5v+ZmRWkrl2bAO5mhxsg2xWpbzNFzNbPOZmZnazTffbLwOaJdddpmWkpJibKWm4qOPPtLuvfde7eSTT3b9LmVapw0bNhh7kKeV/7uRRQ/w1bR21DC+/fZb17SozzzzjFFaE8XGeVY/Z+enaXr4rmFqlub2StY4n4an5hz7P5VnFSkp0NJmRmuhF9scn4mewVr4hAValrsT8B/FWtb8GC28n59jX9i0gIHRWkJq3rHvCOf3V4XF+I5yvZ4CrSA1VgtV30cBWtijGcfO98VZ2oIJ4cdej/NnpBdU+B5yfUfJ99OmeVp4T9nXTwseu0QrqMVlfXh4uPp5Y8eONUqsg9nmK7LacQTrx5wn6sfV8t6hQ4cadlMiotqSFmkZ+/rnn3+qbrNyt7s5O/XUUxEfHw/9Yk21rJx11lmYP3++aiWWBF6SqM/UYyFGF/Mqlq5RSDd2dSrdkIz4zXr4PDMJsVf7GKUO3hdGI2F2GGBfiKRV5dvGzYRj0thglD9SUP8Ix4PBMYgeWH6LH4IHSyb3/GNdJrflILtjAPwmTkJkd6PMqZ0fAs+TB0Ww/6BKTP30008qsZe0Jkp+AekeLy2Okozu448/ZrfHJki6zkuXVUlwJ0McZNYG6WIv3YklG7TkxOCMMJ4lXeudLfSXXnqp6lpfVRb71157jS30HjZq1CjV8i49TaZNm2aU1lKnUISN1ddzM5Hj5s/EvilN/44IR0R/P6Okomr30lKKkDouCIMmp6HQL9zRg2pGBPy+z0B8ZB8ETMx0DIHqFKRvi0Ok6vQRhhjZb04QyvfaL5ofjdCHM2EbrW8bHQSfgAC1vVa9tDJjEdZ/IcoGx+mvJwwd/fzgV4vLeukReMMNN6i/Dcn8T0QWwzsbVbPa+/LUcQRb3huPHnhp+oWiem3SGt1Svf766645x2U5++yztSlTpmhbt2419tA5Wy56Bmuhg0OrXgYGaPoFj77vsZb3vNmO1oq4TUZBZUVGy/boNFdLh3nLu5s55E16BhSnOlovEnKNgvIOl2glxQVaTnaGljI/TosZEazpl5QVf7ablnc9SNf0C17HzzSWO+64Q9ODCmMPak5Wr16t3XLLLa7fdbt27TQ90NS2b99u7EGeVlRUuVuMppWUlFT4m5PvlAcffFDbuHGjsQfV1Pjx41Vd3nfffUZJbZRredfPmyXp0eqYsesrNzcb+41N00oq/R+lhr20Dq+PVT8n7OU9jgKXPdqSIX5a8ODYcj26nD+v0veHq7dYkP4dVfn11rCXlus7Clr465VfU+1Ib9xevXqpY7766qtGaeNjy3tFVjuOYP2Y82jLOxE1DGlxl6kZ77//ftUa3VKNHj1atWRJVmHJxi3T1UhyO5l2TlrBpFUs/8tix853JiFrfVbVy+vxCHHsaShF8T7JSBeOwHMcJcex2aDaYOwlOKwKTmCEn2P/uvghF0mRgfBt2xEdfQMREjoUUZOTkf1DR/gdPyTXwb4d0+67T41JvPnmm9V4RJlq7KmnnlI9GWTM9IABA4ydqTmRXimSt0BaJ6VlUhIOyhht+fuQHhcn7LFCNSZJ8dx57rnnMGbMGFX3Mla+qintJLs9k+OZkx4mS5YsUbkeJGGrp/j0D4OMfE/akFOxVXp/NtJWAtHDQiv0nHKqaS+t0h8ca99OHdX6GD9EZ+5Bzvp5COtkFJ1I7yhEXF2pebzWvbRi9PdY528pRXrjSm+Tk08+WWWkl6SCRGQNruBdvnDYJY+ofklCqg0bNqgAXrqNk6O7sMyDLUnsJDCVaZ4++eQTldiuz5iFjp0yn0NmZiZ+//13x3NPatdA853/kIlJvUIwZXkZQqYuQVp2Hvbo7/nwH8UoyE5GtLogA0oOfKsumiInLcQaKdg0B8teegmtWrVSNznkhodM/faPf/wDvr6+6v9Q83bBBRfgmWeeUV3qJegJDg7GunXrMGLECPTs2VPNi33gwAFjb/I0mYde5pSXRJASmGuaphIMukuCJ/vInP4ynEeC04ceekj9PZPDl19+icmTJ+O0005TQ8Y8qoqu844u89EI6+8udNfD4M/S1DpsYDDc9TL3GxiFcH2dvSkfckvY1isUwfo6ObwPIqYlI31zIUpre/kcrAfpxkOX3jHIyC7Anhn6TykrRam9ELkbM5H6z3hMGhmO+JXGfpX19oOv+7dYK/I5lpsr8r0rn38isgZX8C4tgXZ7+bmTiMiTZJ5tmQpKLuhkLCtVJBe7kuFW5vmVQF4ugiMGXuTYuHmlykgsY+evu+46zJo1S108HzlyxLH9OD7w7SojB9NRoKZ7c2N/EfJl3c4bDRG+F61KwkL9FBu6KANpc6IRPjAIfnpQUPqDHWlpGVimGuuyMOnys1XW+OX/ycEpUtRjMJb/97/q/Cw3OdjK3nLJ30h0dDRycnLw/vvvq5bg3bt3q3GpNptNfW5kyieqf5JjQoL6yiSglx4yMqOAs4VexnS70xLnoJebjn/88YfqyXDeecYdS4/xQegw1faOzE3OaNrIMj82DKFuW8Nr0Uvr4hikrIhGgK0I6XPHIyI4EB3bytShk5C0PBf2o7JTNfl2dNsboFa9tM7zhadv544fP17lUJFGB/n+IaLGx27zRA3g6aefVhcr0t1ZpoQjc3JRLIHJW7NHOQruSFJ3/gMCApCVlYXHHntMzYstSTZlSrSYuFfhSDP1LY7qF4bC72JHMrnMjblup18r2pSObH0dFORXIYFQfbHb5acB3f+y49lnn1W9MKRFVVrPb711PP67U7b+jIDga9Wc+FvWzsKNUtTnLlx7ww3yiMilf//+6gaX3NSRKbb8/f1VC6/c3LnqqquQnJxs7EkNSYJ6mWdeEt/JTUi5yShDgNyRG7kyD72spaeRJJ6sKmFecyA3ZmUYyJAhQ3D33XcbpZ51XNf5XRlIMekyXyPlemn5jViCgqISFGQuQdyEMD2Qt6NwzUJMiQyBb/9E5P5q7Fgb1eyl1VDk+kW+a+V79+effzZKiaixMHgnqmdLly7Fo48+is6dO6vAXdZUQ+cHq5sfn376Kfbt24fU1FQ1P75069uyZQsWvb4BeWrHRRjQurXK1D1uSQEGnAXkPzYaMfNXqxZKafERklk4fnomYItE/IggVXZMEYqrkfG9Kr/88ovq1r4h39GTaW3S/bj++usR8byjQ+bSSaGIjY1VvTC++eYbhA4Mxi29nBPK34z4FRtVS+oVl/obZURV69KlC6ZPn64+3zLbwI033qha5qXFTM41jzzyiOqqTA1PbkJKMC89ItyR1nnpgi8t9BLgy6wjckOmuZIgUFTVE8EjnF3nl2WrrvNykzYTMQivMBtIeXXopeXtg4Ah0UhYlIGCYg0lhRlIGKYfa3M8ElZWdxaT41XVS8v7ZGOHBta1a1eVn0duRs2ZM8coJaLGwuCdqB6tXbtWdXMVErhLyzvVzTnnnKOmGFq4cCHy8vJUorv33pqBS9TWPrjwsstQVFSEVas34v1vpWw3lj5wsxob3FoP7Nud2gYdAsYj1d4BgReW4Z3ZE1XwIwng3tklR8nHrLFDEBV5N558KRWpqeuherTvfQ+vv/iiajWXbvtTp07F3U+9LVv0iHwiLrzwQnWxLol+evXqhTvn5qhNm99aoLocHvVqjS6tVRE69QrF+IcexpMTb0ZxYS42d3oAC2bI1HL/QVFVF5BEJ3DrrbeqsfAyDE7GFUseG7nYlh4ekktCzkdkHdJCL13n1flq1SoV1LqbNlSCez8/P/U7lBZ6yXvR1LrcS6v71q1bERUVpXpL1R+j67w9Gdm5hchemQlMCEOISbN7zXpplSH7sUEY1Gsoknc5tjv5XBiGuGmO7/vM/bUfhurspRUaFKDWFfyQo78n43EDkpuAkjRVhoEcPHjQKCWixuB16NAhTRIhyR+jXNhKNtua+uuvv9RajlMXnjqOkNY5uVtYF1Z7X6wfc5WPI59paXmSlg/putjQpEVYukPqf2NqjLskqaMa2pwIr+B4YGYONEneU5X9qYhQc70nIEeLU8mEpCVy586d2P3Zh1j/9n+w+dOd+O4X/dLs5Nbw+usoNOPz4imSgEm6wJ999tk499xzceavW/H8qh0Yv/h9JAw/X7WQQr8oS5oej4Wv5ELaZfz6RSN6sr6MCIbPxiloe30SQl/eg6y7/Y69pxEpKF4R2SBd+6l5keBdus/Lkp+v2g5VrxS5oSiL3Ggi65MgX1rvK3dZlqC/quz4ViM9Qv7v//4Pubm56Nevn1FaV3akjvRF1MpwpOxLQ6RzzPoP6RjfOQIZoyMRsiwVvqtLsGCYM3p383/K8pE4sA/iNwcjYVMm4splnJdeWtEDxyMVkUjbmoJwff/SVePRMTwZQTOykD2zfHf8MuQ+FoKQWfmIcf1M58+LQUbJAoQ5d3ae3918txX9axD878nWj5+DnJnlkugdlfnlQxC1zDFG/9h7zkWiVwji6/m7Qm4cSQ8R6QXXWAns5Lquffv2anjQ+vXrjdIT4/WzOdaPOavVj9fhw4dV8F4XVqycr7/+Wl1A10Vz/vC0hPqRk3ynTp0aJXiXcYsSuMtassrLtHBkLT/++KNapCugXBTL5+W3335TAY9k15Uu9tKlVchn6pRTTlE3N9u2bYt27drh9NNPVy3tMmZVPmfynMiqpPeHBPHOnBsyBZQziJfpGcn65PtEst1LS7w8lqC+MmkZlZZ5SZwn330ytZ27xHoNSW6inn/++bj66qs9nFCxiuAdpUgf1xERr8jjSkFzFf/HFaTbbQgYFYXoIF+UFGUjdXEmihCMuPWZSBjsPIgeRN/pCKJtF0ci6s4+0PdG0cZULFxXBNvoFOS8HunKIp87yxchj9kRPDYOEQEhCJsahgCT4B370xF1RYT+WgC/ITGIHOiHjt/nIXlZKkoC4hB/dS4mzcpGQq6GOHUfpGGC9/3796ug47LLLsPHH39slDas8sG7nNOqi9fP5lg/5qxWP5KtWeZ7rxNPTV7vqeMIT0yCb7X35anjiJZQP7/88otEXpp+AWOUNAw9ANT69u2rfnZ8fLxRSkTU+PSgT5sxY4Z29tlnq3OULAMHDtTeeOMNYw9qyq655hrX79W5jBkzxtjaOObMmaNex/z5840STynWUkbIewzXUvYZRYaS9GjH+5+apR02yhyq/j9aSYGWNjNaC73Y5vi/PYO18AkLtKxiY3t5fxRrWfNjtPB+fo59YdMCBkZrCal5Womxi8v3Odq8UQGaHlQ7fm6RXrYvRQuX5zNzHPtUVpylzRsbrPmp/wPNr58cO0cr/kPTDq+PVWWhL+8xds7REmS/ESn6u6tfYWFh6md/+umnRknDqu11naeuMwXjC3OsH3OeqB8veTHSXb4unHMvW+U4QrrM9ujRw3hWO1Z7X6wfc5WP47xD29At78OGDVNjS++55x7Pz2NLROQhesCuEmo6z48y5ENa4seNG6eSqVHTJK3z5Rf5DnSX8X7s2LGqhV4WPeg3Sj1v0KBByM7OblLd/Mm9RYsWISYmBklJSWr624ZW2+s6Xj+bY/2Ys1r9uIJ36Q4jByyvcncrSZAiiXDKk31k7mUhx6lqn4Y8juzjrBwrvB7Wj0NDH0fG1oWFhTVo8C4XvnIxLEmHJAEREZHVSX4OOW9Jt/qjRx2TVN9+++3qfHbdddep59S8SFAvs3WUJ0H8K6+8otaeIt1NZZoxSRhaUFBglFJTtWPHDjVla2Nd4ziDd/mMyhCRhr7OlH0YX7B+anscT9WPK3iXMVLyH8r/J0mwJCddJxkLeuDAAeOZg+zjHAMgx6lqn4Y8juzjrBwrvB7Wj0NDH2fPnj0qu3tDBe8yHZxMhRMSEqJ+nrwOIqKmQi4UnEG8M9Dq06ePqzW+/HmYmj4ZO1++hV4uEt21jst+X331lbporGlgLzOCyBjpO++8E6+99ppRSk2Z5HiRYEbG7jY0Z/AuSQ8lEXBDX2fKPowvWD+1PY6n6qdC8C7d5GrTpYndNsyxfszV13Eastu83AF+6KGHVOuC/CyZzoyIqKlas2aNCuSdSdEkSaMziL/kEsfEjNQySGbxF154wXgG9Z0q3ezddcWvbPny5YiMjFQ3tmW6MWr6+vfvjw8++AC//PJLgydqZbf5iqx2HMH6MeeJ+nHcSiCiWktNTVWBu3yhSCZnBu5E1NRJ7g7pFivdZKdNm6ZmWpAATlpfZTjSW2+9ZexJzZ1MUyfTg918882qkUda4mVxx9ma7yRDMkWdsyuTZTh/l87fLRE1LAbvRHXwzjvvICoqSj2WwF26mBIRNRcXXHABnnnmGXz//fdYsmQJgoODsW7dOowYMUL1NJo9e/Zx3fqoeZGu8tL6Lr0wZIo6mV7z1VdfNbZWNHz4cDWWXqbQlOlSpQeHOPPMM9Wamr4zzjhDreVzQEQNzxW8y8nZZquv2SGJmp9PPvkEI0eOVI9lLN+NN96oHhMRNTdeXl6q23xOTg7ef/99jBkzRnX/i4uLU9cO0jrr2Tm8yaokN1JVQywfeOAB1ULfoUMH1Qrv/ExIzw1qHpy/S2dXYiJqWK7gXU605QfJE1HV7HY7brvtNnXnee7cuSoZDxFRSyBjXqXlVc6DiYmJ8Pf3VzcwBwwYgKuuukolvKOWScbBl2+hl/HugoFe8+H8XZ5yyilqTUQNi93miWpIpr6RwF3Ggk6dOhVTpkwxthARtRyS9Xb69OmqBX7lypWq95G0zI8fPx6dO3dWCcq+/PJLY29qaaSF3pnckF2smw/n77L87FRE1HAYvBPVkATuzm6jc+bMMUqJiFquW2+9VY2Fl+nGJk+erKa4kfOjjJmXcdBr16419qSW5Oyzz1brxphWjOrHvn371Pqss85SayJqWK7gXeZ3lS9bIqpaTEyMyrI8ZMiQKhP2EBG1VNLSKlnpJcHdggULVPIy6UYt2esvuugiPPvss/j555+Nvam5O++889RaeqpZ2q/ZmOLrBS+vECRurv21sH15hMoPkbjZKHDam44pi/ONJ03bF198AV9fX5WUkIganit4l7vlMn6NiNx78sknsWjRIpVRXjLLExGRe5JDR2525uXlYf369arHUkFBAWJjY9GpUyfcd9992Lp1q7E3NVeSDFl8/PHHam1VRSuTkGS3ITI1BXH9PJz/yZ6OKL8IJP3Q9BvI9uzZo2IFuSlHRI2D3eaJqmHx4sUqEY/M4b5ixQqcfvrpxhYiIjIzePBgvPnmmyqJ2YwZM9RY+Zdeegl9+/ZFaGgoUlJSjD2puZHM5FdffbVqICouLjZKLaYsG8nTMxE8Mx3Jo/yMwtqxjUqDpmmI62cUiKNlaC79Wjdu3KjW8jslosbB4J3oBNLS0jBx4kS0bt1atbj36NHD2EJERNXVrVs3zJw5E/v378eyZcvUPOASDNxxxx3qxujjjz+Or776ytibmosbbrhBrS2b98A7FAnFGnJmBINzLpnLyMhQ6+uvv16tiajhMXgnMiFz1Ep3TyGBe0hIiHpMRES1JwF7dnY2PvroI9x77704cOCACuxl/vBRo0bhnXfeMfakpk7mfRcyI4Gl2HOROms8Qs6Tse5e8O01COPnZsN+1NiuFCF1pGN7xLIio8ypFJkTffVtvoha7thWecx77iz9/3aNQro8eSxEbfOalau2Odk3LsSkkSHwl236sQJDxyNxVaF+dGv58ccfsWrVKgQGBuKyyy4zSomooXkdOnRIa9WqFQ4ePKhaFqWLU03J1FlCjlMXnjqOkGyYXbt2NZ7VjtXeF+vHXOXjyGdapiu69tprXV29akKSskjLkHT1ky6e99xzj7GFiIg8SZLmLl26VM0RL2PjheQXiY6Oxrhx49QYemq6rrnmGjVLi3Sfd04f15jKtiUhYsgUZNptCBgVheggXxTnJyNleSHs/RKQsyEOwe2MnfemIsJPD8BtkUjbmoLwcxzF9pVRCBqZCoxOQc7rkZAO9xK8+0amIyHX0XW+aE0S0nPzkPJUKvKHxGDeQH2vC8MRO0z2LkX29DAMekoP5nuGIWZUKPxOL0be6ylI/cwOW7njWsHcuXMxbdo0JCYmqikiG4Nc17Vv3x4DBgxQuTSqi9fP5lg/5qxWP16HDx9WwXtdWLFyZFqSc88913hWO835w9MS6kdO8pIYqTbBu8xjKoG7XGjMmjUL8fHxxhYiIqpPa9asUYG8ZKkX7dq1cwXxVgj8qOZkmMSdd96pboLLzfBGVZaLxOAQxG8LRtz6TCQMPjZfedHyKIRE6gH5hAwULgqDc0vRsgj435kOm7N8fzqirohAKioF9JWCd2W/HvxL6/vMHGgzgo3CSsH/Uj1IP9nYUC6oD342DzkPWSM5nL+/P4qKilTCOslb0RjKB+8bNmwwSk+M18/mWD/mrFY/OHLkiFZXcgwrHUfs2rXLeFR7VntfnjqOaAn188svv2j6R1zTg3ejpPoGDx6s/u/9999vlBARUUPasWOHNm3aNO3MM89U52NZhgwZoq1cudLYo/GU7MzQ5o2ap+UZz2umWEubGqstyS02nrcMgYGB6nf42WefGSWNoyQ9Wr0O26NZ2mGj7JgSLW2sfNbCtCU7jSJlj5YyQsptWuz6Ai1ttE09jlldYmx3KE4NV8fWg/dj9qVo4fL5nZljFIg8bV5vOV64lrLPKCrvcJYWZ5PtsVrW8S+ywT3//PPqfT3wwANGSeOo7XWdp64zBeMLc6wfc56on7rfQiBqZmQsptzRlbHu8+fPN0qJiKghXXDBBXjmmWfUnPFLlixBcHAw1q1bhxEjRqBnz56YPXu2GivfkEq3pSNxpD86njcUU5Yfn0XcvjkVieMqjl9O2nj8NLxle5MwPtgXvr2ikLSuyHLjm+vDI488otaS26DxlCEvN1k9ig4LdZOgzgdBA/VQG5nIzi//e/ND5JwUhMOOpDtDEbPMDtvUFMwbdqzVvkbsRcjbpq+HRyDYaLWvwDsUQ++WBynI/UyVNBoZ0pKQkIBTTjkFU6dONUqJqLG4gnf54ywray6TWRDVzsMPP6ymLZIu8zK1ERERNS5J8iXd5nNyctS46TFjxmD37t2Ii4uDzWbDXXfdpZKL1if75mRMCdOD9qAIxK88jNC7FyBrXyyOdYIuQ/5zQxEUHIX4daUInjoP8+ZEIej7DEwJ9UXIrNxygb4NkYvykDYzHG0/S3Uc97wIJK7KR2mFZGnNi3Sbv+6669R0q433/VoK+15ZB6BwdRKS5h6/pOc6flOpOyolqOseiXlL9cDebtdD+BgkT3cX/FeTHrwXyvpivyrHtNu6hur/2lFS0rjX5v/4xz/www8/4Mknn8TZZ59tlBJRo3F2A3j33Xe1oqIi9bimmmu3BKu9L08dR7Db/PGeeuoptf9FF12kfffdd0YpERFZjd1u1xITEzV/f3913pYlJCREW7JkibGHJxzWirMXaNEDpYu0/Aw/LWzqEi3HTW/3w7kJWpDs0y9Oy/reKFT2aClVdLFWSvZoGXMitQDVRVpfeoZpsUtztOI/jO3NzMcff6zep6+vr3bgwAGjtCEVG93fq7FU6OYunL9L2W7TIlP3GOXHVLvbfP48x+dlRuWfccyel0PVseI2GQWNYMWKFeo1XHnllUZJ42K3+YqsdhzB+jHHbvNEHiLJkR599FGVnV6mhJM1ERFZkyTMkozX0gIvU5DdeOONqmV+/Pjx6vwtXbS//PJLY+8aOlqK/FWJiDivLXxDJyF5Y1uEz0xD3vd7kDEnGsE2Yz+XUmS+HI982BA3Ox6hnYxixQ+Rzy5ENOxYuDgNlScbg48fwqamoKCoGFnzoxH6ayaSxoXAt+sgjP9nNuzNrEOkTDEmQyFkFheZIrDh+cDWXdbhSCnSoF8HV72USy4nipbHI3aZHUFTExDb247Uh+ORqlrxa8HmhwBZf1Z0/GdCKUPRzmx9bUPbRppoYc+ePZgwYYJ6/Pzzz6s1ETU+Bu/U4q1du1Z1yRQSuF900UXqMRERWd+tt96qxsLL7CCTJ09WQwDnzJmjxswPHz5cneNrwr4yGn3C45G+y08F7QUle5A2IxxBFYLycsrykPOKPIjG0IFuIq1OQQgdrq/XZaPCMOryvG0IvX8JsvYZQTyykTx5EHznVpwTvDmQ6cbkdyazCchN84bljcAgGdOejuz8GmQa2JuK+IdTYbfFYt5jcUiYEwubPRWxj6VWEXyfgB689+mtr1elIXe/o6iCshxkL5MHEQjqqUoanAxHkbndX3jhBfTr50ydT0SNjcE7tWhbtmxRiemEjMGTse5ERNT0yDRyEmhIgrsFCxYgKChIBYjDhg1TN2WfffZZ/Pzzz8be1VNWXIzCvfbjEtNV8IPdEcBdWIg0N2Ook+amI0cdIFU/lqyrVrqrAPbSwyg2njdXr7zyCi699FI8/fTT6nfWkGzDYhBrA5Inxhzfcn60CKl3+sLrvBDEb3D+1vWyx2KRarch5uV4hLYDvAfHI3mCDfZlsYhfXs3wvbikXGLCIERNj4QN6YidnoqiCrkOSpE9Mx6JdiB4djRCa5kTry5uv/12lUdi4sSJ6oYYEVmIsw9/aWmpJnO+10ZzHVNgtfflqeMIjnnXVI6H7t27q33mz59vlBIRUXOxfv167bbbblPneVlOPvlk7d5779W2bNli7OHOYa04N0VLGBWg6TGe4//2DNaiZ6ZoOUVurpOcY5qrsVQYC204/H2BljE/Rgu72DmeGprfkBhtQWaBVtJMx76Lzz//XOvSpYt6v//617+M0oYhOQpCVZ4BPy14bKw2b848bd7UaC24p1H/Y9M054j2PamR6nNgm5ChVchasC9Ni5Rj2CK1FCNllNsx71qOlqB+lv4ZmqH/nNUFRnmJlvVosNpfch3EyLY5sVqk8TmwjV6iFRw0dm1A48ePVz9/+PDhRol1cMx7RVY7jmD9mPNE/XCedxNWe1+eOo5o6cH7b7/9pvXt21dtj4+PN0qJiKg52rt3rzZjxgzt7LPPVud9WQYOHKi98cYbxh5VOLhHy0lNcAVUstgujtRil2ZoBc7EdIeztFjZNjzFFfCd0OFiLS99gRYzxM91XBXAzZfjWmBi7waSk5OjtW/fXr3/xYsXG6UNpDhLWzAh3BWwq0B+hNw02XMsSC9KcQXoaW7mY9/zuiNYt412/O7dB+96mL5p3rHPUKXPiSRFjBkRrPmp12DTAgZGawnpBRVvFDSQcePGqdc4ePBg7c8//zRKrYPBe0VWO45g/Zhj8G6CHx5zLT14v+mmm9S2e+65xyghIqKWYNmyZSpwV4GUvkhA/9hjj6kA30xJYYYe7IUdywyPBM2RK9yZwTxaS6uQab4q5TOeS8tvgpaSW6y1nJC9ok2bNmlnnHGGqo/Zs2cbpdSQjh49qt16663qd3DDDTdoZWVlxhZrYfBekdWOI1g/5jxRPxzzTi2OJKeTBEa33HILXnrpJaOUiIhagjvuuAPZ2dn46KOPVMbzAwcOYObMmejevTtGjRqFd955x9izIp8LwxCzKAMF+0pQkLkAMUOcyelsCL87Vv83GTEPVx6/rNubiihfL/gHxyP7V0eRt08kElJzUHx4D3KWxiGyn632c4Y3cVdffTU2bNgAf39/NYNATEyMsYUaws6dO9G/f3+89dZbGDFiBP773/+iTZs2xlYishpX8F5aWqoytBI1Z5LZVqaFCwkJUZnliYioZerbty9efPFFleAuKSkJgYGBKnHp4MGD1ZRmixYtcn9ddLIPAobEYEFmLJyTiXkPTkD67FBgWRT8A0IwfpojWd2UcSHw94tCqt0PoQ9Hq2RnKth/OQVxo4Jha6kReyV9+vTBu+++iwEDBqh6Dw0Nxa5du4ytVF/S09MRHByM3NxcPPjgg1ixYoWxhYisyhW8yxQrdntVc5gQNX0yT6lktu3Zs6cK3Fu3bm1sISKilsrHxwcPP/wwPv/8c6xevVr1ysrLy1MtwDJnvAQ1n3zyibF3VbwR/GgW8rMXICYIyJ47BVOmTUHSJiBowgJk7MzDkhF+xr7kTteuXfHee+/hnnvuwcaNG9UNlNdff93YSp4mU/ZFRESo6eAWLlyI5557zthCRFbGbvPUIqSmpuKhhx5C+/btVeB+zjnnGFuIiIgcZFq5VatWYceOHSq4ke7DMpWZTGsWFhamuhabsQ2MwYIVOdijadBk2ZmDtEUxCOvZCPN9NVEynE16RPz6668YM2aMWr777jtjK9WV9HC44oorMHfuXPW5/vDDD9WUcETUNDB4p2avpKQEUVFR6rEE7tI9j4iIqCoXXHABnnnmGdWlfsmSJapr8bp169SYYOm9NXv2bDVWnuqH5CKQ3g4yhEFa3y+88ELVnZ5q7+eff1Zztg8cOBAff/wxHnjgAWzbtk0NIySipoPBOzV70hVSvPbaa7jxxhvVYyIiohPx8vJSSU5zcnLw/vvvq1bg3bt3Iy4uDjabDXfddRc2bdpk7E2edNFFF2H9+vVqyJvkHpBhDBJoZmZmGntQdUnvEbnp9M9//hNBQUH4v//7P1WvRNT0uIL33r17qy8ioubC2Spy9OhR1T3szjvvVM+JiIhqSjJyv/rqqyo/UGJiosqOLjeFJcnaVVddheTkZGNP8iRpIf7yyy/VTRRJrDZ06FA1vEG6f5M5+UwGBASovA2HDh1SvUkkn8P1119v7EFETY3Xzp07NbmzXBcyrktY5Tji8OHDaNu2rfGsdqz2vlg/5sof56+//lJT/vzvf/9TSXC+/vprtY2IiMhTZAy8BEgyvZbo1KkTxo0bpwLN888/X5WR58j4bEk8K9O9iiFDhqgWeQnoyUGuhWSIwYIFC1TuBiHBu8y287e//U09b6oOHjyochddeeWVSElJMUpPjNfP5lg/5qxWP14y6Xxds27//vvvam2V4wjp1tajRw/jWe1Y7X2xfsyVP46MS3QmFrr22mtV5loiIqL6IOOzJYiXqUgl0ZqQrPUSxN90003qOXmOzAsv3b6dXegll43U9dixY+t8YdxUSe8E+fzJ5/CHH35QZXJjQ5L11vV6zyqcwXtNr+t4/WyO9WPOavXDMe/U7MiXlQTukuiGiIiovl1yySVqXLEkuJMWTxlX/Pbbb6vu3TJ2+9lnn1UJw8gz5Ps9IyMDH3zwAe644w7X1H5nnnkmxo8fj6ysLGPP5u3IkSMqoZ/0QHAmWRSSk2H//v3qs9hcAncicnAF76WlpSohCFFTlpCQoLqLyV14GYtIRETUULy9vVUQKcGkJFu77bbbUFBQgNjYWNWl/r777sPWrVuNvamuJNfAsmXL8NVXX+GJJ56Ar6+vanm+7rrr4Ofnp+bvb25j42XsusycExkZCR8fH5VEUYZtSO4Fee8yrZ5cC5199tnG/yCi5sQVvG/fvl0lYSFqqmRu2FmzZqk53FesWIF27doZW4iIiBqWtA6/+eab2Lt3L2bMmIEuXbqo76m+ffsiNDS0RmN2ydy5556Lxx9/XHVJlSn9ZBYA6Tr+3HPPqanRpO4laa20UkuLdFMjU7pJ7w1pYZdrm9tvvx3Lly9XOX2mT5+uruHfe+89lW/BE+Nyici6XGPe5Y++W7du6N69u7Gp+jjmwhzrx5wnjpOWloZbb71VHUPGQcl0MrUdG0VERFQf3njjDTUu2fmdJK2jMlZbgi65BiPPkcS1q1evxpo1a9TY+PINVJKBXa4T+vXrhyuuuAKXXnqpsaXx/fbbb2oe9i1btmDz5s0qSZ9z9hwhQzScGfeDg4ON0paBY94rstpxBOvHnCfqh8G7CX54zFnlfckcu3Jn/c8//8TKlStVEC8YvBMRkRVJYOZMLibTmQppTZVAXrp8k+dJIJydna260cuc/TJe3EmGO0hQLPkJJLCXmQJkXnTpen/qqacae3mW9AwoKirCzp078cUXX6CwsBCffvqpK0O8kwwFuOaaa9R1zqBBg+p87daUMXivyGrHEawfcwzeTfDDY6651I984ckXWnFxMRYuXKgS1TiPw+CdiIisTPINOYN4GRsvnJnTpTVegkqqHzJn/EcffaRaufPz8131X1nnzp1VDwnpei9TrZ1xxhlqrPnpp5+uAnv5HZ1yyilo1coxElUaEuS6RvJIycwDv/zyi/o9S7AuCQ3leuWbb75R1yiVSab83r17q8/A5ZdfrnoGXHjhhcZWYvBekdWOI1g/5jwavEsW1DZt2tTqi4IfHnOsH3O1PU5JSYkK3GWsl4x1nzZtmip3HofBOxERNRXSvVsCeclSL2RsszOIl1Zhql8y/7IE8NLyLdOuyXWS5Cv4+uuv8e2336qg3BMk4JfcPDJO39/fX12LSUu/tPhLxniqGoP3iqx2HMH6MeeJ+uE87yb44THX2O/r+uuvV3O93n///Zg/f/5xx2HwTkRETY30KHO2xv/444+qTBKVSRDvHBZGDU+yuEvL+U8//aRa0qVVXcanS/f7P/74Q42xFyeddJK6DpHGsNNOO01dh0hLvUxjJy33HTp0UPtRzTF4r8hqxxGsH3MM3k3ww2OuqdePzOsqmXplGh7J5isqH4fBOxERNVWaprmCeOniLeR7W4J4aZGXbtxELQmD94qsdhzB+jHnifpxTRVH1FTIvK0SuEuXeWfgTkRE1JzIlF8SpOfk5KgEazKft1z4xcXFwWazqenQJGErERG1HK7gXboASXINIit7+umn1bytkhH23//+t1FKRETUfPXv3x+vvvqqmu4sMTFRjZV+7bXXMGDAAFx11VWqdZ6IiJo/V/AuSb/Kz4FJZDXSffDRRx9VmV8lcJc1ERFRSyFd5adPn65a4GVq1BtvvFG1zMtMK/Kd+Mgjj6hka0RE1Dyx2zw1CWvXrlXdB4UE7tLyTkRE1FJJ8rp169apxpfJkyer3pNz5sxRGcuHDx+uvjeJiKh5YfBOlrdlyxaVmE7IGHcZ605ERERQ08i98MILKhP6ggULEBQUpKabGzZsmLrR/eyzz6rpgImIqOlj8E6WJnOsSuB+6NAhNR2cM4gnIiKiY2RqspiYGOTl5WH9+vXq+1LmLY+NjUWnTp1w3333YevWrcbeRETUFHnpQZHWqlUrNf2CpMBv06aNsan6nHNbynHqwlPHEfv27UPXrl2NZ7VjtffV0upHAvYbbrhBXWzIWPfHH3/c2OJe5ePIZ1rGAHKqOCIiaom++uorlcxOcsZ88803qkx6r8kwtKioKPWcqKlwThUniRrlBlV1tbTr55pi/ZizWv20kqlIZJE/Brlr63ze1BfhrpyLY2kK9SNzuUvgLol4nnjiCbf7nGghIiJqqbp164aZM2di//79WLZsmQrc5Wa2fL+ec8456qa4BPhETY27a76GWBrzZzeFhfVjvnikfo4cOaJxEnz3rPa+WlL9SKuAtBTccsstWLVqlVFqrvJxnHdo2fJORETkIHlk5PtVWuSPHj2qym6//Xb1vXvdddep50RWVNvrupZ0/VwbrB9zVqufurf/E3mYdJGXC4uQkBDO5U5ERORBffv2xYsvvqgS3CUlJSEwMFAlgx08eDAuu+wyLFq0SGWuJyIi63EF76WlpTxZU6N7/vnn8fTTT6Nnz54qcPfEXS4iIiKqyMfHBw8//DA+//xzrF69WvV0k2R3kvRO8sU8+OCD+OSTT4y9iYjIClzBu8wTarfbjWdEDS81NRUPPfSQ6hIlgbuMxyMiIqL6JdPKyRC1HTt2YNq0aSp5sUw/d+mllyIsLAxvvfWWsScRETUmdpsnS8jOznZlvpXAvU+fPuoxERERNYwLLrgAzzzzjOpSv2TJEgQHB2PdunUYMWKE6hE3e/ZsHDhwwNibiIgaGoN3anTSLS8yMlI9fu2113DjjTeqx0RERNTwJKOxJLDLycnB+++/jzFjxqhES3FxcbDZbLjrrruwadMmY28iImooDN6pURUXF6spa0pKSjB37lzceeedxhYiIiJqbP3798err76qhlYmJibC399f3WiXubavuuoqlbWeiIgahit47927t7qbStRQ/vzzTzU9zRdffKGS5kyZMsXYQkRERFbSpUsXTJ8+XbXAr1y5UvWSk5b58ePHqwR3jzzyCL788ktjbyIiqg+u4L1Dhw7w9vY2nhHVPwncpTve6NGj8dRTTxmlREREZGW33nqrGgsvyY4nT56sZiuaM2eOGjM/fPhwrF271tiTiIg8id3mqVHIVDSSvVbu3EtSHCIiImpaLrnkEpWVXhLcLViwAEFBQXj77bdV9vqLLroIzz77LH7++WdjbyIiqisG79TgnnzySSxatEhllF+xYoVRSkRERE2R9NyUm/IyT/z69etx2223oaCgALGxsejUqRPuu+8+bN261dibiIhqyxW8l5aWqm5PRPVp8eLFeOKJJ9Qc7hK4n3766cYWIiIiauoGDx6MN998E3v37sWMGTPUWPmXXnoJffv2RWhoKFJSUow9iYioplzBu4xbkkyiRPUlLS0NEydOROvWrdVc7j169DC2EBERUXPSrVs3zJw5E/v378eyZcswcOBAbNy4Uc0wIzfwH3/8cXz11VfG3kREVB3sNk8NQuaDlW50QgL3kJAQ9ZiIiIiaNwnYs7Oz8dFHH+Hee+/FgQMHVGDfvXt3jBo1Cu+8846xJxERmWHwTvVOpoKTwF2mhpOuc7fccouxhYiIiFoK6Tr/4osvqgR3SUlJCAwMVF3spav9ZZddpvLhcAgnEVHVGLxTvSopKVGBe3FxMWbNmoV77rnH2EJEREQtkY+PDx5++GF8/vnnWL16tbqpL8nuJOmdzBn/4IMP4pNPPjH2JiIiJ69Dhw5prVq1wsGDB9VY5DZt2hibqu+vv/5SazlOXXjqOGLfvn3o2rWr8ax2rPa+mmL9DB06FFlZWWqsu0wZ40591Y98puUi4Nprr1Xj7IiIiMiapJfe0qVLkZycjB9//FGVDRkyBOPGjVPzyhPJdV379u0xYMAANatBdTXF6+fqsNpxBOvHnCfqp5WXlxdkkT8GmerD+bypL8JdORfH0hD1M3bsWBW4jxgxAs8995zbfep7ISIiIuu74IIL8Mwzz6gu9UuWLEFwcDDWrVunriF69uyJ2bNnq7HyRMLdNV9DLI35s5vCwvoxXzxSP0eOHNGkxb0ufv/9d7W2ynHE7t2765zN3GrvqynVj3SHk4BdsstKkhoz9VU/zju0bHknIiJqeiTZrbTEv/baa0YJMGbMGERHR6N///5GCbUUtb2ua0rXzzVhteMI1o85T9RP3dv/iSp5+umnVeB+0UUXqczyRERERDUlAfqrr76qpjJOTEyEv7+/CuSl2/RVV12lAnsiopbEFbyXlpYywyfVmYxXe/TRR9VYcwncZU1ERERUW126dMH06dNVq9XKlStx4403IicnB+PHj1fXGY888gi+/PJLY28ioubLFbxv375d3dkkqq21a9eqrmxCAndpeSciIiLyFEleJ2Ph5bp18uTJquFpzpw5asz88OHD1bUIEVFzxW7z5BFbtmxRU8IJmbNVxroTERER1YdLLrkEL7zwgkpwt2DBAgQFBeHtt9/GsGHDVOOBzHDz888/G3sTETUPDN6pzvbu3asC90OHDmH+/PmuIJ6IiIioPslMSTI/vMwTL9OHyTVIQUEBYmNj0alTJ9x3333YunWrsTcRUdPG4J3qRAJ2+aKUAD4+Ph7333+/sYWIiIio4QwePFj1/pNrkhkzZqix8i+99BL69u2L0NBQpKSkGHsSETVNruC9d+/esNlsxjOi6omKilJd5u+55x7MmjXLKCUiIiJqHN26dcPMmTOxf/9+LFu2TA3lk6nF7rjjDpxzzjl4/PHH8dVXXxl7ExE1Ha7gvUOHDqrrEVF13XvvvcjMzMQtt9yi7mwTERERWYkE7NnZ2fjoo4/UdcuBAwdUYN+9e3eMGjUK77zzjrEnEZH1sds81YpMBydzrwYHB3MudyIiIrI06Tr/4osvqgR3SUlJCAwMVF3spav9ZZddhkWLFnHKZCKyPAbvVGPPPfccnn76afTo0UONH2vdurWxhYiIiMi6fHx88PDDD+Pzzz/H6tWrVe9BSXYnSe9kzvgHH3wQn3zyibE3EZG1uIL30tJS3nGkE5JgXb702rdvrx6fffbZxhYiIiKipkOmlVu1ahV27NiBadOmoU2bNmr6uUsvvRRhYWF46623jD2JiKzBFbxv374ddrvdeEZ0vA0bNqixY0K6ysucqkRERERN2QUXXIBnnnlGdalfsmSJGhK4bt06jBgxAj179sTs2bPVWHkiosbGbvNULXJz5/bbb1ePX3vtNdx4443qMREREVFz4OXlhejoaOTk5OD999/HmDFjsHv3bsTFxakZme666y5s2rTJ2JuIqOExeKcTKi4uVoH7Tz/9hLlz5+LOO+80thARERE1P/3791eJeaVXamJiIvz9/VXjxYABA3DVVVchOTnZ2JOIqOEweCdTf/75pwrcZTzY1KlTMWXKFGMLERERUfPWpUsXTJ8+XbXAr1y5UvU8lJb58ePHqwR3jzzyCL788ktjbyKi+uV16NAhrVWrVjh48KDKGi7JOmrqr7/+Ums5Tl146jhi37596Nq1q/Gsdqz2vhqjfiIjI5Genq7Guss4sPKsXj/ymZYv1muvvRYbN25UZURERER1IdnopeV96dKl+PXXX1WZZK2XLvc33XSTek6eJ9d1kjBZej+sX7/eKD2xxrh+NmP16+e6YP2Y80T9tJLxPbLIH4O3t7d63BwW4a6ci2OpTv3IdCkSuF9//fXqS8rdPlZfiIiIiDzpkksuUVnpJcHdggUL0KdPH7z99tsqe/1FF12EZ599Fj///LOxN9UHd9d8DbE05s9uCgvrx3zxSP0cOXJEq+s83b///rtaW+U4Qro3yTzkdWG199WQ9fPkk0/iiSeeUF9I7777Lk4//XRjyzFWrx/nHVq2vBMREVF9khl5pKFDZuMRJ598smqJl+WKK65QZVQ3tb2ua8jr5+qw+vVzXbB+zHmifure/k/NzuLFi1Xgfs4552DFihVuA3ciIiIichg8eDDefPNN7N27FzNmzFBj5V966SX07dsXoaGhSElJMfYkIqo9V/BeWlqKsrIy4xm1VGlpaZg4caK6uyR3j+t6d4iIiIiopejWrRtmzpyJ/fv3Y9myZRg4cKBqJZbcQdIo8vjjj+Orr74y9iYiqhlX8C7zeMt0GNRyydylt912m3osgXtISIh6TNTcSTKSw4cPqy55v/zyC3777TdXNykiovom5xs578g5SBZJgiYNKpqmGXtQUyQBe3Z2Nj766CPce++9OHDggArsu3fvjlGjRuGdd94x9iQiqh7XmPf33ntP3S2UE0pNNdcxBVZ7X/VZP1988YW6Oyxzuks3r3vuucfYUjWr1w/HvNN3332HnTt3Ys+ePaqlQ1pC5DMu5T/++KPqcSSfk6p6HUlm0Xbt2qnP0RlnnIFOnTrBZrPh7LPPVtlC/fz81N/RBRdc4JEspETUPHz99deq+7RkFv7mm29U44gEbj/88AN++uknde6RG4USpMuNQ7MgXWYBOu2009QQNh8fH3Ts2FGdi/72t7+p89FZZ52lWnTlGk7OSbWZNYgahvzeJUO9jI0vKChQZZJbSMbFjxs3TiWOpqrV9rquPq+fa8Pq1891wfox54n6YfBuoqV8eEpKSlTgLr0vZs2ahfj4eFV+IlavHwbvLYvcgNq6dSvy8vLUZ/mzzz5TQXpV5LMhF8JyQXzqqaeqC96TTjpJZfKUlvg//vhDXVRLa5hcZMsFt5S5I/9HMgz36tULQUFBuPzyy9U4R7ngJqLm69NPP1XL559/jsLCQnUekhuGVZ0rnDp06KDOQXKOaNu2rTr/nHLKKeocJOQcdPToUfW9JuehQ4cOqe80yWB+omPLtdz555+PCy+8EIGBgeq8dOmll6obkWQda9asUYG8ZKkX8vtxBvGSzZ6Ox+C9IqsdR7B+zDF4N8EPj7ny9SNTwUmW1Pvvvx/z589XZdVh9fph8N687dixQ3VHlNkQZMhH5WE/0joeEBCgLmLlsy7nN2ktl1YqSSQkF8o1Ja0m0nIvLWnSslZUVKQu1OWCXVpRnJ9BJwngr7nmGnVzbNCgQR752yWixiF/77m5udiyZYu6Ufi///0P+jWUsdVBWk579uwJf39/dT0l5xxpFff19VXnnc6dO6tePHLDr7bkZqK04MvNSTnvyflIWvild5G8xl27dqmeRZVJIC83Fq+88kr069dPtfhS45PvD2drvPP3NmTIEBXE33rrreo5OTB4r8hqxxGsH3MeDd7lbq7c+a1Nlx1+eMxZuX5kPJZkQJWx7pIltSasXj8M3psfuckorRUZGRkqeHeSi+Lg4GAVLMvFae/evdVFckOTFjhp+f/444+xefNmtXaSaYPkguymm27CzTffrF4zEVmX3KjLyspS3x9y7pHvzfIkGJZzjbSSXnzxxepmoQTtViCBvfQEkB4Bcl6S3khybip/s0F6Hg0YMEDdXJRs6GztbVwydMIZxMtNIiHXaRLES4s8vzMYvFdmteMI1o85T9QP53k30dw/PAsXLsRzzz2nvrilBbOmrF4/DN6bB7nglBtLMm2hM0OvtJrfcMMNuO6669Tn16oXndJCJj0DJACQ3i1yMe0UFhaGkSNHIjIysla9AIjI8+SGm9wcXLdunUoy5iTDa66++mqVyFVareVGoXy/NDXSW0BuLEpw+OGHH6px+U4yXl5uMMq5aejQoUYpNQbpTSZB/GuvvWaUAGPGjFFBfP/+/Y2SlofBe0VWO45g/Zhj8G6CHx5zU6dOxbx589Q4XTkB1qaV0ur1w+C9aZMLl1dffRUffPCBei7jAcPDw1WrtbRee+LvoKFJK9jq1auxatUq1e1WyPu66667MHbsWHZjJWoE8rco06TK3+WXX35plEK1SssNQhny0lxnX5Eu2/L9KFnP169fr743hXx3Dh8+XJ1z//73v6syaniS5FC+C2WRxKtCPovO1viWhsF7RVY7jmD9mGPwboIfnqpJtyw56UvALic/CeBrw+r1w+C96fn+++9Vj5DFixe7ks1JK1BUVBRuv/32ZpXR/ZNPPsHy5cvxxhtvqCz4Qt7rxIkT2epFVM++/fZbNWRM/gbz8/NVmQwdlEB12LBh6m/xzDPPVOUtyf/93/9h7dq1aniSs6eTZLWXac3kPHzFFVeoMmp4b731lgri//vf/6rnMuOAM4iX3C4tAYP3/2fvfOBrqv8//laqKYXyZyuqiWqLGP0x4ZehmJQmYgsxKuZPmT+xSTEpbZS/hSW0qbQp8icy36gtlCWFkCWViZo/ZSM5v/N675zr7rq7u7u7f8699/30OM69n3P2ufd8zrnnfF6fz/tPSYxWD5D2sY0z2gf+TwooKChQCgsL+XV5QR16PRXBWfWA/fv3a68cx2jH5Yx61Acy8tHwkpWVpZU6hpGOC1jWc/LkST5O9SavlQhGRRXtypgxY5TLLruMz1m1atWUUaNGKT/++KO2h2+jCgilXbt2pt9m69atlY8++kjbKgiCs1i3bp3Ss2dP028Ny6OPPqqkp6c75TnkS6jiSImLi1Nq1aplaqv77rtPWbBggbaH4Al27NihDBs2TKlatarpvHTt2pX7d76Oo/06Z/UzgegL20j72MYZ7WOaxkIwE8tozYJvgQi5CEwH3njjDfYVFgRPM3nyZLrxxhvp1Vdf5ZzFcOeAqeDUqVP9ZjYBVgUwW920aRN1796d/R3Vzhj79eO1IAgVAzOWmDVGdhXE0EBKx2nTpvG9JjMzk2eWnTGr4ktgdnPWrFlsBfX++++zRQL85AcMGMCz8S+88AIH9RPcC2K8oA8HSzWcH7hbId0czg8sKXFdIwi1IAi+ie/YoAo2QVAaCHfkikU6ODHLFTwNOoMQ54mJiez3DdGO9Gvx8fFsvuqPIBARAvMhmBT8TeGDCr/bp59+mlNDCYJQPl5//XUOxAbBiWB0+kAZAmE+99xzLEKFskFwTcTrQEyA0aNHcw76SZMmcerNYcOGmfyxBfeB7FBxcXEchBDPCvTxkLIUz1CY1D/zzDOm2CqCIPgOIt79AAh23NQh4CGUkM9dEDwFchJjlgudaORIR0cQuYnR4RCKQTRrzAYi6jWiWs+bN49uv/12WrhwobaHIAi2wCA1cqxDoCOmBNa438DHHQHoBMdo2LAhW0lhNh6zv3g/c+ZM9uEcPnw4398F99OhQwe2KEE/b/z48ZxW7q233uLnR0REBMd3EATBNxDx7gdAuMNk/qmnnuKRckHwFOhANG7cmDsZMAnH7Bc6gldddZW2h2AOgmYhXdVrr71GBQUFHJzoiSee4NeCIFwM7jHItw4hCYE5duxYDk4HU+IGDRpoewkVpXLlyjzjjpn4+fPnc5tjwOSmm26iF198kf777z9tT8GdoP0nTpzIA1ZLlixh90gEdsNzo27dujRhwgRTIEJBELwTk3hv2rQp+5sKvgWikCJyLPxnMQorCJ4CnWldeE6fPp0j5sLvVCibkSNHcpo5DHhAnDRv3pxzxwuCUAwGqPH7wD1mz5499Oyzz7Ibzssvv+xQKlTBfuCSAHNt+F+jH/nSSy/xTPzixYu1PQRPgN9CVlYWDwDD9QrxHSDsb775ZrZ+g/uIIAjeR6V9+/YplSpV0t46hqIg+KNamUHqAYWFhVSlShXtnWMY7bjKWw98iN98800OZoIO/2WXXaZt8Y/2+eeff6hJkyaSKs7DYNarT58+LDZhwodrUkS748B6BoGiADrL8HkUBH9mzJgxHOASwDcbs4uhoaH8XnAv8IWHeE9KSuL3CKIG6yrMzAue5fjx45wqGMEbMdgC0D/EJA+suuBDb3T0VHH33ntvuVwBnNXPBKIvbCPtYxtntI8pVVxF8NVQ/EY7rvLUM23aNFxpSoMGDZRDhw5ppRfwh/aRVHGe5+uvv1ZuueUWPg9qB0ErFSrKihUrlOuuu47b9fnnn9dKBcG/+PTTT5U77riDfweqOFSWL1+ubRE8ze7du5WoqCg+N1jQJxGMA54hSC+nnx+knRs+fDinoTMykiquJEarB0j72MapqeIE3wGjkSNGjODRSUT0hp+TILib//3vf9S+fXv66aefeLZ4wYIF2hahomA2Cynk4O70yiuvcFRhQfAnEhIS2Ewe7iQIeomZRLiHCcYAATYzMjLonXfeYbcF9EkefvhhdmUQPA+eIcuXL2cXE/x+kOEFAQhhrYhYKx9++KG2pyAIRsMk3mFOU1RUpL0TvJX169eznxOAcIdJlCC4Gwh3dABwX5k7dy5nORCcC8xQ4c8ItxDEsxg4cKC2RRB8FwwGIlo8fNmR0xp+uzDLFoxJ3759aefOnezOsHLlSo7XAdEoGIPbbruNfz/IGY8B9vDwcFqzZg11796dAzzidwZfeUEQjINJvO/YsYPy8/O1d4I3gnOI9Ftg0aJF1LFjR34tCO4EEeSRoxx+PfCvk1lh11GjRg0O/Acxg44XggIKgq8C8QdfVwxawU83NzdX0r55AUhbhskEzOweO3aMoqKiJPONwYAvL35T2dnZtGnTJh50wUAZLFwQhPDJJ59kay9BEDyPmM37CIcPH2bh/tdff3FaKQQIEwR3gxF6XIeYcZ8zZw7169dP2yK4Cpg7fvzxx5wbHqmapkyZom0RBN8B1zbMrv/880/OK47BKvMgrILxQWo5CEDkhkfQTQhCwXi0bt2a3R0woTd58mSqX78+Twi1adOG7rvvPg54JwiC5xDx7gMgnyoEE3yXRo0axWmlBMEToDO2b98+zvM7aNAgrVRwNciTj5kt5PgdN24cZWZmalsEwftBrnZYlWAGEK5hQ4YM0bYI3karVq0oJyeHOnXqxILwgQceoBMnTmhbBSMBiwk8TzADv2zZMrbmxMw8UgMijgGyPCDPvyAI7kXEuw8A4a6bOenpcgTB3cCvHSbcMTExnKpJcC833ngjz5aAp556ig4dOsSvBcGbQSpEBGVEcMbPP/+cg2AK3s11111Hq1evZjNtDMZ06NCBU4oKxuWxxx5jX3i4Z8KCAjGy0N+Ezzzc5D755BNtT0EQXI1JvOPBiFFtwbtAxwZRQTEiqnfcBcHdwAcV5nUwh5w3b55WKrgbBK9LSUlh0+Jnn31WKxUE7wSDUHC/+b//+z/asGED3XrrrdoWwReA60N8fDxt27aNA5z++uuv2hbBqNx5550cuwAB7mbNmsVBkT/66COOXo8AktOmTRNLCkFwMSbxXq1aNQoICNDeCd7ASy+9xB0b3Dw/+OADrVQQ3A/M58Drr79OV155Jb8WPANSMnXu3JlN5xcvXqyVCoJ3AdP4+fPn80w7LHquvfZabYvgSyQnJ7NpNmZ0keoPcXsE4wO9gMmjb775htatW0ePP/44p2vEYEzNmjU5UC0GZQRBcD5iNu+lIP0W/IqRwx3C/eqrr9a2CIJ7wSj8119/zanKMHsieB6YGQNxXxC8EbjgzJ49mwNnIcK8TCz4NrDaQrweCEGYZwveBdwe3nvvPfr5559p/Pjx7CuP9KX33HMPRUREUFpamranIAjOQMS7F5KRkUGDBw+myy+/nIX7Lbfcom0RBPdy7tw5FoqVK1cWoWggGjVqxIEr0ZlC9glB8BYwMA0xh2sY1iMi3P0D+E/DTWLjxo30xBNPaKWCN4GAqRMnTmT3hyVLllDbtm1N5xMTTegjHDx4UNtbEARHMYl3pHZCAArB2HzxxRdsngQQXTo8PJxfC4IngM8b0snAVO6GG27QSgUjMHr0aE6lBcsIQfAGEDsDA9PVq1enpUuXsvmt4D9gthYuP5iphQgUvBcIdvyet2zZQk8//TSnkcU5vfnmm6lXr1702WefaXsKglBeTOId/kbohAvGBSk5EMkbqeHwkIN/mCB4EvikAvelbjpOeWtSaWT/dhQaVIkqVVKXoFBq138kpW50xv0rhyajzh7p5O13Q6TyQbq+3377TXzfBcODCQS43gAEX8XMu+B/IH1cgwYNeJZ2xYoVWqngrcB0/s033+QAdwimGhoayib2MLVv3rw5x22SiUNBKB9iNu8lFBQUsHDHAMukSZPYvEwQPAnM4RCgBqkKYRLncn7OpJERIVQ/cgClbSNq2TuZkqcmU8KjwXR4TQoNiAii+v1Tafff2v4C9e/fn9ficygYnaFDh9KBAwc4lssjjzyilQr+BtLI6RlLEBANfR/B+4E1DYKp/vDDDzwog8mn7du38znGQDOyo3z33Xfa3oIg2ELEu5cAU3nc2GBSiGA+guBpkB4G9OjRg9cu5ed0ignvRikbgylh9WE6vHMDLZgaT/Gj4ilpziradegAZQwNp7yFAyhicKbXz5o7iyZNmvDMB6IBi2WVYFRgGfLuu+9yZHmJnSHAVxqTFPCdhkuW4Fsgrdzy5ctpz5497N51xRVXsHsXnlcIeov0x4IglI6Idy8AvkPr16+n7t270/Tp07VSQfAsSN+EoIl4ELuWPEodHEPp+YEUvy6LkjoFauVmVA6mqBmzKbkFUf6SOJq1UczwdPQMALiHCILR+Pvvv+n555/n18gRLQgAkxStWrWihQsXcsYBwfe47bbb6NVXX2WTeuT8RwynNWvWcF8XrhMvv/wy+8oLglCSSqdPn1YuueQSOnXqFHfEMQJWXs6fP89r1FMRnFUPOHToENWrV0975xhGOC6MSs6YMYP+7//+j29qQNrHOpb14JqGOdb999/PJt6C88D1c+ONN7LfGmZ1XcpXkykoPJHyOy2gA6tjKVgrtsbx5UOo5cwiinwugZK7mO15fDdlzkyh2R+soqzv84kahFNUhxiKeyGOIkqMBcDnvSUldk+jA3OCafULSZQydzXlqZ8a3i+WRo6Io6hG1bV9gbb/xGwqaJtNsf1GUuZ+7JtAqXNiKQSBss/lU9bcJJq9PIuyN+5mq4DARhHUuUccxQ+NohDz6lzApk2b+P4BVxvEyhAEI4EUYcj1DXN5mXUXzNm8eTO1adOGwsLC2MRa8H1wzlNTUzn2gU7fvn0pNjaWU0eiX3fNNdfwdVGevoez+pnAH/rPFUHaxzbOaJ9LOOCTuuDHgJQs+ntvX4C1cm9a0KGBcEeAD/isWtvH0cUX2seeRXAN3377La/vuusuXruS3I2zWPBGPBphU7iD6o/Ool1ZC0oI96I9qRQTEkrdXlhFhxvHFPvJd6hBuXOHULugljT5Kyuz9PvSaEiXljRkfQBFYf9BIZS/MJG6NY6kIWusmJ+vjqfI1rOpqEMCJY+PpBrBwRQM4f63Ku5bB1G7YRm0OzCSRqp1JU+Np85V8yj1hW4U2mky5brYSABm80A6v4LR2L9/Pz/n6tevL8JduAiINQQxzM3N5aBngu+Dc46AlXDzQspI3Bsg5CHW77vvvhLBV631+dyxePKzvWGR9rG9OKN96MyZM0pFQR1GqgeonQLtleN48rhSU1MV9fwqtWrVUr7//nsuc9b3Ad7ePtawrOfkyZPchvfff79WIjiL1157jdtWfZBqJa7isJLWnfizknK0ovJQuF1JaoG/D1eSNhdohcUU7l6gRAeq2wLjlFVHtUIlW0lSPwufF9g7TTnwr1YM8tJs7h+1+IBWdoHtU8PUbYFKdLrltkIlezy2kRK/rlArcx0NGjRQrr76au2dIBiDQYMG8W/grbfe0koEoSQHDhzgawT3MME/WbZsmdKxY0e+DvTlxhtvVH788Udtj7JxVj8T+EP/uSJI+9jGGe1T8fl/wel88sknbCIEkMv9jjvu4NeCYBSQfgzAdN7IHF+fSolfEYVNTKH4ViXt0wNuj6WklyOJ8mdTyvI8rVQnlmZPi6bgytpbcHO0af/U9Zaz73EUa26mz+RS9uYaFNJgCA3pZbktgIJDisvyjh3ntSuBiRbMDSVys2AUfv/9d5o7dy41bNhQsqcIpRIcHMyBetUObwlTasF/eOyxx9htFCmtn3nmGS775Zdf2Gf+0Ucf5T6zIPgTJvGOHKuSa9HzbN26lSPLA+TCRNRVQTAaiBILkNbHyOR9n8HryLbhqly+mOC2MRSlrrM255aMUP9oBIXV1F6bERymlqvrzNxdVOJu2TSYgi7yXQ+juBUbaNe+BApX9z5+PJ92f5VFq5fOpsTB3SjqhUxtP9dz7bXX8hr3eUEwAm+//Tavn376aV4LQmkMGjSI1whqJvgvd955J02dOpVfY9CvWbNmnPUGQXMxyYWAlydOnODtguDLmMQ7RrQklZBn+fnnn1m4nz59mn3ddREvCJ4G/tIpKSn8kKxatSpHmgcIculqAjTVXXiueG0/x+nwIdzToii0tDT0gYHFfvT5BVTIBRqNgq3719cMKi7/OV+t3YyGQRSkvSzJccp5LYZCg6pQjRpBFBrejjpHD6HUzcepRj0MA7gH/TzBkkcQjMCSJUvYd69///5aiSBYp1GjRtSxY0f64osv2P9dEG644Qb65ptvOGgd+sq7du3itII1a9bk2flt27ZpewqC7yFm8wYBgh03IAh4pEgZOnSotkUQ3M/evXs5MnmvXr1UfRtIzZs3p5EjR7J5Gh6OSOMCzp49y2vXoYrrsGKRm7Pb0rTdCr+m04DwbjRkEiLEl4OqVbQXzuQ4rR4cQi1Hp1NR63hakLmBtucVUMEphfPUpw60OjzgEvTzNGXKFFOwQUHwFBBhuMfgmVejRg2tVBBKp2fPnryWHOCCOch4AytV9J3Hjx9PderU4b4LArVGRERwsGdB8DVEvBsEdGJgMg/fv0mTJmmlguAe4H+anp7OkX0hzOFLhtFrPBTPnTvHPmezZ8/m0W08JB966CH+uz///JPXriSsbQybqmctzypTkOetT6PUrzIpozCAgqg6BdVDHrhM2vVr8faL+DWPeB6nagCVkO978kqa0escO1z8HW4PJivZ5kuyP4NS5qq1dJhFqz5IpliY4t9cnapX1ba7kb/++ovXJ0+epH79+on5vOBRdB/VRx55hNclyaf0HlpU3f6ZJS1cHAYpHdX6eqRb/10Lhge+zUD8mwVr3HTTTTRx4kT69ddf2aoHLqdIEfzEE09Q3bp1eRv85AXBF/Bq8b57925avXo1LV26lD744APKysri/HneBoLT4YHUtWtXycMsuAWIuBUrVtBzzz1HTZs2ZRO0mJgY9inEww8miq+++ipt2bKFjh07RsuWLeOgQSEhIfz32B+45WHYNIZGdlfXaxIpZaWNrvzfOZQ6Y7X6IpxG9ohgH/fgRt140+qNOSV91DXyNmdSlroOC7MQ48uyafvf2mszduesZrEfd3dxO9jkWD7XTa2b0cV7H6fs9e7zecd98eqrr+Z8uZh5x3kXBE/x2Wef8bpTp068LsH+VZS2DB4t6i9yYSpl7NfKBb8G6Yzbt29P3333HR08eFArFYSLgWCHHkD/BTE1jhw5wmnn4CcPa0L9/iP4F76iGRk99P3x48eVwkLHUha5MxS/2uDKY489plSrVq1E2gjzpX79+krv3r2VnBxHcktdwB3H9fzzz/N3btmyZZmf5azvAyRVnH9x/vx5ZcOGDUpiYqJy3333lfi9YGnVqpUyfvx43gf7loUq/Pnvxo4dq5W4GD1NG4UrcZkHlIvuVAXbleQugfydwidmX9huV6q4aCXjkFZolvoN9Zj/hWn/pklKtukDtP27pymHtRIT+xYoEdjWNEHJPqWVaRxYHK2o0oQ/Jyr9or90Kriv43PuuusupaCgQGnSpAkvguAJcA3ierz33nu1kpJsn4YUihHKrMXJSpi6X9jU7doWwd+ZOHEiXztpaWlaieBvONKvwz1n6tSpSkhICP8tlmbNmimzZ892SPdIKjTbGKl90tPTlaioqDI145AhQ2xqRqO1j9fkeX/33XeV0NBQU2PXrVtX6d69uzJu3DjOOf3KK68ozz33nPLAAw8oAQEBpv26dOmibNu2TaulfLj6uKZNm8bfEflLDx0yqYdScdb3ASLefZ8tW7bw7+LBBx9ULr/8ctNvAkvTpk359/Lxxx9zO5WXX375hevp0KGDVuJ6CnOTlUgW8KQENopQYkclK8lTk5X4fuFKsHZc4UNXKRdlVNdFNwUqIb3i+W8SBkVqfxOuJKwzl+i6GI/mvwlsFK3Em+8fGKEk5Zg/7G2Id7Uko3fxgAI1iFTixuP7xivRjdQytZ6EGQnF4n5itra/a/j888/5Ozz11FP8Pi8vj9eC4AkwQIjrcejQoVqJOduV5Kbqb6JpsvpKex2YoGwof/9a8EHWrl3L186IESO0EsHfcLRfp/cPMfHQtWvX4ueyulStWlUZPny4smPHDm3PshHxbhsjtI+zNaPR2sfw4v2ff/5RoqOjTQ3bt29f7oza4ty5czza0qZNG9PfTZkyRdtqP648LlxY+F7XXHON8s0332iltnHW9wEi3n2PH374QZk1a5bSrVs35dprrzVd+1gwQDRw4ECesfj999+1v6gYt956Kw8K/Pvvv1qJGyg8rGx4O16J7XBBsFNgiBLRL0lJy7Exg12wS8mYGKtEQDjjbxqEK1GDZikbLvoTTYxDUB/NVpL1gQH1MyJt7W9VvKv8q37fqbFKeAN1H+1zYyemKdnYuXCDEo+yDgsuGnBwJi+++CJ/9uLFi7USQfAcM2fO5Otx3rx5WskFCrMS2CIlbFrxbPuBeRHqvoFKQlbp6v1w1iwlrvuF+wEP7Km/se1HtR2Y0n+nBTszlCTTAGCwEt4vmX/n2RPxPkpJ08fVD6UpUeo+bClzeIN6b4hQQvRBwS5xyiwLyx4T6r6zBkVduPdg/7axSlLmrhKWPWXC9USafWa8krazQDmQHsX1JpkmjS7cwwo2JytRfO/BcS1Qdu0vPobSBhvTumNfs2O2uB/i8y+0U5KSoX6+Vey+3xZj3zlU+NmF7RiQFvyTiop3nT179iijR49WrrvuuuJrVF06deqkLFu2TNujdES828aT7eMqzWi09jG0eP/555/ZtAUNiUbFTGJ5WbRokUnIQLyUB1cd17p160wXyJo1a7TSsnHW9wEi3r2fgwcPKu+88w7fnG688UbTNYUlMDBQ6dWrl/LWW28pe/fu1f7CuQwbNow/KzMzUysRjMg999zD5+nw4VJ6zoLgRjDbgesxKytLK9EpVDaMhdiLVBbs04r2LVAicU/rl2FV6B5IL3Y/0S1kkqcmKHFdQopdUgLjlFUm8WddvB/4INY0OBcNS57xcUokxG5gtBJtKWR18f5cPFsABXeKUxJKWPEEKnErSn7LwpwkJdy8fnzHURcG88Jf3n6xC5AVUE8Ei/ZgJXJQwgULHgpXontjgMOKeG8Rrn62tj+Oa+IGpVA7hnKL96FJxe5HugXRqCiTiI/9oOTQY1mWTiUtl8pzDou5+uqrlYYNG2rvBH/DWeJdB26CCxYsUMLDw7leLLfccosyefJkJT8/X9urJCLebeOp9nGlZjRa+5jEO3xCjOTz/tdff7FfJhpw8ODBXOYoaCj416Gup59+WistG1cc17fffmu6MHCRlAdnfR8g4t37+PPPP5UPP/xQiYuLK2EOhAWmXw899JCSkpKibN/uHh9RdL7x2T179tRKBKOB+w3OEUzDbJGbm6u9EgTXgvsFrknMfJXgaIYSi/tZCaFeoGT0wz3OTNDr6JYrnS62XDkwTxWLLSKUeJOYtiLedSGrCvU0c0+Sfw8oabq7ixXxDlEavdhCsG5OYP/8kqJYN/u3qB+cylYSsI3iy3YJKFS/O+9rKXwLlOyJFwTHReJdXaIsvqfpGMor3tUlsPcCZZd57A49Dom5wLYrxoj5/uU5h8XcdtttylVXXaW9E/wNZ4t3czZt2sSTIfpvCgveo9wcEe+28UT7uFozGq19TOL9f//7n8O+kM46KPN6HnnkEW44zO45AwxO3H333VxncnKyVmobZx8XTL5uv/12/g7wuSgvzvo+QMS78cGxwMdvzJgxptlT8wXH9dJLL130YHEn+iCCPTEbBPejW0fYGijUOysi4AV30LFjR77e/vjjD62kmILMWC6/aPZ6XTyXXxS4TheipczKl+Ri8V5skk9KbKaVvzYJdSviPTBJrc0SXeSabcudpUS2DVGCrca0sCaUrVPq8QOTsLcm3lWRbHloDot3K4MnKgfejuTP1oNuFqyI4/dh6jFbG5PQ94+Yp0n1cp3DYlq0aMF1nD17VisR/AlXincdzLhj5h2BzPBZWBBUGjP0QMS7bTzRPq7WjEZrH0Omips1axZ9/PHHFBkZSW+88YZWWjGqV6/OuR+rVq1KI0eOpB9++EHb4h7+++8/6tmzJ+3Zs4dGjRrF30EQLPnyyy8pKSmJU+JUqVLFlLJt69atdNddd/G1g1QXhYWFnMP0hRdeoNatW2t/7X6QFx7gNysYi6NHj9LcuXM5rV+fPn200otBikqAPMqS/11wJT///DOnKgQBAUjmqJNHGfNTiQITKKpDda2smIDWkZQQSJQ7LYOyzPM91g2jiBbqemE3atZjJKUuz6Hdx6wlhLRGPuVuRiLHKIq4u+TnMXXDqVtxWvGL6RBCwdrLCwRTMNJZmtM0jlZl7aID48OJio7T8fzdlLNxNaXPTKQhPaIocZm2Xxns/jqN191ah/G6BAHhFNFFe21J02AKsnJoDvFoDEU00F6bEdxabT91nZm7i1Nx5n2fweWRbcM5VaclwW1j1BYnytqcW5xv34FzqF83zZo1o+joaHr55Zc57emBAwe4XBAqSp06dWjcuHH0008/cZpc9MOys7NpwIABVKtWLZo6dSrt3btX21vwNO7QjLt27dK2GAPDifeioiJ66aWX+PX06dN57Sxuu+02Sk5O5tcQSO4EeSc3bdrEeZbxwxcEsGPHDnr99ddZQFWrVo1atWpF48ePpw0bNtCtt95KgwYN4nyUEGLbtm3jawe5kUt2fD3HkCFDOB9zSkoK/fbbb1qpYARwrfz77780fPhwrcQ6uPawD4RVv379tFJBcC4fffQRhYWFUX4+yzZSFExqaOzPovQ16jp/MrWrUokqVTJbqrSjyfgTdVvmevPBpRCKW5pBsY0CKW9ZCg2IakmhtapQUOPONOS1dMop/phSOEy712PdjILrcoEFqhhvpL20pGEQBWovy+RYDqVEh1JQlRpUIyiUWkZ0pphhqZR1rAYFN9X2sUk+5e3GgUSV8j2JAhtCDltB/Z5B2ssK00htD+1lCQKqEI8P/JxPx9V/hw8Vf9fQUr6r+rAorie/gAq5oPzn8Pz587xGZxr5mhMSEuiRRx6hW265hZ+h9913H+f2njlzJg9w49kpCI7y2GOP0Zo1a7ivNmzYMNYo8+bNYz2BAe9PPvlE21PwBO7SjFOmTOG1UTCceMeP4tixYzRmzBgWL84GN3WM2L733ntuG0lBxzgzM5NH79555x2tVPBHMJKbmprKgzmYEW3atCk999xzPGp4zTXXUO/eventt9+mvLw82r17N82ZM4e6d+9ONWvW1GowFpUrV6bnn3+ezp07Z7qBCp7n+++/54fOzTffzNYaZYEBpCZNmrDAwmtBcCa4N+iWHXfccQeX/fPPP7wGuctnU5YqiUPaRlBEBytL2xAWzLOXZ6kS0Yybo2jBzjwq2L2KFoyPo0hVBOZ/v5pmj46hlkEtafJXpc3iquU2xb0TOLaahjRuSSOXFlHLUQsoI2s7HShQReu/h2lXVirFNtT2KwO1b+p5LtPWzqJqFe2FSjnP4enTp3l95swZFlRpaWk0duxYevjhh/k5iRlS9CMhtCIiIqh27dr8rH3wwQcpPj6eFi5cyAPhsF4TBHu58847eVYXg0Evvvgi6wg8L7t06cL3tGnTptGJEye0vQV3AetCd2hGTKKhT24Y1BuhUlRUpKgXpKJeePy6vAvq0OupyII69EiBBw5Yhi9xHurJ5s9Avj9r30NfnHFciYmJ/FnIq402traPvYuz2hnLvn37rJaXZ3HW93FVPWhvtL0nfd7hO/Xee+9x0AukVsP30Zfq1asraodWmTFjhrJz507tL7yTu+66i49p1apVWongSTp37sznozxBMRHz5P/+7/8kD7zgVKZPn87XYrVq1ZSNGzeaYixcyKucrSRxIDNrvuQ6WvC3UnyvS3B0l7Lq5cjiaOWmQGia77bJ17ssn/MDStqjFtt1/2ybPuwXjkH3qY+Ys0srMcd+n/filHXmPu0lyR5vud3yWM1w1Ofd6v4qucnFgfpGbWAf9+0vFwf6S9hcvPki9i1QIrB/7wzr9elYPYfF3HzzzRz0tzSOHz+ufPnll5xpZejQoUrbtm2VWrVq8feyXBD8DqlVJ0yYwCnC1M65VotgVHSfd0QTN+//lbU4q5+JRe8/o7+D3OH69VS5cmVlwIAByhdffHHR31guzvo+RqsHizv1RfPmzbnt3aEZx44da/U7lHdxRvtcopumYdYPprglzNXcvPz666+0fft2UsUWBQdbNdJyCjCDAZ9++qnV7+GsBaO/MM/HqC9Gh9HG1vbzxAKslfva4m7Umw2pN3T2kVFvKmxSjlgHakeCffI6dOjAPno5OTlUUFDAFhlqB4MaNSrNRtM7gF8+ePbZZ00zI4JnwAwArsGoqCibvu6WYJb+f//7H68FwVk8+eST7C4Gtww82+vWLbapPnToEK+LNq6iWflEgYMjKJxLrBFGUep2otU0e3kulxStT6R2EaHUeX4evzdRM4QixyZSLF6vyS9lgj2QQsLhQ55JWdusxHk4lktZy7XXDpKfD596ooiwEF6X4Fg2Zdnp8x7SNI7XGZuLj7skuZS9UntpD3WDqRnW+w7TYS4wo2gXbS/tOy3Louxj2msz8nKz1G9AFNe6Gfu4BzfqxuWrN+awD7wleZvV9lbXYWHBbEnhyDnEdaNfQ9aA6XzLli3pqaeeohkzZlBWVhb98ccf3L9cu3YtWyTBPejuu++mX375hTIyMtgyBBZuISEh3A9GfBlct9gXf4O/FYyHtT6fOxb9sxGb6N133yVVjLGPPKw8FixYwO6PsPSAha/l3/rDorePqxf8Lr/55huv04zAWnl5FkPleccMpXpMyvjx47US16HP8NtKj1eR40JKL9R/+eWXK59//rlT2sdZ7Qwk2rzzQKYGjNxjJBifZ74gdygsPNavX6/8+++/2l/4JgkJCXzMMTExWongbjCziXNw3XXXKWrHVCsVBOOwcOFCvkaR1hLpzlYNwr0ysNSZZRN6zvfAhOL0anpquabqe4tQ5abUbYNWaVHMrcwg67PQTeMvpC5jykgVV86Z97DxFpHXS0tFVxqmiPJRyqzd5jUV2k4VZ3W2/ICyoBP2t5V2zsrMu7qEj91QMiK8niquqXrMelV2pYqLVjL0+st1DhXlxx9/5O+C2XJngZSF6K+9+OKLitpJN2UEslxq1qzJfYkhQ4Yob775Js+uYpZfcC/uiDZfFrb6z0uWLGFrD/26ueGGG5QXXniBc5Cb46zvY7R6gLv0ha6zjKIZ7cUZ7WMo8Y7UDGic9PR0rcR1REdH82d9//33WsnFOHpcSN116aWXcv3Lly93Wvs4qx4g4t1xvv76a071FxkZqVSpUoU/Q18aN27MqSpw3pFqwt/Q00ChIyS4l4MHDyo33XQTt39GRoZWKgjuA/e8su57uH/iGu3Tp88F8WbTZF5HF54X0rsdSI8uNq0ODFGiRyUryVOTlYRBkUowl5nnV7cuaC/++3glupEqrAPDlXAWzGbp1sop3pVDGcViVf2b4E5xSoL63ZJHRSshallg2wRl1vhicV/moIVKYU6SEo7PpmAlclCC+j0TlLhOwep79XuyWA5Tkk2ZHm2J9+J0bnzMprr0Y45WksZHqeVWxHtT9XPwvRtFK/El2jjCYhDATKRToBLSK77kOVG/b8K6kteH/edQUd5//321Dtc/X9BB37ZtGw80jRw5kp9rdevW5c+2XGDG/9BDDynPP/+88u677yrffvutcu7cOa0mwdkYXbzrbNmyhd0lYUqvXys9e/bkiRzgrO9jtHqAu/TFK6+8wu1qFM1oL04V73jgOjqi4KyTPmLECG6czz77TCtxHcOHD+fPspUj25HjwihuUFAQ1w2fK+Cs9nFWPUDEu/3gnMLnpUePHhf5zgUHByv9+/fn0VbJdV7s49+wYUNumzlz5milgqv5+++/TfmPX375Za204rz++us8my8IZYHrBHE8nnzySa2kdAICAjgGiJ73O3Bssc90Wej7mwvTw1mzlLju4Zo4hMCMUGInpinbS8ymly5oC7YtUOK7hJgEZOSgWUr20QNWxHg5xTs4vEFJ7nfhuwW3iFWS0rOVw/+qAlHL327KeV4GhXmrzOoKVsL7JSkZuzH7jvfl8FNXKdisttlFx6x+3fRSxLta1wHzY9H+ZkOpH7BLyZgYq0RgUAD7NwhXomzsb985VJRnn32Wt69evVorcS+Io4PrfObMmSzM7rvvPr7m+RjNlkqVKvFAfq9evXhS6uOPP1Z++uknrRahIniLeNeBtoKVUWhoqOn6wCzuG2+8wXHGKoqzjstT7VMa9nyfUaNGcXsaRTPai1PFO0x/HQ1U5KyT/txzz3HjbNiwQStxHfpDACbtpVHe4/rrr7+UJk2acL2TJk3SSv37x2UPrqrH0Zv8r7/+ymIcohziHHXoC8Q7RDyEqQS3sc4333xj6tC8/fbbWqngKhC8pF27dtzesPpwFrm5uVwnzqU/WpEI9oOZUP0eCReisnjwwQd5XwTuMSaqaMXscYeSwdKMhz5oEF/sSuB0yh4IcCd6/+rUqVNaiTFAsKwVK1YoU6ZMYbcxfE/d+tJ8ufrqq9mVbuDAgSze0Nc9cuSIVotgD94m3s3BNdK1a1fT9VC1alUWhReCd5YfZx2XEdrHHHu+D6xi0I5G0Yz24oz2MVSquBo1avAaYf9dzZ9//slr/TOdweOPP86pSxCALDExUSsVjA7SeyDlB1L6IR0IguHoKduQkzgyMpJzZiO9DALfvP/++5x//fbbb9dqEMxBWo3ly5dTlSpVqH///vTmm29qWwRno4pqTkGpPrxowIABnMrGWSCNoSrEOL0X0nwJgiW4Ntq2bcupkxAobOPGjfy6LB544AFeI7Cip8hf2o2CGrejyRsvDq2Wt2QWB9EL79TMen5zd/LVZKrUsCUNWGIR1E3l+BepNGsZUeCgCGqGiHE+zN69e7l/hSBhqujRSo0BgmUhZRjSpiKA2bfffkv//vsvfffdd5Sens7BzJDKDgHNEKx2/vz53N9o164d1alTx2oqOwn86nvgGkHfaM+ePXyur7jiCn5mI00r+pkffvihtqdgD96uGSuEPrJhhJl3+AupX0mZOHGiVuI67r33Xv4sWyO45TkujLaiPlXAayUXcFb7OKse4M8z7/BHg98RAsm1bNmS9zFfEHgOAUbEXLhi6Ga0aFNzSxTBOezatYtTUKJ9YcLpKpA+Dp9hz4yq4F/AIgOzjLhGymOdgRl3/V7rMUw+6TBBL/bNhv93bItia6vALsnKdiNM8JqCwAUqIV0033n4vOtm7y3ilFWOdd3swDgz73AHwnlBalVvBqbSSGU3b948tpSKiIhQVFHPx2a5wLUkKiqK+yMffPAB3/P9HW+eeTcH3wVWcwsWLGBrDP2c33LLLexqARdEe3DWcRmxfcr6PnqQc6NoRntxRvsYSrzjxoTGgUmdK9F//HfeeadWYh17j0s390eESWs4q32cVQ/wN/Gek5PDD/8HHnhAueyyy7hcX+B/hHgLK1euZN9hwXkgOBUeRmjn2NhYrVSoKDC/Q0R5tCsCJbkSiDLk6MZSHoEm+AeO9hv0iMwVMRmtMIezlTRz32wI5LYX/NINQ8EBZdWMOCVKG1jAEtwiSombsUo54NKfpHHEe6NGjfi47RU13sZvv/2mfPrpp+wf3a9fP+Wee+5RrrzyStP51hdkMEKfBQEfp06dyv7//pRZxJfEu/n3gS913759S5xrvC/Lx9pZx+WseoC79IU+COwuzYg4Fs7AqeIdKS88HbAOddxxxx3cSIcPu+5R8c477/BnINiBLew5Lvg4oS587z/++EMrLYkz28cZ9QBfF+87d+7kiPA4N+bRPrEgoNpTTz2lLF261Gc7AkYCnRLdJxsdku3bt2tbBEfAKLN+Lc+aNUsrdS3wf3dUpAmCNfTnsDPjNAi+ySeffMLXCgLA+Rt6KruXXnpJ6d69uxISEmK6/5svGMyFBUxcXBwH2N28ebNPDrb6qnjXQZ8UM+/169c3nVtYiGKG3hrOOi5n1QPcqS/0QT13aEZM8jkDp4r3iuCsk446cINCI7nSDKJVq1b8GZgVtEVZx5Wamsr1IIiZK1LOWeKseoCviXcIi/nz5ytPPPGEUq9ePT4v+oKRaqR5wHZnHLfgGOik6+dk+vTpWqlgLwiQqAf6QiBFd0RYFQQdDOAgaI8zQfotDK6WNvAtCKBTp0583xNXtmJgbo3+K0SFnsrOst+jL0gf2rlzZ2XMmDEciBe/43//NZJZSfnwdfFuzrJly0zpd7HUrFlTGT16tPLjjz9qexirH67jTn2RlJTEbeMOzQgLXmfgk+L9999/5zQyV111Fb92NmlpaXwSkJezLGwdF0ys9R9UVlaWVmodZ7aPM+oB3i7ekbIFN7bBgwdfNBKNiK4PP/ywKQdkeW/ygutAXIsaNWrweYEQlVl4+4AVySWXXMLthvgayGwhCO4CKQP1+ys6/85Ct45Ch1QQrLFu3Tq+RuDyJthGT2UHi6xnnnmGRYe1VHZYMGOJvOMQPx999JHXTGz4k3jXgWsRJj8QnV4/f4haDx3irONyVj3Ane1z7Ngxt2jGyMhIQ7WP4cQ7FpiMoLFwY3EmMEe5/vrruW57RlBKO64tW7aYfJEQMKEsSqunvDirHuBt4h0jzWvWrOFO3t13381try/IqYqgL0hXZD4y7+hNXnAtSMWH37Z+/nBOJdaAdVatWsWuBmgnmEVK6j3BncDsVk9thJgHy5cv17Y4h/Pnz5tmDI2bNk7wJHh+4/qAiBccA5aJEHp6KjsEOrV0J8QCcdiiRQtlwIABPGAH6y6juRb6o3jXgWszBmYQ80A/Z5i8QuwDuD5XBG9uH3doRsQeMFL7mMQ7HtJG8HnX69Fv2Iiy6Swwcos6x48fr5XYxtpx4SZ48803cz32Rj21Vo8jOKse4A3iHT5bMIXRAxuZLxA0MANbu3YtC3tgWY+Id2ODgS/EH8A5gutJcnKytkXA4OKjjz5qut4RowGzKkYBHTvJ/+77PPLII3z9IaK8q2IeIOo2PsMf/ZkF2+jXhrUsPkLFQWwgxP5JSEjg37oeXNZyCQoKUjp06MDBmeEuigmsf/75R6vFvfizeDcHg1n4XejnCIMxyDqzdetWbY/y4e3t42rNaLT2MYl3I0SbN6/nwIEDyo033mhquIqAESmYPKCuHj16aKVlY3lcuFnps2CJiYlaadlY1uMozqoHGFG8wxxz2rRpSpcuXUqYB2EJDQ3lQCwI3AIzGWtYfh8R794BzPaqVKnC5wqzcBDx+oCMv4HRXQQl0q97PDzKijbrCZA2Tn5bvg/uycOHD9feuQ5YTuF6gpAQBIBZLz2jhrmPr+Ba0G/Kzs42pbJDsNk6deqYnknmCwbfMciMPvr777+v/PDDD1otrkPEe0lgsYS0xzfccIPpvGDCCy6K5cHb28fVmtFo7WNY8Q7gD4tgG2hA5LrEySkvSKOBXJl6HeXB8vvATx71YBasPFjW4yjOqgcY4eaDmw4eEBg9tHw44EeINBkIyPLzzz9rf2Eby+8j4t17wKwyLCn0NH4w0UU2CH/ptEG06BH5sbRu3Zr9EI2Mnv/dHeJO8G22bdvG1xJm+I4cOaKVCv6MPquIuAiC54E/MWZ7McHSv39/j6WyE/FeEvN6EJDQ3FIVgh4z0fb0oZ31fYCn2seVmtFo7WNo8Q4OHjzI5jpoSARssoy0WBobNmwoMYMVHx+vbbEf8++DmxXqgf9febF2XI7grHqAJ35cSOWQnp6uDBw4UGnQoIHp3GC59tprlW7durE/j63I/baw/D4i3r0PRJ3GrG7t2rVN1wZGQBE05L///tP28g0QhAY52hFx2/xYkRbJG4DJvP6gdLYvtOB+XGUWby96gNHyDrILvoceIBFR5gVjg/54RkYGZ4rCLCWsJPXnmfmCPl6bNm04yPCcOXPYosyRwKsi3ktirR64NcCE3jyuAfzB169fr+1xMc76PsCT7eMqzWi09qmEL3P55ZfT559/TmpHjG6++Wb1e5ePs2fP8hr1VARb9ag3c0pKSqI///yT3999990UHh5ODRs2JPWmQGrHnvLz8+mHH37gY/n55595v3vvvZdUMUDqQ4Dflwf9++Dv1Y4FtWzZkjZu3Fju43RH+5SXn376iW655RbtnWOU9X3+/vtvbi99+fbbb7UtxX/Ttm1bXu677z665557nN4+p06domuuuYbUmzx/vuBdpKam0jvvvENffPEFv69atSqpHXt65JFH6KGHHnLK78Dd4P60YsUKUsUubdu2jctwXE8++ST169ePmjVrxmXeAn7T+H3hPHXt2lUrFbwNnL/nnnuOpk+fzteip3j00Ufpo48+ohdffJGfu4L/oXaiqX379nTdddfR119/7VCfVPAs6It9//33Fy2HDh3S9rgAdEejRo14ueOOO0yvL7vsMm2Pkjjar/O2/rO92Krn+PHj9Pbbb3NfateuXVyGPkZsbCz179+fAgICuAz4Wvs4WzMarX0qnT59GqMT/IPAl7riiiu0TfZz/vx5XqOeilBWPWg8XITLli2j7OxsrfRiqlSpQv/3f//HF+fDDz+slZYffJ+ZM2fSmDFjuKHXrVtHN9xwg7bVftzVPuUBN9F69epp7xzD2vfBj0BfvvzyS620GPxwcMNt06YNnx/971zVPrima9WqJeLdy9m+fTu999579MEHH9DBgwe5DA/2Bx98kDt5GAC68847udxonDx5kv73v/9xh3T9+vW0e/dubQtRZGQk9ejRg6Kjo0vtqHgD6CBUr15deyd4Ezh3EO0Q79WqVeMOjyfFOzpaeE7s27ePFi1aRH369NG2CP7A/v37uW/w+++/8yAOBmoF3wG/b13IQzTprwsKCrQ9LmAu5PWlQYMGJvGOfiT65PbiDf1nR7C3nlWrVvE9FZMHQJ806Nu3LzVu3Ngn2weaccGCBfThhx+WqRkh1nv27FmqZjRa+1RChHl3XTxlUZ568GPfsWMHd4afffZZFtfjx4/nUZW77rqLfvnlF7rxxhu1vR0jPT2dZ8Nwo8BNIiwsTNtSPjzRPmXhjPbB9/nmm29o06ZNJsFeVFSkbSUWVHgQ6wva0Rquah/c5GvWrCni3YfANbZy5Up+EO3Zs0crJapTpw53+mHBgd9/06ZNeeDG3ezcuZMHGzBj9NVXX/Fap3LlyvyAgNUAOqX4zoLgKWA1gecb1k2aNGEBj9+Np8HvBh3zf//9l9asWUMdO3bUtgi+DAaSMBiLPkVKSgqNGDFC2yL4OhiU14W8vkDc4x5gzlVXXUUhISH8XEWff9asWSzy7XmWGrH/DNytC/bu3cv3eiz6rDQmQiDiYfnkq+1z4sQJm5qxLIx2/ZjM5iuCs8wJHKlHH4WDOMQMl05FzRIwS/bAAw/w64p2IDzZPqXhaPvgwkc7QwxjOXbsmLaFuD4IZd0c/vrrr9e22MZV7aNfGyLefROI96ysLL4eN2/ezCZQ5sBKBg/6W2+9la9NmOdhtBPXJR72jsx2o4N5+PBh+u233/gGnJeXx7OEP/74I5ul6degDgYTcG/C76Fdu3ZO+e0KgjPQXR7g7oAZdyNZT8CtBC4ymBFZu3Yti3nBd1H7odzHwr181KhRNHXqVG2L4M+YC3n9NawzLAkMDLxolh4LxL6OEfrP5riq32sviqKYTOpzcnK4rH79+mxSj6UikwtGbp/SNGNZGO36EfFuBYzORERE0F9//cUXNszvK4In26c07G0fmHeYi3XdLwTUrl2b2x2iBOIEIskRXNU+It79Cwho+JFj5hu/YTzo//jjD23rxeDagGC5+uqr6corr2SXoUsvvZQqVarEo6wY9S8sLKR//vmHzd9xP7CcCdDB32AGAOZnsNDBSC6Eu3nnwV+AKES7iq+q8cH93KjnCTND/TTLN5h64lkj+B6nT59mU1W4Fj3zzDM0d+5cbYsgXAwG6YOCgui2227jAR9d3FsO3gOY2etC/vbbb+dntDOsi3xBvJuDyY/58+fTkiVLtBLimXiI+NatW2sl9iPi3TZOFe+YUULwAvMABvbiyYvQ2eIds2oQ7pjVQ5A6+AN64ris4Y6LB9eBLtSx4MaoAyFiPrOOGyIwavuIeBcg3jEzfuDAATbN+/XXX/k3jnKYjOF6x3Vi7u5hDkyk4BuG6whBTuCGgVF+zOpjFj84OJh/R+hIOMOcytuBcMfgBTpIubm5WqkgOAb8FQcOHMj9Evgtdu7cWdsi+AJHjhyhxx57jIOS4jzPmzdP2yII1imtXwfxrs/Omy8YfDcHFne6oDdfymPG7GviHaAe9IsWL17Mk5boMwEE6sYEJoS8vYh4t41TxTt8SY0cbb40nCneEX0Qwh0+3DDdQqRC4InjsoYrLp5z586VEOvwNzQH7aqLdUvTRaMdl2U9It4Fe8FMO0w38XuAORlm4PGQd8Zvzd+AGfbHH39Mw4cPZ3NswfNgFht4Mhido6AziVkgsHDhQq88BuFivvvuO+rVqxe7Gw0dOpRmzJihbRGE0ilvvw6D9xDxsMbDDD1cP7G2pEaNGlZFPQbtLfFV8Q70ejBYChEPtyWAiQtdxJdlZSvi3TbOaB/D53kvCz3no3oitJJiHMmj99hjj3FdakeB33vyuKzhrHqys7M5h2H79u0VVaSY8hpiad68uTJy5Ehl1apVyj///KP9hXWMdlyW9Uied0FwP+b531WxpZUKnuLZZ5/lc4FzgnPjjaxYsUKpUqUKH8eECRO0UsFb+eijjxS1Ay3nUyg3zsjzrgoxZfv27crixYs5D3hkZKRy4403cr2WC8qxHfthf/zdnj17uJ6KYNlfdRRX17Njxw5l2LBhStWqVU1t0rVrV2XlypXaHhfjyTzvlljWU5pmLAtnfR/gV3neS8NZM+9xcXE0Z84c9qFBgDrgyeOyhqP1IAK2+ew6oi7qwNxXn1nHSCb82O3F6O0jM++C4Bl083n4viOon6SScz/wZ0f0YJwLPNuRessI0eQdBRGme/fuzS5tjz/+OPtoIl6F4F1MmTKFxo0bx69hJg9zeUGwF0f7dfb0MxHXxtLsHrP0KLckNDT0oll6RC63F6P3ny2BayFm4hHkDnGFANpAD3CHVKM6MvNuG2e0j8vEOwI9bdmyRXtnHzBZBUipZC/4HORLRqobcxNN5Am1N9o5ch/CrBA/PNSB4FXA2vfBNgSiKg+uughLA51lc7GOyNg68NWFUEfgDuSYRnRJR3H3cZWFZT0i3gXBc+CeCtEOM3rB/eBZjjgPSEuonwtvB51omG7CLQOmmxhwR8BUwfjAn3bw4MGUkZHB1yZEAPoiglAeXCneSwOZZcwFPdIZwhzfWio7czGv56pHgD1LjN5/tgWycUHIv//++/weGkkX8XfffbdD4tRSMzqiB61hWU9pmrEsHP0+1jSjU8U7ZmMRbdlZAesQ+RnRHX0NdBhwbOXB1T+uo0ePlhDr5t8Po2HmM+vIvQ6MPDLmKJb1iHgXBMFfgWBHQEbktPU1XnrpJXrxxRf5NXL1Tpw4kV8LxgSdfFyHCCqGFIBvvvkm1apVS9sqCPbjCfFuid5/Nk9hhwXvIeotQdo1c1GPBVoCwXCN2n+2BwwO67Px+iQhtMZDDz1EI0aM4Pf24k+a0anivSJYO+mI5Dxz5kztnX0gYBxAsCh7wWfDDAtWA+aBbAoKCjgAhS0QKGXZsmX8efjbunXraluKsfZ9ELRhyJAh2jv7cPaPC99LF+ow+4A5oQ6+qy7UsUakSGuIeBcEQRC8lU8//ZSGDRtGe/fu5ZkN5AaHKaRgHDDbPmbMGFPAxOTkZIqPj+fXguAIRhLv1kB0e3NBry/WUtmhDktRj6U8GKUf/u6777KI188JrHwxEw9LKeizsrDUjI7oQWtY1oPjtKYZy8LR72NNMxpavDuCI/XoP+Ty+rwjojwiy+OELF++3Kppp1F+FADf97PPPmP3Brw2p0WLFiaxjgVRsstCxLsgCIJvYOR87a5E7b+wGJw9eza/R9TySZMmlfC/FDwDXBoSExN5IgX9Egj3Zs2aaVsFwTGMLt5Lw1oqO8zU//3339oexcAs25qgL00AG60fvnXrVjZHx8Sobmres2dPFvLt27fn9/bgal3g7T7vpmjzFQF1eKoeR6LN7969WwkKCuK/e+utt7TSi/HkcX3zzTdKSkqK8tBDDylXXXWVKcojFvWHrAwZMkTJyMhQ/vrrL+0vyoeRo0E6imU9Em1eEIxDbm4uR6n11ojnRgXR5KtXr87t66+sWbNGadq0Kd/va9asqbzxxhvaFsHd4Fy0bNmSz0VAQIAybdo0bYsgVBxnRJuvKM7sP+/bt09Zvny5MmnSJOXxxx9X7rjjDj4+ywX3+FatWinPPPOMMmvWLM4QduzYMacdl7PqAWgfPOehYUJDQ03H0KxZM2X27NlKYWGhtmfpuOq4fCXavEm8o6HtaVBrOOugHKmnvOL9zz//VJo0acJ/gx+LLdx5XD/++CMPJPTs2VOpU6eO6WLHcvPNNytPPvmkkpqaqvz000/aX1QMEe+CILgTpODE7xH3MqHiILWrLlhvuukmvxbvOq+++qoppVzjxo2Vd999V9siuJqcnBzl0Ucf5bbH0r9/f+XQoUPaVkFwDr4m3q1x9uxZvp8vWbJEGTNmjNK5c2dT+lXLpW7dusqDDz6ojBo1Slm0aBFP/DlynK5sH6T6xMC9/p2Rdm748OGchq40nPV9LOvxOfGOURx/yPPeoUMH3n/o0KFaSem48rh+//13JS0tTRkwYIByyy23mC5qLJg5QM55jFDt2rVL+wvjXTzO+j6uqkfEuyAYBwwQ6wOnkv+9YmCmBjMxaMtHHnlErBnMOHz4MFum6c/Tu+66S0S8C8nOzlZ69Ohham8IiU2bNmlbBcG5+IN4Lw1Y2uK3NWfOHGXw4MFKmzZtlGuvvdb02zNfQkJClO7duysvvfQSW+ligtAW7mgf5MdHvvzrrrvO9D07deqkLFu2TNvjAs76Ppb1iHg3w1kH5Ug95RHvMTExvC9MU+zBmccF85aPP/6YTRz1Dqy+wLSsY8eOPGuwZcsW7a8uxlnfB4h4FwTB3WA2oVq1an5v5l1RMPiBe9v06dO1EsGSH374ga089OcszFExIH7u3DltD6EifPLJJzwjqLcvhARm2ATBlfizeLcG6oBF7urVq5WpU6cqffr0YfP0yy+/3PTb1Jcrr7xSueeee9gqBu4s69at44lEvR53tc/58+eVBQsWKOHh4abvhknMyZMnK/n5+byPM9vHvB4R72Y466Acqcde8f7cc8/xfm3bttVKyqYix4WLc8OGDUpiYqLJ/8t8ge/K+PHjeR/saw8V+T6WiHgXBMETiPB0DjL4YR87d+5UnnrqKdOzFzNVMDE1t2oT7OPUqVPKjBkzTO4aWGDNKKJdcBci3ktiqx4MYL7//vusNeDS0rBhQ9Pv1nypXbs2t2dcXJwyb948tqZBOztKedoHlgS6S52+4D20kSvax1fEuynaPKKYI5qhIxFrXRUV0B7siTb/yiuv0NixY+mOO+7g6JT25hct7/dBlEXUry/634MmTZpwdHv1B8KRV6+++mpti/04q52BM6IdevK8W8OyHok2LwjGBPdq/C4FwV0cOnSI3nrrLVI7p3T06FEue+CBBygmJoajITvjueqrqB1pSk9P53RQ+nP2iSeeoKeffppatWrF7wXBHXhrtHlLPNV/Pn369EVR77EcPnxY2+MCOEbziPfQUFhXqlRJ28M6jrTPkSNHOGc8lgMHDnBZeHg4R6nH4iil6QJLzVgWRrt+TOL9xIkTdMUVV1BAQIC2yX48dRGCssQ78g7ixEOw44eOi89eyvo+yBOvC3Usf/31l7aFqEGDBizScYPBwy0wMNAj7VMaIt4FQRCMz0svvUSPPPIINW3aVCsRKgryji9atMjUZ6hSpQo99thj1K1bN25rgWjLli2UmZlJGRkZ3F8A6Nf06dOH8yPXq1ePywTBnYh4L4mz6vn11185dd2ePXtMgh7v0d7mIM+5uaDXF/OJ34q2z4cffkjz58+ndevW8XvkSke+eGi5W2+9lcvspTRd4PXiHWkKyhpFKQtFgRWCWpkH6vnnn394Vvuee+7hkWGdwsJCysnJoaeeeorfY8QY+dDLg+X3+f333+mrr74yLXivg8EB1H/vvffy2vxC9mT7lAbaBx2WimC047KsR782RLwLguBtHD9+nB599FHuYJS3oyHYx86dO2np0qX0/vvvm2Z7YBXXuXNnioyMpI4dO9ptqecLfPrpp7RmzRpatWoV7d+/n8swofP444+zdQLaQxA8iS6+0NdOS0vTSstG+s+2Ka2eX375hfbu3XvRYgnOCYR1w4YNKTg4mCdK8b5GjRraHuUD3wcDCRDyyBkPiwHQoUMH6t69O1sy24PlcZWmGcvCWe0MnHH9mGbeK4InR5BKG0XBiHHv3r35hL/33nv88Ckv+fn57E6wefNmFn+YadepWrWqaWYd67CwMG3LxXiyfUpDZt4FQTAKEKqgevXqvPZ38CyDcEe74Nn20UcfSdu4GDzrly9fTitWrKC8vDyttNh0U3/Wt27d2iHrRKPyzTff0KZNm/j5CNN4vYOMjuXDDz9MXbt2paioKKf0OQTBGTjar5P+s23KU8+5c+dKmNzry8GDB7U9LlC3bl2rM/Ww9LaF+fcpKipic3pYUm/fvp3LQ0NDTSb11apV4zJrWB6Xz8y8+6J4//nnn/khCzOQGTNm0NChQ7m8LPD5uBlgQV0wGzPHXKyjfnvxZPuUhoh3QRCMAO7XuKfCLBziyd9Be2DmAkyYMIFefPFFfi24D8SvwQw0zDazs7O10mIg5jHrh5mb5s2bl9uM01PApxRi/euvv+a+DSwTCwoKtK3EM2aIAYDZdVgdXHLJJdoWQTAOIt5LYqR6MNgMEY/zgvuNLur//PNPbY8L3H777RcJ+ttuu03bWvr3Wb9+PQt5WEuBypUrm0T83XffzWXmWNbjc+IdjY4RZW/3ecfIMTqCePgmJibSpEmTtD2t8+WXX/Lf6aL9/Pnz2haiu+66i9q0aUPt27fnG4WjZg6ebJ/SEPEuCIJRgHDfsWMHTZ8+nZ599lmt1H9BG2DWE/cuwbOg44k+Ambmv/jiC8rNzdW2FINZn8aNG3PnMyQkhDugEML169fX9nAv6DTv27ePTVt3797NFoNwD0DAPnMQoBjxeNDHwXXmLYMQgn8j4r0kRqsHWLYP7j26kIcfvf5a1Z/aHsVAY+lCHvdSmN6jb3D99ddre1wAs/z6bPxvv/3GZdB+EPEIQqpTmi7wGfHuK9Hmu3TpQp988gn7Z8GXzRJ0EM3F+smTJ7UtxBcLbgj6DLtuiuGJ47KG0S4eox2XZT0i3gXBO8BsMx7SCJwKcSTB2QSjgmsUM9eYwYYJJ65X3V/eHAR2Qp8Kgd1gOoqgtXXq1GEf+muvvZbdIPB8uuqqq+jKK69kM9LLLruMZ7zhV4mJBJinooMLs1H4aqK/gs9HcFwMKkCow70P8XfQQUaH9u+//9a+wQUQ8Am/qWbNmrG1AKwGHOnrCYKnEfFeEqPVA+xtHwwu6kJeX6z50+OeqYt68wXXAUBMM4h4/Xq44YYbWMQjyF1QUBCXWeoCEe8qnrx4zE8EGgMnEDMWycnJ/B4PVV2oYzEPMoeHqrlY100VdYz2ozDaxWP09hHxLggu4lw+5SxJpozqIyn50UCt0H7yl6t/d7wbjewdToGVi8vg1w0/bzyDIIj8xccbAxcipLwbCGo9UvOPP/7Iwd7Q98C51eM5uBqIf/ThMOOPZztm0mGaCt9QDB4Igi8g4r0kRqsHVKR9EMwNIv7bb7/le6ou8M21mw7udeZiHkDLYkYeA5+gR48e1K9fP1OwTRHvZnjy4tFPxI033shREeHzMHz4cI6WCv8u81EcRD00F+swdbOF0X4URrt4jN4+It4FwckU5VPW/ESa/HIqZeUTRaUfpoxeZuI9P4fS56fSrMWplLOfKLBRBHXuk0BJz0WYRDrIX9qNgqIz1R1CKHpEMiUNjKRgVavrJvOvv/46r30ZiDp0KiDwcH+SgHS+CYQ9zDoxQ/7HH39wjnnMnKMcQh8z6LgWUA63P7guYpYcM/Dw58TzDOakmJ1HJHxYBGLm/rrrrqPatWvzjD7MSjGrLwi+joj3khitHuCK9sG903yGXl9wPZiD+yasqDGYibhn+DsAqyPMxiNSPe6bIt5VPHnx6D9kgJMFEzMdmKCZi3UEmikPnjwuaxjt4jF6+4h4FwQncTyPVquifeS0dNqtinZqEEVJUxMprksYVddEedG3KdSt00hanR9IIb1iKDYsiA7nplLa0t2U3yKJstcnUHjV4n3p3HHKXTmbkkYnUiZnpAqmqInJlDgoisJq8h4+DWYVYGUA4Y60NehEiHj3XXB+YdKO843XWGOxBp5VeGYJgnAxIt5LYrR6gDvbBxZO1kS9ntrNEgyIYlYeMc22bdumlZaN0drHJN4xCgzx660B63T0tC4wGUPQApwoR/HkcVnDaBeP0dtHxLsgVJBjuZQ5N4lGvpBJSJ4V2CiaRk5NothOwVRCahbl0OTwlpT4bTglrFtNSR0ubM1bGkMto9OJBq2i3XMiS/4dHae8NamUODqZ0r/HqEAwRY5KoMQRsRRefmt8r+CNN94wWRjASswfrAz8AcyeI6YOBmbwuiyRbo3yzgYJgr8h4r0kRqsHeLp9/vvvP5OIxz0Z5ve4L5ub3nv7zLspFwhMsXwhfylSnEyePJmjqFZEuAuCIPgrRb9m0eyn2lFQrWbUTRXuhW1jaVbWYcrbmUbxlsJd5TgE+LequB+bRIlmwh0E95pNs/sR5c+dTRk8y25OdQruFE9pO/PocNYsim1bSKtfG0Atg4Ko3VOzKevXIm0/3wH+/HjeIi2eCHffAZYTmO3BeUV6P128lwdJCygIglAxECwUFm2YwIWZPKzKzdNiAgwCeTM+k8gT/uvw+Ro/fjw98cQTPPIiCIIglJccSqnXjobMzyLSRPvhrAUU1zaQrA/vFtH2nFR+FRsZYWWf6hTWNkpdr6asXMyuWyOAAtvG0QL+LIh4oqz5Q6hdvck04KWXtH18Awh2zAIgsKrgW2A2EKIdM4KY2SkP2F/M5QVBECpORkYGderUiTNrzJ07l601xo0bx2kzAeKHeDM+I94RwOWrr77iB2BaWhp169aNTSYEQRAEBzlaSMfzd9HuY9p7qxynfJ5gDKHdK1Io5bWLl8yc4hn09D0wvrfBsd20K/84FR7V3tMqSn3xRZ+akcQMrUSX9210EY9ZeMz62IPMuguCIDjOsWPH6NVXX6WGDRvSY489RmvXrmVX6nnz5nHAUFhl23s/Njom8Q4fLeQS9WbQIcID8+mnn2bh3qJFC/rwww+1rYIgCELZhFPC0V20akYcNStKp8TodhRaK4hCHx5Cs9fspuOlPiZ2U+ZrI2nkaCvL3NXaPlYoOk6718ymIQ+HUlCtUGoXnUjpRc0obsYq2rI/i03MX3rppXL5pxkBPFPxvbEW/BNYV8B0fuHChSVi81jyyCOPyKy7IAiCA2DiduDAgRxF/vnnn+dUnX369KFNmzZxv6Fv377anr6DSbzDqR8jE77Am2++SQkJCfTPP/+wv0NSUpK2RRAEQSiTmiEUOXQWrdpXSAW7V9GsQc2oaKUqsCNDqUaV+tR5cAqlf5VPxTq+OgXyRHIUpeUp7Pdb6jJez/hRRPnfZtLswZ2pfpUaFBo5hGavLKJmg9TP3F1AhfvUzxwaSffcUp3zvwNEZ/cWIQyzeAROxWyq+LX7N7gWEKTw5MmTnMbIGnKNCIIglI93332Xn7OYXV+wYAGnDJ84cSIHplu0aBG1bt1a29P38BmzeUv69etHa9asKeEHryftFwRBEOwhgKrfHklxc1bRgcLDlJ2eRLEtiFbPHUkx4UEUsxQDvgEUGgaf9kzKyrVPXOcvjaGgsG40BDPyLWIpKT2bDhceoFVz4ijy9uol/OYxIzlhwgQW7nqUdiPzzjvvcIcCog0j/t7wnQXXYH4tYHbdWrpaXCPiRiEIglA2yN0Oi7Z69epR7969eWa9Xbt2lJ6ezlZO0HtBQUHa3r6Lz4p30LFjR8rJyTH5wcOMXvzgBUEQHCAgkMJ7JdCCnANUeCib0iZGUw0toUdglziKDyRKHRxH6ZYBts/lUXqfIKrUsCUlrtds7ivXoOiJaZR9qJAO5CyghF7hFGgj2QlmsKdPn85iyMjg+2HgGFYGMJXGe8nf7r9AtOvXAixIkFvYEvF1FwRBsA1EOsQ6RDvumYcPH2YX6a1bt9Jnn31GvXr10vb0D3xavIPg4GCTH/w333wjfvCCIAgVJKBuOEWPT6MF3bVk7FUjKGl5EkVQOsUE16eW/UcWB6sbPYBahtSnmCX5FNx6JMV2KFbogd0XUNr4aAqva0OxW+ANM9jwccZMKp45Tz75pFYq+CvoZJpfC5Yz7DLrLgiCUDowh4fFEiyYYCZ/22230dSpU+no0aPsIn333Xdre/oXlU6fPq3ADws575B8/oorrtA22c/58+d5XZo/l704Ug++d61atdi3Yf369Vop0aFDh3iExpyZM2fSqFGj+DXMMMeOHcuvS8OTx2UNZ9UDrLVPeTF6++jXBsxukbpHEAQXk59FsyfOprT1mZTDOd2DKbx7JMX0i6cYK/nhBcGfgJBHJ1QnLy9PxLsglAP06xD8sU2bNrRu3TqttGyk/2wbI7XPTz/9RG+//TZbrv35559chrRvGASF+1F5KE0XWGrGsjDa9XNJpUqVCAt+DAEBAfza2xZgT9mwYcNo5cqVHJEQPhP9+vXjfPCW+/nDYq19fHERBMGNBEZQ3JwMyt6nB6k7QNkfzKI4HxTu8MGXSPICwHWA/kRZ10PTpk21V0TDhw8X4S4IFcBan88diyc/2xsWR9sHYjo6OpruuOMOSklJ4QxoQ4YMYatpuB3Bss3a35V3cfT7OWtxyuefOXNGwYx7RTh79iyvPVGPPgoHv3aMautg5OaWW27R3pUEo9140H7++efUvHlzHt1p1KiRtvUCnjwuazirHmCrfezF6O2jXxsy8y4IvoUulpo0aeIRn2H4MuPzIcbgzyz4L+hU4lrANQmLvrKuR8RAwMDWwYMHJR6CIJQTR/t10n+2jafap7CwkFJTU3nBcxXguY57KmbakSq2IpSmCyw1Y1kY7fqp+Py/FyJ+8IIgCN4NOm6eyP+OwV49gjhEmOCfQKw/99xzphSG9gh3gAEf/J0Id0EQ/BUED0ccG1hCDx06lJ+n3bp1o9WrV/PrQYMGUZUqVbS9BUtM4h0PH5go+BMIdoAIxpIPXhAEwXuA8DHP/44UMe4AogszAubR5AX/BLnZsdx0002Um5trtwUIZgwlfaAgCP4IntsPPfQQNW7cmN544w2OszZmzBjau3cvT6LCt10oG5N437FjB+XnI2evf4GHqOSDFwRB8C4ggjD4ioFnCHhXg8/BbD/EGmb7JZq8fwOxjtl2zBKZ+7KXBfocMusuCIK/UFBQQMnJyRQSEsLP6lWrVtG9995L8+fP56jxr7zyCjVs2FDbW7AHvzSbt0TywQuCIHgfEEKIPouZcIhrVwLBhZn28oo1wXeBgC+vEBfhLgiCP7Bt2zZ65pln2DQemb727NlDMTExPAj+1Vdf0YABAzj4mlB+RLxrWPODz8zM1LYKgiAIRkQX1O4QRRDtIr78D/QNXD04JAiC4At88skn1L59e7rnnnvorbfeosDAQLZSQoo05GqH1ZxQMUS8W2DuB9+rVy+aMmWKtkUQBEEwGq4Q0/ChRzA8QcB1gACFiHUgCIIgXMzhw4c5bhjSX8IibsOGDWzNvGTJEhbtsFKqW7eutrdQUUziHTMKGB3xNmCWAXbv3u20kXHdDx6mHrjgxA9eEATBP0BAnbCwML73uzuSvWAcMIAD0Y7rAOmKkJddEARBuMDmzZs5/sv111/PccOQAhMBwOGKjOcn9JORcIVm9AQm8Y6HU0BAgPbOO0CgA/3C+OOPP6hv37782hnADx4XZZs2bcQPXhAEwYtwVHSbp/6CBZaY9/kncMPAAA6uI8RUgJCXa0EQBKEYZFtp1aoVa6RFixZRgwYN2FIZugxraCaj4UrN6G682mz+8ccfZ1ONadOm8Qj5ihUrOHWLs4D5x/r16yUfvCAIgpcAyyk8D/RUcvaC2b++4wUAAGwcSURBVAPz1F+oR/BPYImI6wADOLiOJM6BIAj+Tl5eHiUmJrKVdv/+/enLL7/kic5ly5bRvn376Pnnn6eaNWtqexsPV2tGd+K14h1+aIhYiAsHsyW4eJDuDRENdbMIZyH54AVBELwDPYUbfJTLk/8dYh0j8RJNXgC4DmQARxAEfweTmD179qT69evT5MmT6cSJExQXF8eD3HAxfuyxx7Q9jYs7NaM7MIl3mAkWFRVp74wNRnsmTpxIN9xwAy1dupTLrrvuOsrIyKDz58+z2ePJkye53FnofvCSD14QBMG4QHg7kv8df4fI9TLL6n94s++jIAiCs/n3339p7ty5dNddd9EDDzxA77//PjVq1IifrTA/nzVrltcMcmdnZ5epGb3tGWAS7zt27KD8/HztnXH5888/qVu3bnTJJZfQ8uXLS3S07rvvPnrhhRfot99+c8mIueSDFwRBMD64/8NXubTZUxFrAtAHeCSSvCAIQnEgt5EjR1KtWrVo8ODB7DLctWtXWrlyJe3cuZOfp1WrVtX2Nj7QjDCXL0szIruYN+FVZvOKorDZ+pEjR2jq1Kl09913a1sugBMBX4ZNmzbxCJGzsZYPXvzgBUEQjAVm0SHgLcU77t+4j2O74L/o1wF82uHLKQM6giD4K6tWrWLz99DQUEpJSaFKlSqxiIeYh+h96KGHtD29B2hGiHIEpytLM65du9YlmtFVeJV4h9mDuc+CNXDBwZcBQRNGjx7tMl8G8YMXBEEwLhhhhzBD4FEdPWc3hJqINf/F/DqYMGECW2iIu4QgCP7EqVOnWMfAHD4qKopn12EmD3N5mMa/9tprdPvtt2t7ex/QjJ9//jmb/ZelGeES7UrN6Gy8Rrxb83MvDfgyzJ492+W+DJjRET94QRAEY4NnAMSanrMbg8DWzOkF/wAzSYgmj+sA14QgCIK/gEBzCDgH0/gRI0bQDz/8QD169GA9A/H6zDPPUOXKlbW9vRNdMyL//JIlS7RS63ij/3ul06dPK/AFwAjM5ZdfTldccYW2yX5wwAD1VITS6vnrr784MALWMHXDyFBZHDp0iHMPYkYcoy5ICVBe7D0uRDQeOHAg54Vv1qwZzZ8/n+644w5tq+vbxxHQPvXq1dPeOYbRjsuyHlzTuDkhPy86aYIg+CeYWcV9AM8RSf0l4JmNa0CuA0HwLtCvu+aaazi/+Lp167TSspH+M7FAhbsYoscDTDwi5RsytOjH4wvtY64Z0fdv3ry5XfVAL5amGY12/VwCkwEs+DEEBATwayMtQPdZQOJ/+CxY289yAchHiOBy+IHPnDnT6n7OWOA399lnn7GA3759O99UMLJvbV+jLMBaua8tgiAIumjHqDrWgn8DVwoR7oLg3Vjr87lj8eRnl3c5duwYm7/Dlz0mJoaFOwK1LViwgH755Re2PML90NrfOrp4sn2AuWbEZK+1/awt7tKMwFp5eRY6c+aMUlFQh6vqUS8sRT1OpWPHjlqJfezfv5/X6oWr1KlTR6lcubKydetWLrMXR45r+vTp/H2xTJo0icscqccazqoH6O1TEYx2XJb1nDx5ks/D/fffr5UIguCv5OXlKdWqVVNU0abk5uZqpYIvg/P87LPPau8EQfB2HO3XOaufCbyh/5ydna3079/fpEewPPnkk8oXX3yh7VESZ30f4Mn2sdSM5a2nNM3o6PexhjPap+Lz/y6kPH7upeFuXwbxgxcEQfAcMJG3Fkkeswuvv/46PwOQGswb/NoEx3njjTcoLCyMzznc7QRBEHwd+Hdj9rhly5b09ttv83MPpuCHDx+mhQsX8qy7r+KNmtFRTOIdX7CoqEh753ls5XMvL+7O5WeZD75169YcEEIQBEFwHbpgQ2RZaw9d+Pb17duXBX5p0WcF7wbnHcEJMZCO4IToPyDegSAIgi8CH2pkzahbty716dOHU2W3b9+e3nvvPU6DmZCQQIGBgdrevok3a0ZHMIn3HTt2UH5+vvbOsyh25HMvL+7O5WeeDx5+8BDwkg9eEATB+UCwYZRcF2yYYSjt4Y2Z2CZNmvAD3qij6oLjdO3alZ+9GDzHIA3eC4Ig+BpZWVk8GN2gQQOecYafNyLFf/311+zb/vjjj2t7+ja+oBnLiyHN5nERIkKgrXzu5QUO/p7I5Yd88MnJyZIPXhAEwUVgZhWB6CDKyxJsEPUwq8d+FRmdF4wJzi1moSDgzXP8C4IgeDsw50ZGq3vvvZfatWvHs+vIxQ6dAfGOHO2Iru5PuEMzYkDESBhOvGdnZ1fYZ6E0POXLMHToUFq5cqX4wQuCILgAzLgPHz6cBbk9gg3R50XY+SY4r4igLAiC4Cvs3buXxowZw+mPn3rqKdq6dSs99NBDbNELy+n4+Hi/HIx2hp97aZhrRky+GslSz1DiHT4LMPNwhs9CaXjKlwF5A7/66iuTH3yLFi3o+++/17YKgiAIjgJfdpjDC/6FBKITBMGXWb16Nfty33bbbWwS/u+///JgNfQDJgW7dOmi7el/ONPPvTR0zfj7779T7969tVLPYxLvmInwZEAD+Czoufmc5bNQGp7yZcCMgO4H/80337CAFz94QRAE+3HV6Lf4v3sPOFewnsNzXAZtBEHwJU6fPk0zZsxgN7DOnTtTZmYmB2KdNWsWHT16lHXLHXfcoe3tn7jCz700oBn1/O9G8X83iXcE+QkICNDeuR+YPXz++ec8Q+3qKMCe8n/XgR88LgDxgxcEQbAfRJNHMFCYxzsT+EnXqFHD6fUKzgfnCB1ZPcaBRJIXBMEX+O6779j9C6bxWOM9NAImGhH4Oi4ujq644gptb//GFX7upQHNCJP82rVre0QzWsMQZvO6z8L111/POQrdgadz+Uk+eEEQBPvA/Rm52XHfxIi7s+/XurmdkfO6CsWDLBDuP//8synGAawGBUEQvBXMrGOGHYORmHG/6qqraOzYsbR//3764IMP6MEHH9T2FIAr/dxLA5rx/fffN0z+d4+Ld3OfBcyGuzPggqdz+WHESPzgBUEQSgcCDebREG56NHlnz7YiOj3EIEQhBgkEY4LzftNNN7F/o5jLC4Lgrfz111+UkpLCvuzQQPBtDw8PpwULFrD78Msvv0y33HKLtreg4w4/99Jo2bKlRzWjOSbxjlGEoqIi7Z17sPRZuOuuu7Qt7sNT/u864gcvCIJQOhDrWJDPFmtXRYnX87/DHFuEoTHBuccAi+RuFwTBG0GUeESLx6zxuHHjOIo8AqFBByDbVmxsrLanYIk7/dxLw9OaUcck3pFqID8/X3vnHtzps1AanvZ/1xE/eEEQhItBJHk8JzDz7mog3DGz66oBAsF+xH1BEARfIT09nfOyIz878rTDTRhC8Ndff6XFixezBa5gG9GMF/CY2bwnfBZKw9P+7zriBy8IgnAx7gpKJjO7xkB3lRALCEEQvBWkF4POwYBwTEwMZWVl8X0NbrI//fQTJSQksAYSykY0Y0k8It496bNQGp72f9cRP3hBEPwVzK5DuAn+CzIKoIOru0sIgiB4E5s2baI+ffqw0JwwYQIdOnSIBg4cyH17CPjo6GhtT8EeRDNejNvFuxF8FkrDKL4M4gcvCII/gZFrBIrTI8oL/geuAcxi6BkFFi5c6BZXCUEQBGfw9ttvc1AzTL4hc1bDhg3p1Vdf5dzs8+bNY5N5oXyIZrROpdOnTysYzTh16hRdfvnlDuUQhOkAQD1lAV9uLMjnvmLFCq20mPLUUxYY6apXr572zn4QARKpZ7CGb0Xz5s0r/H0qclwzZ86kUaNG8WtcKM8//7xH28ccZ50vV9WDaxr5MmFyi3MpCILxwOwqRDvWCBgHwWak9F/4XhCWkk/ctcBdAecdg9eIPSBxBwRBsAT9umuuuYbatGlD69at00rLxlX64sCBA/zMwmAjRDpAajc802y5Xxm9/1wRnKkvEHW/NM1oD65uH3PNiElXewKvO6N9KhUWFrJ4rwj2Ng4iKSJgQ2BgIOXm5l5k+uDMi+eXX36hG2+8UXtXPsy/5/bt26lGjRraFseo6HHhBoUIlEgf0bNnT0pNTaXKlStrWx2jIu2j4+ofRXmxrAc3+Zo1a4p4FwSDAsGGvN0Qx4gmDx9nI5jE6eD7BQcH83fKy8sz1HfzRTBQInnbBUEoDXPxvn79eq20bJytL3788UcW7PB9BldeeSUHV+3fvz81btyYy2xh9P5zRXCWvsjJyaH27duXqhntwR3tU5a2tcQZ7UNnzpxRKgrqKKueY8eOKXXq1FFU0als3bpVKy2JPfXYy/79+7VXjvHiiy8qavMoDzzwgFbiOM44LrXjqKg3K/5OzZs3V3bu3KltcYyKtg9w1vlyVT0nT57k9lLFu1YiCILRGD58uKJ2grR3xmPChAlyHxEEQTAAjvbrnNHPLCoqUmbPnq2Ehobyd8By5513Km+88Yby999/a3vZhzO+DzBaPcAZ+uL3339XateubVMz2oO72kfXjB07dtRKSscZ7VPxIRY7UD/HsD4LpQETdfitYNbbk/7vOjAhxCgjgl6IH7wgCL4CZtsxY2FU1IcyPwtgEofXQsWBWbz4swuC4A388MMPNGLECHbDjIuLo127dnF8jlWrVnGa7WHDhtFVV12l7S1UFGhGBIGDtbE3aUZ3+r+bxDvMFouKirR3zsUIufnKC3L5IR1B7dq1PZrLz5JZs2ZJPnhBELwSPGe8EYjNatWq0UsvvcSm9IJj4PzDFxQdX6y99XoQBMH3+fjjj+nhhx+mRo0acb/7sssu4xhUmEjLzMykyMhIbU/BmUAzfv755+zn7k2a0Z35303iHaNH+fn52jvnYaTcfOUFufzef/999nXwZP53SyQfvCAI3gYewhiZ9kbBBh82CHikqZFAao4Bf3acf8y4IzChoz6MgiAIruLEiROUkpJCoaGhHHBu5cqVdM8999Bbb71lmglGHBTBNeia8frrr+eI/d6EO/O/u9Rs3oi5+coL0j7AHMLT+d8tkXzwgiB4A3pQOpjHFxQUeO1sKwJf2ooeLJQOzjnaDwIegQnhgiCB6QRBMApwRx08eDCbxo8cOZJ2797N+dg3bNhAW7ZsoaeeeoouvfRSbW/BFZhrRsxie6NmdFf+d5eJd2/0cy8Nd/sy2IvkgxcEwchgthrCHaLtkUce4bXMXPsf6IRhxh2D+FjLjLsgCEYA1rUwz0aKr7lz57J4h0XrwYMHeWIsIiJC21NwJZaa0Z6Ua0bFHZrRZeLdG/3cS8Pdvgzl5c033xQ/eEEQDAfEO2ZdcX/CaxFt/gusFsRyQRAETwOBOHnyZKpfvz6nX4YPO1LPLVq0iGdMoV8qnMpLKBeiGcuHSbzDhA056pwFRh3gJ+Jtfu6lofsytGrVin0xjIb4wQuCYDRgKg/fZtyffA1YEeg56oWSwCJMEATBSCAfN/KwQ+skJiZSXl4ev4efNQKk9enTR9tTcDeiGcuHSbwjkm5AQID2ruJgFAt+Ir400wJfBowMIfieERE/eEEQjATu/77q2wxLAgh4BKYRitHjG6AjhrYRBEHwNJhRb9euHd+XFi5cyDPuL7/8Ms/Ap6amcmwrwbOIZiwfLg1YJ7gf8YMXBMETvPHGG341C22e/90XLQvKC3zZzeMbSGwDQRA8BXzWYYWKWc8nn3ySvvjiC2rfvj37uP/00080duxYTgUtCN6IiHcfRfzgBUFwBxDsmNGAgIWg9Scw+37TTTfxwAVe+ys498jbjqBDEt9AEARPgejwiPKNwUP0exHBHFHkYZW6atUq6tGjh7anIHgvJvGODlhRUZH2TvAFxA9eEARXglln5LzFGrPQ/ibeIVB10e7PZuJIA4fc7WKFIAiCu0G/FnnY4TON2fX33nuP87RPmzaNjh49SrNnz2arIEHwFUzifceOHZSfn6+9E3wF8YMXBMEVQKhhxh0DvxMmTOD3/jjbCp9+BD7yt4ELcxBFHoMXkrtdEAR3sWfPHho1ahSbvz/zzDMc1fvhhx+mFStW0A8//MBRy6+55hptb0HwHcRs3g+w5geP/IOCIAiOAqGGQUEEZPFn4QrEv1sQBMF9YBIqJCSEkpOT6fz58zRixAgW7B9//DF16dJF20sQfBMR736EuR/8kCFDxA9eEASHwSw7BgVhMi34B3ARqFGjhkSSFwTBrfz9998cWwSTT+DYsWPUrFkzmjNnDv3xxx+UkpLCpvKC4A+IePczdD/4mjVrih+8IAh2I/nM7QdthbRpvgRMUJEWD8eGQRtBEARXg4HCoUOHsmk8+q+7du3icsTYgCXpoEGD6PLLL+cyQfAXTOIdJpCBgYHaO8GXgR880seJH7wgCGUBsQbfdog3oWz0XOe+kv8dnWccz+uvv86R9XNzcyUonSAILgV91E6dOvG9Z9asWey7Pm7cOPruu+94OyyABMFfqbRv3z6lUqVK2lvHQHoYYJR6QGFhIVWpUkV75xhGOy5XtA9m35cuXUpXXnklTZ06lYW9vRi9feAegNFZmPXCL1cQhPIB4aYHpdNzmgtlgwBu8L0cPnw4i15vBqbyGIhA7nbkcpcUcIIguAKYwqemptKCBQto//79XHbfffdRbGwsp6IEp06dYiF/77338uSTvbii/1wRjN5/rgjSPrZxRvtUOnPmjFJRk5OzZ8/y2ij1gJ9++oluueUW7Z1jGO24XNU+6Fzqs2qTJk2ixMREfl0WRm8f/SYv4l0Qyg/8C/UZVl8Qoe4Egx2wZjt48CAtX76cxbw3I5HkBUFwFciIpIt2nb59+7Job926tVZSjKP9Olf1nx3F6P3niiDtYxtntI/4vAsmP3jJBy8IAoD4XLhwIVWrVo3Fpwj38mGe/x0zRt7u/y7CXRAEZ/Puu++yZVd4eDgLd7jlTJw4kX7//Xe28rEU7oIgFGMS7+isFRUVae8Ef0PywQuCoAPxic4TZly9fdbYU0DwIrsHZpC8JZXcSy+9xOdcEATBFfz666+cWrRevXrUu3dvdsVq164dpaen8yAnJpCCgoK0vQVBsIZJvO/YsYPy8/O1d4I/YpkPHqOhCBoiCIL/AfEp+csrBqyavMFqAZ1mzIChU/3kk09qpYIgCM4BfUuIdYh2DBIePnyY+5pbt26lzz77jHr16qXtKQhCWYjZvHARej545NXs3r275IMXBB8GVlfwbxf8E5j3I6IzOtcSlFAQBGcCc3hMBGFwEGbyt912G7322mt09OhR7mvefffd2p6CINiLC8V7PqX3qMSR+Sr1zyTJEOxdiB+8IPg+ehow/N51H23Bf8D513O3Y8AWwl2iyQuCUBEQKf7555+nWrVq0cCBA9kls3PnzpSZmUl79uyhkSNHSqo3wQb59F70FXTFFVdUSD/mL+3GdTz+/hGtxHnkTIK+7Ubpv2oFbsZ14n3/KkpbRsW54xemUkZx1gfBixA/eEHwXTDbDuEOk2lEkxffdtcDkYzMHlgbAbhGTJgwQXK3C4JQYdauXUuPPfYYNWzYkF599VVOiYVnC3Kzf/LJJzxQKAhlourHpRnEk4eiH61jEu94iLPQdhK5K2fTaoqgxKkjKUx9NXt5rrZF8CbED14QfA/4NkOsSTR594J2xqKn5jQCuBYkmrwgCI4AgT5r1iweCO7UqRNlZGRQkyZNaObMmWwaj/td48aNtb0FoWygH9fS/TRuygjD6sfw8QopSgZF19UK3IxJvKMTFxAQoL2rKLmUtVht7KaR1LJ3BMWo/YLcaRmUJcHsvRbxgxcE3wGz7LCokWjy7gUDJujYIpI/FneC2X6JJC8IgjOAFSbuZ7Vr16ahQ4fyvaVbt260evVqfj1kyBCqUqWKtrcg2IumH5t0ohYx94t+LAWXmM0XbcygZLWPENYngsLUf1GDI4jyUykrp/TWz984m4ZH/x/dBh+HSpUoqHE7GjApnXKPaTuYczyPVs8cQp0bBxX71DdsSd1Gp9Nua5aI5/IpS923W3j94n0rBVFoxACavDTXuh9FfhbNHtyNWjasxL4SNzZ7UP0emRfX/Ws6dVPr67Z0N+1eOpLaBal1B4VS53GryVdj9uNGbe4Hj6jE4gcvCN4HZlphUSPR5N2LnoIPg+WYfXeXmMa5Dg4ONvm3C4IgOAJiozz00EM8mw7XK0z6jRkzhvbu3ctWmZh9FwRH0fVj0yfup6bqP3v0I+u81wawboPOqx85ktL3WN+/2Fd9MuWoCjB34QUdGdS4M41U9Rz/1d+7KXOSXp+qGR8eSe/9UPK5ebHPew5NhsaclKNq1N2UPrpYR/L3CVc153KtbifhAvFeRNnrU1UBG0lxXcK4JLhttPounyYvWW1VMOctjaGwiCG0fM/N1HXKq5Q8NYG6BR+mVS/EULPGQ2i1uYD/eTUN6VSfOg+bTbvrdaOEqcmU0KEG5b4WQ6EhMZT+s7Yfk0fp/cOo3bAM2h0cpdabTMnju1Hw0VWUGN2MQgaX/D7H1ydSy6B2NGRuLtXokECvqt+lV6N89Xt0s1J3MXkzYilixGoK7K3W3TuMqoeEkPOcD4yHuR/80qVLqXXr1uIHLwgGRsSascDACUxJcV7c4a6AtEyI9IzPQ855CUgnCEJ5KCgooOTkZLr99tt5AHDVqlV077330vz58+mPP/6gV155hf3cBaFiXNCPz3QuduUqSz/S36pobh1E7Uarf9cwjjVhVPXVFB8SQfFrSuv7bKfU/s2o2bgsqt5ppKoLYyn02GpKiY6g2PnpNLlDKMV9UEgtn1L15aBmVLQyhfo260sLf9L+3BZ5GTSyU6j62QH898mjoing51RKjAqliOlONP8/c+aMAtQfp1JYWMivywvq0OtRjmYosUQK9ctQCopLVAqUjH5qGUUqC/ZpRTqFG5R47N9pgfKjeT0qB+ZFKsEtIpT4FXpNh5W07qgnUImet0sx/7aFOUlKOOppkaxsV9/v379fKVwXr+5LSuS8A8U7mTigLOgUrIR3iFdWHdWKDmUo0YHq3wdGK2l5xUX6cRWsSyhRN3MoTYlCGYUpCZttt1uJ9qkAzqoHoH0qysCBA7l9q1atqixbtkwrLT+uap+TJ0/y97v//vu1EkHwL3JzcxVVLCoLFy7USgSj4I5zgnOPe2C1atWUjRs3aqWCIAhls3XrVuXpp59WKleuzPcRLDExMR69lzjar3NWPxM4o//srO9jtHqAw+1jph+PmL6PDf2oqsDsiWF8PUTNKakJCzZrmlBdui7+RStV1P2Ly6hFkpJ9QaSqnaVkJUzbP2z8BjP9qirGxVFc3vS1LVqJXk+UknZIK1CylSTt78MnZpf4eyVP04uB6meqb51x/Zhm3nfs2EH5+RU3+D6+eTWlquu4RyPowvh+dYrspUp0a4EHjuVTHtaBNcz2LyZ44Co6kLOBkrtoW75No+Rl6rpTEiUNDCFzD/2AFgk0e6ra9F8lU8bGYuOE48e4ZgqqaZmSIphiVx+g7HXJFFmzuCR3WRKlq4cfNS2Foi0sSat3SKSksYFq3SMpbb2F4UPTGOrWylmxArwLBCnBaKz4wQuC8YB5NmZcYZotvs7GA25HrgYWUo888ghnFFA7u1qpIAhC6bz33nvUvn17uueee+itt97iYNbISvHLL79wrna5lwiuoNz6sSibMl5AfLVkShxUUhNWbxVfrNtKIWpYLIWbi86mLakbv4iguD7mn68qxvBIwhX/7d/2GL5H0ZB+4SX17M0R1K27us7fTnlOSi3nZLP5PMqYrzZ9YAJFdSjx1SmgdSQlqO14UeCBumEU0UJdL+xG90aPoYUff0W7j1lvoLxtqwmnLqpXhCq/LyZMbWC1dSj1q938PrBxBIWr69SoZtRtdCplquXHrVadT3m5XDN1C7d2sgMoIjKWX6V9XVy3ifAQq9/FX0CgEskHLwjGAebR/fr140VRFFq4cKFbzLMF44HzDh9VMZUXBMEWhw8f5gkYxEHp1asXbdiwgUX6kiVL6NChQ5yVol69etreguBsHNCP3+dQGtZdWlKxk7Y5AdQsvFiOW6NZcGnCPoJCG2gvdQKqXDS5XCqBzSjkogj0gRTs5IQLzhXv+7MofY26zp9M7aoUO+qblirtaDIm9tVtmevN/RBCKG5pBsU2CqSfM16nZ3r8H4XWqsLBA4a8lk45ZsYA+flZvD6+OZ1SXku5eFmdxycwP3c3HcWOjeIo7YNYCgnMo8zXBqjCPJRqVEHwgSGUsjSH8k0a8zDl7cRaFeKlxW8KDFZPqVp3QUHJoANBF1sM+BuSD14QjANmWZH+DVHNEajMHTO8gnOQ+ASCILiTzZs38zPi+uuv5wmYgwcPUmxsLOXk5NDGjRt5QkYQXI6FfkTAcCw29aOq4VAcUc+6EK9eK0h7ZUkUBbsqxVvrYCrtU52JU8V77vLZlEWBFNI2giI6WFnaFgdzm708q2TggZujaMHOPDry3cf05rhnKFIV8vnfr6bZo2OoZVBLmvxVyenyrPmJNHL0yIuXKek8M29OcPcFtCuvgHatXkAJgyJVIZ9Pu1fOppHRLSmo9WTK+Vvb0V4CqpQwzRCKkXzwgmAMEBANs634PeK1YHwg2hEICtYSjoCoz4gmL+JfEAR7gEVWq1atqE2bNrRo0SJq0KABTZkyhQPQLViwgCdhBMFdWOrH+9vdz0uZ+tFPueS///5D0Dq644476Nprr+XX5V1Qx3//ZdOKFFU613mG3lyzmlavtLKsWUjPNlE/deF8en+XZT2V6OoGHahP4jTK/PpnKvrtW/poYkeqQzmU+OIi+lHd59qaxX42z2cVUVGRjWVJN6qpKBfqrlSF6kc8QeOnZ1Luz0WUv+MjerFzHaKvEmni0h/Vfa6juqGo+Qfau/fCdyo+ruL2ObH3e/XCUg/vskuKt5/9l87jT879a9q/tMW8nooszqoHC8xprZWXZ7H2fdCJfO2110x+8DC1Mt9ubXHWcVmrRxD8EZg7iqm094BzlZeXx4Mu5XFxgFhHXAOk8UREaIltIAhCaeAek5iYyD7s/fv3py+//JItJ5ctW0b79u2j559/nmrVqqXtbWzOnz9foq9X1uKsfiYWV/WfHVmMVg+W8rfPJsf04/lzqkYkyvr5kEV92lJYPDurnL9wXP+yxfV5+vesxb5n/sVEvso5+rdEubqoeg+R6NSLzlR2cT3a35//l87qf2e2mO/vjOvnEt2s/ZprruF8jSYz93IuZzatpblH0PZtqYWV7cVLGD36NAT4WnpzxQ4uO5P1InV8sCl1fftgyX1rhlCnMWOJ5yE+PUJH1LLgRm35RK3dUvy3thaiM/S5Kv47Nu9K7xwoua3G7Z1obHzxDMfa346oZYEUHIYZqo/ooy1/lNi3eDlDWz5fyvs/2ijYVM6oq5L7esfCX91KuTOWYcOG0cqVK6l27dqcpgizSbgpWNvX1Ysg+DIwkYfgE7wfnMfy5H/Xc7djDZcl/I0EkhIEwZL169dTz549qX79+jR58mQ6ceIEDRkyhHJzczlm0WOPPabt6V1Y6/O5Y/HkZ3vDUt72ObNpjUP6sVKjcOoHUZi6hj4/Y7l/JdqxZS1/F/WNqQyarbio5L4XNuGF5TbTH114byrSy/SiC/uYL+b76+uKLFDwSkU5c+aI8vHTGJgIVJJytMLS2LdAieSQ+QnKBsT111MDNE1QPj1SMlVB4eaE4tD9g1ZpYfeR4g2fE64kbS4RiF+lQMmeGK7WG6JEvb2LQ/EXZMZy2H7LsP+cXmB8cXqBOD0NnV2p4pKU7XouAj1V3EQE/reNXk9FcVY9wB2pLvLy8hS1U8nt3Lx5c2Xnzp3alpI467gs65FUcYIvs3z5cqV69eq84LcmeD84p7hn3XzzzZy+1RbDhw/nfSdMmKCVCIIgFHP27Fllzpw53PfCfQJLo0aNlOnTpyunTp3S9vI+JFVcSYxWDyhf+xQoqwbh+iypH61+H0v9qLJ9mqr71DLL9Gym9OHqcnGqOPMUbzp6qrfidG4lUPVeV2yb8LlWYCNVXPc05bBWYo75/k5NFVchjv2PPnpLXQcOKY4cb4sGERTVSV3nT6Z0JNCvGUUJ6dEU+O1kevDOJtR37OscfC5xcGcKbT2ZcgOjKW10pBYULphi52RQbIMcSmwdwoHnEhGo7oUh1LlxCLV8IUfV7jE0snsI71390QRK6x1IuZPaUUhjtZwD2yXSkMhQajkplwJ7p1G8noaubhTNXpxA4fnpFBNcnzoPTqTXp71OY/o0oZAHJlOO+j0WLIynMHF4txvxgxcE14DZWfhIw2waKXzwWxO8n65du5IqynkGviz/dZjXI6AUXJMEQRDA7t27KT4+ns3fBw8ezH0v3FdgDblz5052salataq2tyB4mGNZlDlXXTuiH1XCnktjnZfzQkuTzmP9GJ5I1AL5xnwUfWQDo/yFheYp7u3nx3kdeXQjcOyGEknyS+PA25G8v/kIxeGsWcoz3Vooahe0uK5GEUrsxDRl+1FtB3MKdikZE2OViEaBxfVQoBLSNlZJSs9WDv9bvItpZOPfw8qGGXFKVItgi323W8zGaxzeoMwaFKWENyj+HnXuuF/9HhnKLsudZea9XN8Ho73F7U/KpEmTtNJinHVclvXIzLvgi+jWLDfddJOSm5urlQqCIAj+yooVK5SHH37Y1M+CRdbIkSMVVcxre/gGMvNeEqPVA8rTProetNSPpX0fa/oRs/fb345XIjVNGNgoUombka0UbE7i9744814JjXP55ZfT559/Tmpn0KEZnLNnz/Ia9VQEZ9UDfvrpJ7rlllu0d45htOPy9vZZu3YtpyQ5cuQIxcTE0DvvvEOVK1d2WfucOnWKYznADxQzVILgC+B3A/9orCUone+DGXgEAsWMvJxvQRB00MdBZPjU1FT64YcfuOyuu+6iAQMGcLo39K98DUf7dd7efy4No9UDpH1s44z2cW6ed0GwgeSDF4SKgwEwiHcRcr4PgtCFhYWxabyYxwuCABBoLi4ujk3jR4wYwcIdAekQmG7btm3squiLwl0QhGJEvAtuxZoffGZmprZVEARzJG+3/4JMHRDuyCjQpUuXcqWQEwTB90BKtwcffJCaNWtGc+bMoRo1anDqN6SAW7p0KbVv317bUxAEX0bEu+AR3nzzTZo+fTrng+/VqxdNmTJF2yIIAsDsOsSb5O72PyDUMdOOwHWPP/44B5uSmXdB8D/++OMP7h81aNCAevToQevWraNWrVqx29Thw4dp0qRJErBUEPwMk3hv2rQpBQYGau8EwfUg6ilyjCIfPDqmTzzxBJ07d07bKgj+C2ZdEU0es65YBP8C98a+ffvyucdAJ0Q8rglYLQmC4Pvk5OSw33qdOnVo3Lhx7CcLl6nNmzfzgvuDIAj+iUm8o3MQECB50AT3Aj/4L774gtq0aSN+8ILfAzP5tm3bmmZd4duIND+C/6EHJMQCKwygpwcUBME3WbJkCccFatmyJb399tsUHBxMSUlJPMu+cOFCnnUXBMG/EbN5weMgywECrUg+eMHfgUjD7Co6b5h1hUWU4NvALaIsQY7Iysjnj/0w+yYIgu/wyy+/8O/7hhtuoD59+tCmTZuoQ4cO9N5779GBAwcoISFBLGMFQTAh4l0wDOZ+8N27d+fRZkHwJyDMMLsCAS/R5H0fpICDpUW/fv20ktKBNQbSxUngOkHwDbKysjhtLiYwJk6cSEePHqVnnnmGvv76a/ZtR7wLQRAES0ziHSP6RUVF2jtB8Ay6Hzz8vMaPHy9+8ILfITOrvg+etzCBx/1OURR65JFHtC22gXCX4FSC4L2cP3+e5s+fT/feey+1a9eO0tPTKSQkhJKTkzk43dy5c6l58+ba3oIgCBdjEu87duyg/Px87Z0geA7JBy/4A5hdl0jy/gfcIZBFAC4STZo04WtABmwEwbfZu3cvjRkzhnOzP/XUU7R161ZOAYn7wK5duyg+Pl6srQRBsAsxmxcMibV88OIHL/gKiBxur7m04Fvg3oZghDCBh3CXmXRB8F1Wr15N3bp1o9tuu42mTp1K//77L1vcYEJixYoVdlvdCIIg6Ih4FwyN+MELvgTMpc2jyePaFvwPiHZn+K7DZ17yvwuCsTh9+jTNmDGDLWs6d+5MmZmZbG0za9YsNo3Hff+OO+7Q9hYEQSgfIt4FwyN+8IIvAOGOtD/m0eQRRVwQHAHXEyJUS/53QTAG3333HQ0bNoxN42FZg/eYdFi7di1t376d4uLiJCWzIAgVptLp06eVSy65hE6dOkWXX345XXHFFdom+0EADoB6KoKz6gGHDh2ievXqae8cw2jH5e/tc/DgQRowYABt3ryZmjVrxkFfzEevLevBNY2HKATSxo0buUwQPAl8m2EmLbOlvg/ENYQ1BmmWL1+ulToXiHZYcsBXNi8vT3xmBcEDYGY9NTWVTeQB+h3oq8TGxtItt9zCZYJzQL/ummuuoTZt2nBEfnvx9/5zWUj72MZo7XNJpUqVCAt+DBgR1N97+wKslctSvHhj+0D0fPbZZzRw4EAexcbsJTrF1vbVF0EwEu+8844Idz8AZvEQ1TCNz83NZQHvCszzv+PzBEFwD3/99Rf7sMOXHT7tEO6IzbNgwQI2jX/55ZdFuLsYa30+dyye/GxvWKR9bC9OaZ8zZ84omHGvCGfPnuW1UeoBP/30U4VvnEY7LmmfC6BT/Nxzz/HrSZMmUWJi4kX16CO0MvMuCIK7gB86XH1A3759+V7l6hnxrl278iw8lqZNm2qlgiA4G0SJh0DHTLs+G9e7d2+eZceEguBaHO3XSf/ZNtI+tjFa+4h4t4FcPLbx9HHBjwxmyEeOHKGYmBiaN28eVa5c2VSPiHfBU0DAYZYd152YMvsXEM+Yacf5h6h2B5h5xyKR663zyy+/8PL7779zStxjx47xzOmJEyfon3/+ocLCQn4O6WJMf45ceeWVVLVqVf4NX3vttVS7dm0KCgqiG264gW688UY2jxb8A+Rjh2jX+xIwe9VN43E9CO5BxHtJjFYPkPaxjVPFOx78MJt3JJiGXDy2kfaxTUXqQScZAv7zzz9nP3g8XBHVFYh4F9wN7qP9+vXj3L2IJi8zof6HbiIvQtr97Nu3j90Udu7cST/88AP9+OOPXIb0XK4Aor5hw4YUEhLC8VcQXRzPH4h8wfvBYI8+y47BHwD3FAh2TBgI7kfEe0mMVg+Q9rGNU8U7xM9NN93kUIdDLh7bSPvYxhn1PPPMM/TWW2/xLMnChQvpscceE/EuVAiIsPLcD+Hn/Oijj/LfoRMPAS8CThBcR3Z2Nm3atIm+/PJL+uqrr3hG3RxMRkBcI8sDZsoxQxoYGMgz5tdddx0PsOGZgf3w/Ln00ktJURT677//SO0bccovPEcwKPfnn3+yL/Phw4fp119/5QCqBw4c4MUSfCb8n1u1asWBteAXLXgPuKYg2pcsWcLvEaQKgh3Lvffey2WCZxDxXhKj1QOkfWwj4t0GcvHYxhfbJyUlhUaOHMmv4QePVC0i3gVHgckzBLi9wAJk0aJFfN05I4e3YGwwSIPzjYBxRgSC09dcNiCeV61axS5TiDSNY9SpW7cu3XXXXWyBdeedd1KjRo0q/IyzBzy/du3aRd9//z0P4CGY6rZt2+jvv//W9iBq0KABPfjgg9SpUyfO+y0Yk7fffptFe05ODr+/9dZbTaIdgz2C5xHxXhKj1QOkfWzjjPbB6LIC/ve//yl5eXn8urygDr2eiuCsesD+/fu1V45jtONyVj3AV9tn5cqVSp06dRT10lZ69OjBa/Umr+0hCPaxcOFCvnbKQ0FBgbJ8+XLtneDL4DyrwpivESOec/369YXrURXoyrx58xRV/PIx6cuNN96oPPnkk8o777zjlOeZs9m6dauSkpKidOnSRbnyyitN31sVHvy9P/nkE21PwZPg2hk7dqxSq1Yt0znq1KmTkpGRoe0hGImTJ0/yOSpvv85Z/Uwg+sI20j62cUb7VDxhnSAYiAceeIDNJxH19YMPPuAyBCQShPKgp3ODz7q9YJbTXQHKBM+gxzSAe4T6/KTp06cb8pzrcRbwXXUffG9jw4YN1KdPH6pRowY99dRT9Omnn9Ldd99NEydOpG+++YbN1uEihYj+7phhLy/4riNGjKAVK1bwM2jNmjUUFxfH9wkEM3zooYfYlD8hIYH27t2r/ZXgLnA99ejRg60ipkyZwudo6NChbD2BtG9RUVHanoIgCMbCJN7xsIcvmCB4O3D9gOjq378/v4cZ44cffsivBaEs0LGGMAClCR+Y05ub7Ar+AVwjcH0gpgHuMXpKOKOB5zkGFnCNYqDBm5g/fz6bv7dv3559juEvjsE0mKYjTdf48ePZNN7b6NixI82aNYvvLZ999hkPSBQUFHA+cD1X+Pr167W9BVdw5swZmjNnDl8/OB/Lli1jFwtkB4FLxowZM/i3LQiCYGRM4h2BWxyJNC8IRkX3O0bwoe7du1NSUhK/FwRb6LPuALMw5pjPvJrvJ/gHuKcgpoE3ZBHAwMIjjzzC17BRBxnMmTZtGsfdgajFzPrjjz/Ovu27d+/muAKI6O4rtGvXjgOsIl0dBisQ3C4zM5Mtx+DLW55YG0LZIPMArCAQqBDWD8hIgJl1xE/YsWMHDRs2jK666iptb0EQBGMjZvOCz4OR9Tp16vCMzRNPPOGytEGC92M+6w7MxTteI02QPvOKWVjBv4BVDwS8twSC069VCEKjMnfuXDYfj4+P50juEFn79++n9957j4O8+TKXXXYZ5wpH1HzMxmNQEMGDsY6IiOAywXE+/vhjevjhhzl4ISxR0N6jRo2iPXv2UEZGBkVGRmp7CoIgeA8i3gWf59prrzX5waelpfEsByIDC4IllrPp6EgDzLRCuEPAw8fWG2ZehYphaXXhjWCQAcdhRL98+BXDL3zw4MH022+/0ZgxY3iNrCFG9GF3NZiNx+w7nlVIdYpI2h06dOB84ohOLNjHiRMn+BoKDQ3l637lypV0zz33sKUDTOOnTp0qqfsEQfBqTOId5qBFRUXaO0HwLXQ/+KeffppNMiHgxQ9eMMdy1l0Hfu8Q6pjBRIAs7OctM6+CYzz33HMUFhYmKf9cAHKxI/UWUqZ9/fXXbCaP39grr7zCZs3+DvKIwxcbAftgMZGens4py5KTk7U9BGvguY6BIFxDSBkLd4vo6Ghuxy1btvB1hjz+giAI3o5JvMPvJz8/X3snCL7Jm2++yeZzyMErfvCCOaX5sGPQB2IdazGV920wS62Ldvhfi3WFc3n//ffZhBn5tFu3bk2bNm3iGdF69eppewg6MJvH7Pu8efPYegzm3pidh/+2cAFcU4gVgCCHcMGAeIeLHAZiYWmHdhQEQfAlxGxe8DsQvAlpe8QPXtCBMLc26w4QoA4m89hH8F0QJEx3jdADvRnZV9xRcFywHnE3CPTXs2dPOnLkCL366qss3CHgBdsMHDiQZ5GRNi8rK4sHlFJTU7Wt/gmuocmTJ1P9+vX5mkKU/jZt2tCiRYvY9QLpBBFHQRAEwRcR8S74JUgTY+4H37JlS/GD92PKihwP4Q5hJyLed4EoQtYVuEZAyPuiawTc4zAgAbcAiHh3AJN4fCbScMH3eNu2bTR69Ghtq2APNWvWZGEKiwU9yJ03ZBBwNl9++SUPpiKtcWJiIuXl5XFKWJQjPgkGOARBEHwdEe+C32LuBw/fS/GD909wDeiB6crCXMQjkrHgO+B+AKHpy64RGJCAS4Ce8hBrV4LZ9VatWvHvCz7H8D2GebPgGDhnGPyAXzxykyOS+j///KNt9V0wcIGZdVxLsBrBjDvy42MGHlYIGHwXBEHwFyqdPn1aueSSS+jUqVN0+eWX0xVXXKFtsp/z58/zGvVUBGfVAw4dOlRhPzqjHZe0j20s68E1Df83zPrAd9AW6NBiNgpMmjSJR/UF/wDXh73i3RIIPlxbWAuCt4ABCggirGFp4AowuNWtWzf677//6LXXXuMgYoJzUBSF3b0QzA5CHlHqr7/+em2rbwA3pgULFrA4RwpBAN92BDvs0aMHvxf8D/TrrrnmGh7MWbdunVZaNtJ/to20j22M1j6VCgsLWbxXBCM2zi+//FJhnydfvnj8oX1wk4e5oT3iHaxdu5Y7sxjNR3oedGphoij4LvpMuj3ApBqm1biesIZgl4Bm3gdmm5FHG37t/mh6DHTzeQSqzc3Ndfp1jBzaSHcG3n33Xb6fCs4HA84YeG7cuDGtWrWqwh1CI4Do8BDtyPMPMKEEwY6lWbNmXCb4L+biHbEO7EX6z7aR9rGN0dqn0pkzZxTMuFeEs2fP8too9QDkRa1orlijHZe0j20s69Fv8vaKd6CbzWImFuadEPCIjiz4JqXNuiMtnC7QdbEu6eG8H/iy99PMxRHvwp/jF8DnHfc7e3PAo83s+Q1ARD700EP8evny5YbMMe9LjBs3jqZMmcLCFjOR1113nbbFezh37hzPsEO0w4UNIE87fPsh2vEcFwTgSL8OSP/ZNtI+tjFa+4h4t4FcPLYxevs4epMHzzzzDKcwqlq1Kgt4fRZJMDZ//vknj2oi4jBSX/7xxx9cduLECb4eTp8+Teo9jzuLBQUFHKTw6quvpho1arCLBRZ0GtEBrl27NgUFBVHdunU5bRiuBcE7gfB86aWXTHnbJ0yYUGaQQuECaD+0l95+pQHhhRmxwsJCnn2PiorStgiuBAEA4ZqAVHKfffaZVmp89uzZw6IdC+7HAH78EOxYC4IlIt5LYrR6gLSPbZwq3vFwDggI4KW8yMVjG2kf27iqnoqIdyB+8Mbl999/55nDnTt3ct7jH3/8kfbt22fqALoCRDhu2LAhhYSE0B133MGmqsgJLjPyxgczzLr1BGbfxd2hfEC4w4cdJvalgT4Egn5CkGEGFQJMcB9ob0Sjx2z1/PnztVJjAusMXCP4LQK4JOH7Y8HgqSCUhoj3khitHiDtYxunineYjmJ2yZHAS3Lx2Ebaxzauqqei4h2IH7wx+Oabb+iLL76g7OxsjlhtLSc77l2IQoz72A033MCz5sjlj1l0iDbMsF955ZXsQ4lzWKlSJfZjQo7/oqIinpU/efIkDwAcO3aMZ+0xSPDrr7+y+Dtw4IApcJI56GwiaNR9993HeatvvfVWbYtgJDDYg2tEBlvKB0Q52g3WKwiUVhoIIrZs2TIe5MRgp+B+9FSWM2fOpCFDhmilxuDvv/82mcbraVmbN29uEu3O6NcIvo+I95IYrR4g7WMbEe82kIvHNiLe7Uf84N0PBkvWrFnDPpwwAz169Ki2pTjdFc4DZr3vvPNOPheYDXckU0Z5gYDZtWsXdz71YF9I3YQBAB38rtq3b08PPvggderUySFrJkFwNxjcQCA/+KmbWyZg1h0uBwD3UdxPLYFYHDZsGPu6r1y5UisV3A2e6/B9xyAk7k+4P3oaXFe6aMcgKcBADywEOnTowO8FwV5EvJfEaPUAaR/bOKN94P+pgP/9739KXl4evy4vqEOvpyI4qx6wf/9+7ZXjGO24nFUP8If2UTswmCZS1Ju8VlIxnn76aa6vatWqyrJly7RSwVn89ttviioClIiICG5nfalTp47Ss2dPZc6cOYraIdX2Ng7nz59XvvzyS2Xq1KlK586dlSuvvNL03StXrqxERUUpS5YsUZCWU3A9aodOWbhwofZOsBdVtPM1e/PNNysFBQVchnW1atVM17O1dj1w4IBy2WWX8X3x559/1koFT/HOO+/wuXrwwQe1Es+AZ2THjh1N1w7u4+PGjVPUjqu2hyCUH0f7dc7qZwLRF7aR9rGNM9pHxLsNjHZczqoHiHh3jOnTp5s6I5MmTdJKhYqwdOlSpUuXLqZ2xXL33XcrL774ovLVV19pe3kX69atU5577jnl1ltvNR3T5ZdfrvTp00f59NNPtb0EZ4NrRm9vXYAK9jN8+HBuu65du/L7CRMmmNoTC7Zb8sQTT/C22bNnayWCp3nsscf4nLh7EOvo0aPKK6+8ojRo0MB0zdx3333K22+/re0hCBVDxHtJjFYPkPaxjVPF+/HjxxXkfHcEX20cox2Xs+oBIt4dZ82aNTyLgLpjYmKUs2fPalsEe8Hsy9ixY03tiKVZs2bKlClTlB9//FHbyzfYsmWLMnr0aCU4ONh0rHfccYeSkpKinDhxQttLqAgYeMbvHG2LmWLMvguO0aRJE27Hl19+mduyUqVKpuv2//7v/7S9itm8eTOXt2zZUisRjMAPP/zA5wUi2h3k5OQoAwYMMF0nWDBQuWnTJm0PQXAOIt5LYrR6gLSPbZzRPqZs84j2Kb6ZglA2HTt2pK+++orzRKelpZHacTUF4BFsg2BzaqeO/X2QmxhB4hBYCe2JoHTPP/+8zwV8u+eee+jVV1/lgHerV6+mXr16cYT8+Ph4DqiHtSo+tb0FR1A7chyoC79JxKjAe8ExEAEc/QFEl7cMUgc/anOmT5/O6zFjxvDaNeTQ5EqVOMCk9aU+tXxgAE1emkP557Q/8XMQRBP3VbWTyClPXcW7777LQfKQZQA+7YibNHHiRE7VuWjRIg7gKQiCIDgXyfNuA6Mdl7SPbSzrcVbAOltIPnj7yMnJoZSUFM79DJBm7emnn+agRe4INGc0EMUe6Zxw7egR7AcNGkQjR47kiPlC+YDghGh/9tlntRLBXhBNHqIcgcXMFwBxbC7eAQaaENgWA1AIFgnhhiwQrgPivSUlUiCFtA2loMpasc65w7Rr427KV18GdplFqz+IozCZh2DhjtSWCD5oK8VfeUH2DQh1BKHDa4D88ogYj4FJQXAlErCuJEarB0j72MYZ7WMym68IzjIncFY9QMw2bOMP7eMqs3lLxA++dHbt2sWuBXr7tGrVSvnggw+0rQKYNWtWCd/4+Ph45a+//tK2CoLzgVsB7osITqdfd/YuCGwHnn/+eX6vCjl+7zqylST+7Cgl7ZBWZEmBuk+L4u8X+fYBrVDo3r07t4kz3EhQhx7fAMull17KQVy3bt2q7SEIrkfM5ktitHqAtI9tnNE+JrN5jL7raTwEQbAfzPYhrRlMoMePH09qB6dE6jB/BKOUMIGH+SZcC5AHHbPumzdvJrVDqe0lgLi4OPrxxx9pzpw5PKMJCwXMvs+YMUPbQzBHnxUWHAezVhMmTGA3g/Kitz9yumMWIiYmht97lOrhFP9yAgWqL1cvzSJxQilGnwnXLZ4cAbPssK6AeTzM5G+77TaaOnUqp+9888036e6779b2FARBENyBSbzDbC4/H4ZngiCUF/GDv8DSpUvZbx1+3vCBhHkl2iYqKkrbQ7AGzOZhkpyUlMSxAIYPH0733XcfD3gIxQPMyEOO/P4i4CsOBPw777zD11zfvn210rJB28MMG6Z/Xbp0MUysnICGodQSL9bnswm9ifwsmj24G7VrHKT5yAdRaMQAmrx8Nx3XdikB79+ZQoO0fR8eSenfH6e8pd347yd/pe2nY3f9mu/+pBw6/kUKdWuo+ev3T6XdLpo36dq1K1155ZUca6M87N+/nwdfa9WqRQMHDuT7d+fOnSkzM5P27NlDo0aNoho1amh7C4IgCO7EJN4FQagYmDVF0Cz4cn/99dc8W/Hhhx9qW30fzMT07t2boqOj6eDBgzR27Fju4Pfv31/bQ7CHhIQE7jwjsB98idu0acNt6c/gdxUcHMy+7U2aNKHq1atrW4SKgvtWeUQ8Bvo///xzfg1fZyNT9NVkahnUjoaoQjqw00hKnppMyaM6U/VDqZQYFUqRU3LJXDdj/3Zh6v5zd1Pwownq/jEUlpdGMY0jKXHNxVK/vPUzq+MpsvVsKuqg1j8+kmqo13Wwi8Y/MJgQERHBwTL37dunlZbO2rVrOW4LfOUx+AprTAwifvfdd/TJJ5/w4JkgCILgYXQbfsnzfjFGOy5n1QP8oX3c5fNuDX/zg8/IyFACAwNN7b1t2zZti1AR4F+s50y+5557/NK/1DzXOF4LrgX9AFXEm9rc2hIdHc3r3Nxc7a9ciR0+7yoFmbHF32/QKqU4w/92Jbmp+j4wWkmz7NqcylYSsI3ilQ16htxC9XO4LFxJyjFPm1ugZE8ML65bXZJytOLy1m86DlKiFrvPLz8pKYk/Mz09XSspyenTp5WZM2eaUgRiwesZM2bwNkEwEuLzXhKj1QOkfWzjjPaRmXdBcAH+5AcP88pu3bqx2w1MvhEB9q677tK2ChUBZq9wv4A1hyrcOe3c3Llzta3+AaJlw/0C19WLL76olQquwp6ZeFyLmNW98847tRIPUnScdi9PpG6DU9U3YZTUJ4LYLuPbbMqqEULBg4dQ9M0oMKNqMIU2xIs8yj/GJVS0OYMSv1VrmDqbElqYT4VXp/BRKaQK+5KUs/4LxFFsl2DttetBZg+wa9cuXuvgvoLnVO3atWno0KFsUYH7OEzs4RqBsipVqmh7C4IgCEbBJN7RQQoMRLgXQRCcga/7wR87doweeughNq+8/fbb2bQZJt+Cc0EqPQSGWrx4MfuvDh48mIPc+QsYwJDc7e7HlohHqkNsv+QSd47/Z1JMPfiJWyxValBo1GTKyg+kyGmpFK8L76ZxtCprFx0YH84C/3j+bsrZuJrSZybSkB5RlLiseDed3V+n8bpb6zBelyAgnCK6aK91ylm/iabBFORGrw899SRcmQBcT3Dfhqh/4403OGYB8vTv3buX3bw6derE+wmCIAjGpNK+ffsUPAArgqLlgTVKPaCwsLDCo8ZGOy5pH9tY1vPPP/+wfyw6/Zi18yS+lg/+m2++4SjTiJLeo0cPDkqHYxNcC3JrI4YAZj4xOJSeni6BowS3gAEUWD4sWrSI38MKZMuWLfzatZSR571uGEW2bkkRHSIprK6F8/ixHEoZFkvJS4vzwBeDeppRUMFqyvo2itIOZVB03XzK7BNE3Zbo77Vdzchb0o3q98mkpByFElpohXbXj3LtOLqn0eEPojkyvjs4cuQIT8xggBXPSNyzATKADBgwgPOzO6NPIQjuQM/zjusXkyL2Iv1n20j72MZo7SN53m1gtONyVj1AfN7dj6/4wa9du1ZRhTofx7hx47RSwV38999/Jp9j+Kbu3btX2+LdwH/65ptvdpMfteAo33//vZvvq/b5vF/E0VVKXCD+LliJGrVAycjarhwoKFAK/8XGw0pad/M6Ld9fzIHFUXzcJp/3ctUPtOPonqZudR/6c1BfYmJilKysLG2rIHgX4vNeEqPVA6R9bCM+74LgRfiCHzzyBWPG9++//6bZs2fT5MmTtS2Cu4CpMmYc4uPj2U+1Q4cOXp86Dea7SAGH2V2Y9QrGBeby4L///uO1UclbnkKz84ki5qyijKmxFNU2jIKrV6cAy5l7JpCC2TU8k/J+5YKLyN+Xqb0qpnz1e47z58/zGtkafvnlF87VjpztgiAIgndiEu/IoYu0IIIguA5v9oOHP6Ru7g9zbfheC54jOTmZJk2axL6syMHsjQIezx0ICQxsVatWjZYvXy5B6QzOVVddRZdeeimdPHlSKzEm+flZvI4IC+F1CY5lU5aFT3pI0+I4Ehmbc3ldklzKXqm91Chv/Z7ixIkTvIYLWb169fi1IAiC4L2YxDtmcBAtWhAE14KZK2/LB79q1Srq3r07v8bse69evfi14FkSExM5YCACiCGwG4JOeRP4HWDBYBYGH3AMgvEJCgqiw4cPa++MSWBgBK8zVueUzLV+Lo/SR8QRYtObU71DDEeUzx2dRLP3lMj+TjmT4mikxdhYeev3FL/99huvJSCxIAiCbyBm84LgIRBBfPr06WyCDmGMNGtGBJYC+oz7e++9R1FRUfxaMAajR482zcDjOvrrr7+0LcYHYh2z7RDwujm2YHwaNGhAf/zxB/35559aifEI7hRH0apezZ3UkkIjh1DiaymUMjqGQuvVp/hfY2nWeIhvMzP5gHCKn5tE4WrZkJBQ6jw4kVJeS6QhkaHU8gWicA5SF0YBWky8ctfvIfQBPZwzQRAEwfsR8S4IHsTofvCY0Y2OjmaXGkTLf/zxx7UtgpHADDx84L/77jvOAuBNyGy796Hnd9++fTuvDUndKErL3UDJ/cKJ1symyaNH0uzNVShmWjblrkuiWC0lXNbOPF6DgBYJlJW3Sv2bQNo9dzKNHJ1O2wNjKWN3FqVEYo9gCqrJuzpUvyfIzS12A9DzvQuCIAjejYh3QfAwRvaD79evH+d5njBhAj311FNaqWBE4APfs2dPWrt2LQ0fPlwrNQ7IGY4ZdsH7gasP2Lx5M69dSzglKAopivUUbjYJjKD4t7PpAP+9QgdyFlBCr3AKrKwK9Q7JXLZhYLC2czEBN0ea/c0Byn47gaJuP055O7E1mAJ18Q7KVb92HG5MEwe++OILXrdooee3EwRBELwZk3hv2rSp+EQJgocwoh88zLHXrVvH/u0SRMw7WLx4MTVr1oxmzJhBCxcu1Eo9C4LSPfroozwQBEsTwfuJiCj298ZAkc/w1WSq1LAlDVhy8Uz58S9SadYyVasPiqBmFqnkjQyyN3zzzTfUpk0bzo0tCIIgeD8m8Y5IvwG6M5cgCB7BKH7wH3/8Mb322mt0++2304IFC7RSwehcdtllNG/ePH4dFxdH+/bt49eeAkHokAIO6d8Q7Rqz74L3U7t2bWrfvj1t27aNfvjhB63Uy2kaSUk1cyi1T0sKfVjzYYfP+8OhFNI6kXJaxFHq6Eiqru3uDegDwA8//DCvBUEQBO9HzOYFwWB42g++sLCQnnvuOX6NXO5XXnklvxa8g+bNm9PMmTP5PI4YMUIrdT+Y9dNzt8OMH0IeFl6CbwAXDbBo0SJeez0BYZSw5gCtmtGNQo6uZh/2kaMn0+qjIdRtxio6sGYWRXpZTEXkdAcSq0QQBMF3EPEuCAbE0g8eZvTu8oMfO3Ys+7k///zzJvNYwbsYMmQIz7Z98sknNH/+fK3UvcAVBLESEE3+9ddf10oFX6Fv37507bXXsqUHBop8gurBFDl0FmXkHGB/9WI/9gyaNTSSgr1pyl0F1lNIAYxBlrp1yxssQBAEQTAqJvEOv0RElBYEwRiY+8HDb9EdfvBbtmyhN954g83lp0yZopUK3sgrr7zCa1hv/PPPP/za3SBWgkST900qV67Mg0QnTpzgYImCsZg2bRqv4T4jCIIg+A4m8Y4R2vz8fO2dIAhGwZ1+8HrdL730Eq8F7yUkJISF+5EjR2jy5MlaqWvA4C/M4wX/AukJa9SoQS+//DKnlRSMwZIlS2jTpk302GOPUatWrbRSQRAEwRcQs3lB8ALc4QePyPIws+7QoQP16NFDKxW8GeR/RxaRV199lQ4fPqyVOhf4srdt25YXiHjBf0AE8xdeeIGt9saNG6eVCp7k9OnT/IwA+loQBEHwHUS8C4KX4Go/eJjLg5EjR/Ja8H4uv/xynh09f/48p49zNrhmINoh4HFdCv4HBhZbt27NgevS09O1UsFTINjowYMHWbjfeeedWqkgCILgK4h4FwQvwlV+8Ej5tHr1ahZgDzzwgFYq+ALDhg1j0+a5c+fS2bNntdKKg9ztEG4I6oWc8kgDV726l0X1EpyCuX/1/v37+bXgfvA7RABBPBcmTpyolQqCIAi+RKXTp08rl1xyCZ06dYpnaa644gptk/1gVgegnorgrHrAoUOHqF69eto7xzDacUn72MayHlzTtWrVovvvv582btzIZb4EInjrKd0mTZrEJtKOMnjwYBZ3mNGPjo7WSgVfYcyYMTR16lR666236KmnntJKKwaEOwaSkMMdg0qCf4P0hBgogo/15s2btVLBXWRnZ3PbX3rppTwYK2kZBV8E/Tq467Rp04Zd/exF+s+2kfaxjdHa55JKlSoRFvwYAgIC+LUvLMBauSzFi7+0jy/jLD943JQg2lGPCHff5Mknn+Q1zrOzwOARzOVFuAtg6NCh9Mwzz9AXX3wh9xE3g9SeMTExbAUDCxgR7oI/YK3P547Fk5/tDYu0j+3FKe1z5swZBTPuFUE3xTRKPeCnn36iW265RXvnGEY7Lmkf21jWo4/Q+urMuw6ifEOcff7559S8eXPuvDVq1EjbWjYwu0cUe8ya6X7vgu8BlwhEoN63bx81aNBAKxUE5/Lwww/TypUr2bUHmTIE14IsQYiHgoxBSO/5/PPPa1sEwfdwtF8n/WfbSPvYxmjtU/H5f0EQPEpF/eARYR6ULx93PqX3sDIaqC8NW1K7/iMpdWM+FWl/4RJ+Tadu+LxJOVqBt5JDk3EcPdLVlnUNjzzyCK9XrVrFa3uBWXxYWJhEkhfsAvcedKzhooF7kuA6fvnlF4qMjGThDtEuwl0QBMH3MYl3dMyQ7kUQBO/E0Xzw8Bu79tprOWq4IwS3iKCIDiWXcFWMZi1MoQERQRTaP5V2/63tLHgMdPLB+vXreV0WeCb069ePA9PBPB4DRIJQFpiZwMw77icIntarVy9ti+BMcnNzqX379rwePXo0z7oLgiAIvo9JvGPkFuZXgiB4L+X1g0eqOeT/xkyZo8RO30Ab1pVcsvcpVHhoFSW0DaS8hQMoYvRqknlbW4RTgqKQ8kE0BWolzub222+n4OBgdq8oCz13O1wwmjRpwgKhfJYZgj9TtWpV+vTTT9na47333mOXDbj3CM5h+fLl3KZwgUFU+VdffVXbIgiCIPg6YjYvCD5GefLBb926ldfYx9kE1I2kpBWZlNCUKH9uIs3+Six7PE2LFi3YMgPi3BYQ7dinb9++POMuAbCE8nLZZZexy8WgQYM41gKuvRUrVmhbBUeBRVVUVBT7/sKyAYO0giAIgv8g4l0QfBB7/eBhcQPg0+wSqobTyBdi1Re5lJiZfZH/+/HvM2ly/3bUsqHuL1+fWvYYQrM3OmAFlJ9Fswd3ptAg1BNEoQ+r9XxRynw/79vN9LlBjdvRgEmZtNtyd82nvtvS3bR76Uhqh7qDQqnzuNUXfNO1uto1DtKOQf3siAE0efluC2sDza99Ug4d/yKFuvFnq8cLt4IiGz7vx3dT5qQBF+pv2JK6DZ5NWQ40kX6e9fNeGogkj9k9yd0uVJQ5c+awO8+RI0d4Jn7s2LHaFqE8IKJ8ly5dWKzDgiYrK4sGDhyobRUEQRD8BRHvguDDlOUH/+OPP/I6NDSU166gelgEReHFkhzazSXF5C2NoZDG3ShxcwA165VMyVOTKWFQCB3fPJuGRIRRzLJyqNPVidQurB2l5AZR5AjU04yKVqr1tA6hIStLSujj6xOpZVA7GjI3l2p0SODPjWl8mFa90I1CQ2Io3Yp1b96MWIoYsZoCe6vfs3cYVQ8JYfP2oq8mF9elCvXATiO5ruRRnan6oVRKjAqlyCm5FwfsWx1Pka1nUxE+e3wk1VA74sEB2jYLivakUkxIKHV7YRUdbhxT3EYdalDu3CHULqglTS6nNYN+nvXzbgsxkxecBdx5MJiI6++VV16hu+++W2IolAMMgDRu3JiDiz7++OP09ddfOxyjRBAEQfBykCoOHD9+XCksLOTX5QV16PVUBGfVA/bv36+9chyjHZez6gH+0D4nT55U1Etcuf/++7US/2XNmjVKnTp1uD1iYmKUs2fPcvltt92mXHXVVfy6fBxW0roT15eUoxWVSraSpO5HFKWkHdKKjmYosShrkaRkn9LKdPLSFFXsK9RhgXJAKyqVQ9q+6hI1Z5difgcr3JyghGFbJ7N6DmUo0YFqWWC0kpanlWkUrEtQwvk7JSvbtbIL9YcpCZst74/bleSm1utSTmUrCdhG8coG05/p7aB+18WWR6Zt656mtqxG4XYlqQX2D1eSNhdohcUU7l6gHUecsuqoVmgHu3bt4s/v1auXVqIoqrBSCgpK1i8IruDff/9VhgwZwtcglri4OOXYsWPaVsGSL7/8UmnXrh23VZUqVZS5c+dqWwTBP3G0X+esfiYQfWEbaR/bOKN9TDPv1apVo4CAUqZ/BEHwakrzg0ewuqCgIG0v93E8J5vyWgRT1LBYCq+qFercHEzNsF6fb3/atKbJlDgohMzvYAGtulEMXLXXXKgnd1kSpatvoqalUPTNWqFG9Q6JlDQ2kOirkZS23mJGu2kMdWtlcX/8NpuyaoRQ8OAhF9VFVYMptCFe5FH+MS4xI45iuwRrr0vn+PpUSvyKKGxiCsW3Kmm6HnB7LCW9HEmUP5tSludppWVz/fXX8xrBSRFADGb0MJF/8cUXuVwQXEnlypVp5syZHFQT197s2bOpfv36EnDNAuQBhkn8fffdRxs2bOCI/bt376ZnnnlG20MQBEHwV8RsXhD8BGt+8CdPnqQaNWpoe7iP6l2SaUPOAcropYrlv4/T8Z9zKWtjJqW+NpIGRMTSLG0/u2kcTBcPQQRREAvoAipkLZ5Pebm56jqKuoVbi+keQBGR8M8nSvva3MBfJVwV6dpLE03jaFXWLjowPpyoSD2G/N2Us3E1pc9MpCE9oihxmbafJU3V72qHG3ne9xm8jmwbXmJQQie4bQy7I2RtzrV7kAODtJdeeimLA4gnBKWDH7KId8GdYDBx+/btlJyczHEckJ/8xhtvZBcfRcHEmn+C3+WwYcOoQYMGtGDBArrrrrs4yF96ejrddNNN2l6CIAiCPyPiXRD8DHM/eFClShVeu5JC/j+AAirzC6ZoTzqNjKxPla6uQTWCm1G7iG40YHQm7aoZfLFQLouGQTZSrOmz34cpbyfWqhC3nCnXCQymCHWVX1BQ0lc9qAZZ1dvHciglOpSCqqjHEBRKLSM6U8ywVMo6VoOCSwvQrn7Xsm0djtPhQ5DkURRat7jkIgIDi9spv0BrX/vA+f7ll19YJOE6QERwCUoneIL4+Hi2AIF4//3332nEiBHqZR1IEyZMoN9++03by/fJycmhJ598kkU7LBNuvfVWmj9/Pm3bto2D1AmCIAiCjkm8Hz9+nIqKyhf8SBAE7wQBpDIzM/n1JZe4eAxv/y7KwbppMwrWFfa3KRQREkMpucEUOzWNVuXsosOqYC5UDlD2B4nUWdvNYwRUsTrbXYJjq2lI45Y0cmkRtRy1gDKyttMBHMO/h2lXVirF8qy/G6havsEXzHRec801bIWB60AQPAkGjqZMmcJifdy4cdwPQe7yunXrUnR0NK1du1bb07coLCzk2fU2bdpQy5YtadGiRXTnnXeyaEdAyQEDBmh7CoIgCMIFTL12pA6CH6QgCP5BZGQkr8+cOcNrV5G3OZOy1HVgVEsqTlRWRFnpI1nQx729ihaMiqbIFiEUqHbiXRt1I4iCG2O9m/KsRJQHRXm7i79rlbK/Sd7yFJqt3jIj5qyijKmxFNU2jIJxDGbWBY5TnYLqYaQjk3b9WlxyEb/mEZwAqGoAlUe+43zDBFdytwtGok6dOjR58mTuh7zxxhssZJcuXUqdOnViv/jRo0dz3A5vB5YuvXv3Zncl+LVv3ryZOnfuzKkZ0Q8T0S4IgiDYQszmBcFPueKKKzhI5YkTJ7QSF/B3Fs0et1p9EU4ju4QXl9FxymfxHEUtG1sRyd9mU7G3t7MJpGDOc55JGTnWBiqLKHtjGr/q1qhsw/38fMh8VbyHhfC6BMeyKas0n3c7CW7UjderN+ZcnG5ORR8UCQsLtuEyUBLM9p09e5Zn3gXBiMCtA37fELKfffYZ9evXjwX9a6+9xnE6brnlFhoyZAitXLmSTp8+rf2VcYGLyttvv009evSgqlWr0qOPPkrvvvsuWxYkJibSnj17OAWcpGYUBEEQ7EHEuyD4MbVr16Y//vhDe+dcin5dTYkPx1CKqpPDJ6ZQnGmitzoFss+5KqI3WkRKP55DkweNLJ5RdgFh3RMpWlW6mSPiL8rnfnx9EiVOUb9siySK7VC2D3hgILzjiTJWW4jrc3mUPiKOUrW3jlK9QywltSDKfSGeUr4omase+d8TMSgSGE2J3YvtGexBt67CeRcEo9OuXTsWvnDrwyx8z5496ciRIxyl/uGHH6arrrqKzc5hbo/AbkawHoQYX7x4MUeGb9SoEVu5xMbG0rJly9i6YPjw4eyysn//fpo0aRLddttt2l8KgiAIQtmIeBcEPwYRno8dO0anTp3SSspP6nPtqN0DJZfQoEpUpV5nmrwxn4L7ZVDaePOI6QHUskcSYR4+s09LCo0eSSmvpVDi4M5Uv0ZLSg2ZRckDsd92yivNZNxR6kbR7MUJFJ6fTjHB9anz4ET+7JHRoRTywGTKUcXwgoXxFGaH/X5wpzgeCMidpB5D5BBKVOtJGR1DofXqU/yvsTRrPMR9puPHEBBG8QsXqJ+RQ4mtQ0q0U2jIAErPD6eExbMpqrSAdlY4ePAgr3HeBcFbuPzyy1m4Q8DjXoVUcwhuB9cPmJ3DZx5ZE5D2Elk1EOQNQfDeeecd+vLLLzklpjP577//ODL8+vXreSABlgD3338/m8KHhIRQ37596a233mLf9fbt2/P3+/rrr/lvkJoRKTsFQRAEwREqnT59WkHAKjwQ8YCEKW15OX/+PK8rGvjKWfWAQ4cOUb169bR3jmG045L2sY1lPbima9WqxZ2qjRs3cplQEswIYWZr69atdPfdd2ul9pBP6T2CKKYU0/DARhHUsnUkdesTQ9EtrBt1H/8+nZLGJVHayt1qbYEU0qUbxQ2Kp5hOwVQwvx3VfyqL4tcVUnIHG0r613TqVi+GMidmk4KUbSXQv2MUpR3KoGhzkZufRbMnzqa09ZmUs7/4+3buEUfxQ6MoxHzS3Wb9Kmo9KeMSafbCHIINQXCLWIodpi7dw6n6xpFU5YEUiph3gDYMhBl+Dk2u1JISu6fR4Q+iLUzdbWw7vpsyZ6bQ7A9WUdb3+UQNwimqQwzFvRBHEdabtlQgKDAjOGvWLIqLi9NKBcF7geVQdnY2bdmyhQUyUtD99ddf2tYLwEXohhtu4NlvPBeuvfZaTp0IU3ZsQ/9Hf3acO3eO3Utglo+sHJj5//PPP+no0aM8EFBaJPzg4GBq1qwZ30tbtGjBedqR214QBOeAfh3cvmBxs27dOq20bKT/bBtpH9sYrX0qFRYWsnivCEZsHPiZVXR2yZcvHn9oH9zka9asKeLdBkgVhhksRDiWQEm+z+DBg2nu3Llstiuzf4KvAguTXbt28cz3vn37KC8vj595EN0Q4hUBqezgrw5zeATSa9iwId1+++10xx138ICAIAiuw1y8w/LFXqT/bBtpH9sYrX0qnTlzRsGIc0XACDUwSj0A5mkIbFMRjHZc0j62saxHv8mLeC8dmJziIQjhDgEv+DZ33XUXffPNN/zbwIyjIPgbCNqIGfSCggI6efIkz6wjPR2eHzCHRyrFSy+9lK0QETzv6quv5hl6CHPM2GObIAiewdF+nfSfbSPtYxujtY+IdxvIxWMbo7ePiPeywWgiOqjwE8UsleC7ILYBxMe9997rEym3BEEQBP9CxHtJjFYPkPaxjTPaxzT/D1MyjD4LguA/wAQIEZ337t3LZqaC7/Lpp5/yGudbEARBEARB8D5M4h05VY2QZkUQBPfSuXNnXn/88ce8FnwTpNICkZGRvBYEQRAEQRC8i4p73guC4NV07dqV1x9++CGvBd8Dvr04vw0aNOAI2IIgCIIgCIL3IeJdEPwcpE9CXmSkWPriiy+0UsGXWLJkCcc36NWrl1YiCIIgCIIgeBsi3gVBoCeffJLXEnHeN1mwYAGv+/Tpw2tBEARBEATB+zCJ96ZNm3L+UkEQ/I+oqCgKCQmhxYsX0/79+7VSwRfIzMykb7/9lnr27Mlm84IgCIIgCIJ3YhLvyGMaEBCgvRMEwd8YNmwYr1NSUngt+AbTpk3j9ZAhQ3gtCIIgCIIgeCdiNi8IAvPMM8/Q7bffTm+++SbP1Arez7vvvktffvklde/eXQLVCYIgCIIgeDki3gVBMDFu3Dhev/jii7wWvJuXXnqJ12PHjuW1IAiCIAiC4L2YxPvx48epqKhIeycIgj/Su3dvevDBBznnOyKUC97L888/z/ELRowYQWFhYVqpIAiCIAiC4K2YxPuOHTsoPz9feycIgr/y8ssv83rkyJH0xx9/8GvBu/jf//5Hr776KgUHB5vOpyAIgiAIguDdiNm8IAglaNasGU2ePJmFuwQ58z7OnTtHQ4cO5dcIVnfFFVfwa0EQBEEQBMG7EfEuCMJFwPe9Y8eOtGzZMpo6dapWKngDAwcOpO+//56ee+456tq1q1YqCIIgCIIgeDsi3gVBsAqizteuXZvGjBnDPvCC8cFAyzvvvENt2rQxpYgTBEEQBEEQfINKp0+fVi655BI6deoUXX755Q6ZWJ4/f57XqKciOKsecOjQIapXr572zjGMdlzSPraxrAfXdK1atej++++njRs3cplQPlavXk2dO3emqlWrsh918+bNtS2C0Vi6dClFR0dTnTp1KDs7m+rXr69tEQRBEATvB/26a665hgeo161bp5WWjfSfbSPtYxujtc8llSpVIiz4MQQEBPBrX1iAtXJZihd/aR+hYkRGRtLs2bPp77//ph49etCBAwe0LYKR+PTTT1m4g7S0NBHugiAIgk9jrc/njsWTn+0Ni7SP7cUp7XPmzBkFM+4V4ezZs7w2Sj3gp59+oltuuUV75xhGOy5pH9tY1qOP0MrMe8VBvnDkfm/cuDHPxtetW1fbIngaWERgkKWwsJDS09OpV69e2hZBEARB8B0c7ddJ/9k20j62MVr7VHz+XxAEn2fChAk0evRo2rlzJ5vR5+XlaVsET/LZZ5/x+YBwnzdvngh3QRAEQRAEH8Yk3o8fP05FRUXaO0EQhJIgb/ioUaPou+++owceeIC+/fZbbYvgCTIzM/k8nD59mt566y2OMi8IgiAIgiD4LibxvmPHDsrPz9feCYIgXAyimWMWfv/+/dS2bVs2oRfcD+IQdOvWjRRFocWLF9NTTz2lbREEQRAEQRB8FTGbFwShXMD3febMmWytA5NtvBbcR3x8PA0ZMoSuvvpq+uSTT6h3797aFkEQBEEQBMGXEfEuCEK5gXj86KOPOHDMsGHDeOYXs8CC6zh48CB17NiR87ffeeedtHnzZh48EQRBEARBEPwDEe+CIDjEI488Ql999RW1bNmS5s+fT82aNaMvvvhC2yo4E+RwR/siJRyC0uXk5FCTJk20rYIgCIIgCII/YBLvTZs2pcDAQO2dIAhC2YSEhNCXX37Js+8IYNe6dWtOKyc4hxMnTtCAAQM4h/tff/1FycnJnA7uyiuv1PYQBEEQBEEQ/AWTeK9WrRoFBARo7wRBEOznjTfeoGXLltENN9zAPvF33303rV+/XtsqOMKiRYt4cCQ1NZVatGjBVg7wdxcEQRAEQRD8EzGbFwTBKTz22GP0ww8/sP/7119/zWnM+vfvz77agv1ApHfq1ImefPJJOnz4MFsywEz+3nvv1fYQBEEQBEEQ/BER74IgOA1Y8CDn+Nq1a3n2feHChVS/fn1KTEykU6dOaXsJ1ti3bx+byIeHh3P7IaYAcuq/8MIL2h6CIAiCIAiCP2MS70j7VFRUpL0TBEFwnAcffJC2bt3KaeRq1apFkydPpnr16vEsMvy4hQtAtMfFxdGtt97KJvKIP/Lhhx9yNP/GjRtrewmCIAjC/7d3B6GNFX8cwCdF06y6rYjVKNbdJYqCohW8CaUKXgRP3rx41ZuINxFBwZtX9SiKR70oiEXpLoIXUYlexDWuWIQoqMFiNwnS/v8z+zaspc7WNK3T9vOBx8u8dKfky9syv8y894CjblS8t9vt0O12qxbA7sVHysVl8y+++GLY2NhI18PfdNNN4dlnnw3fffdd9VNHU1wK/8QTT6Si/dVXXw233XZbWrXw5Zdfhscee6z6KQAAuMCyeWBPTU9Ph+effz789NNP4aWXXkrPhn/llVfC7bffnq6Tf//996ufPPzis/DjjegefPDB9Ii9N998M9x9992paI8z8PF+AQAAsB3FO7Avjh8/nq59jzdhe+2119Jzy995553w6KOPhlarFZ577rm0AugwOn36dHjqqafCddddl25EF9vxhn5xefzXX3+taAcA4LIU78C+qtVq4cknnwyff/55+Pjjj9PS8R9//DG8/PLL6Xrv++67L7zwwgvpmvmD7KOPPgpPP/10OHXqVJppf/3110O9Xg/PPPNMeib+hx9+aHk8AAA7Nire46C52WxWLYC999BDD4U33ngj/P777+lmbY888kgqbOM18vHRaLfeemt63Nxbb72VCvySxcfkxWvX46UA1157bXj44YfT8+9//vnn8Pjjj4d33303vY6XDNx7773VvwIAgJ2pnT17djPOhO1GvI4zKqWf6Pz58+HYsWNVazylfS755G3t588//0xF0tLSUlhZWUnHKN+vv/4a3nvvvfDBBx+k2elL704fl9fHoj4+hi4uu7/nnntSobzf4tL/uMT/iy++CJ999ll6NvulN/yMd9aPd9yPX0bEywKuuOKK6h0AYBzxkbPxvjlxHPD2229XRy/P+DlPPnml5VMbDAabcSnnbgyHw7QvpZ+o0+mkgf5ulPa55JO3tZ+Lf+QV7wfbJ598kq4Rj/tPP/00fSlzqRMnToQ777wz3QAvPlM+tm+55ZZ0V/sbb7xxrPMq/o44Sx6L9NXV1fDDDz+E77//Pnz77bfhm2++Se9d6oYbbggPPPBAWFxcTOdbXMkEAEzOuOM64+c8+eSVlo/iPcPJk1d6Por3wynOdsfr5ePy+q+++iotV4/L7v9JvFFenJ2P+6uuuird/T7OhMdvUOPj6/7666/Q7/fD+vp6+OOPP0Kv10uv/8nNN98c7rrrrjTrH6/Pv//++8Mdd9xRvQsA7AXF+9+V1k8kn7yJFu9xwNpoNNL2bzl58uSTt1f9KN6PjjhDHp8bf+7cufRc+fhYunjsl19+Cb/99lv6+xbPh7hc6Z9cffXV6XyJhf7111+fZtPj7H2cxY+z+XFWPz6LPd4xHgDYX4r3vyutn0g+eRMt3s+cOZMGqCdPnqze2jknT5588vaqH8U7W8Xrlv7/Ny/NtsfXcfb9yiuvTLPxAEC5FO9/V1o/kXzyJpGPR8UBR0Ys1uPqomuuuSYto497hTsAAAeB4h0AAAAKp3gHAACAwo2K9/hoo2azWbUAAACAUoyK99nZ2bHuNA8AAADsLcvmAQAAoHCKdwAAACjcqHjv9Xqh3+9XLQAAAKAUo+K93W6HbrdbtQAAAIBSWDYPAAAAhVO8AwAAQOEU7wAAAFC42vr6+ubU1FRYW1sL9Xo9TE9PV2/t3MbGRtrHfnZjUv1Eq6urYX5+vmqNp7TPJZ+8rf3Ec3pubi4sLS2FlZWVdAwAgIMnjutmZmbC4uJiWF5ero5envFznnzySstnqlarhbjF/wyNRiO9PgxbtN1x24XtqOQDAMDhst2Ybz+2//J3H4RNPvltIvkMBoPNOOO+G8PhMO1L6SfqdDqh1WpVrfGU9rnkk7e1n4vf0Jp5BwA42MYd1xk/58knr7R8dj//DwAAAOypUfHe6/VCv9+vWgAAAEApRsV7u90O3W63agEAAAClsGweAAAACqd4BwAAgMIp3gEAAKBwo+J9YWEhNJvNqgUAAACUYlS8z87OhkajUbUAAACAUlg2DwAAAIVTvAMAAEDhRsV7r9cL/X6/agEAAAClGBXv7XY7dLvdqgUAAACUwrJ5AAAAKJziHQAAAAqneAcAAIDC1dbX1zenpqbC2tpaqNfrYXp6unpr5zY2NtI+9rMbk+onWl1dDfPz81VrPKV9Lvnkbe0nntNzc3NhaWkprKyspGMAABw8cVw3MzMTFhcXw/LycnX08oyf8+STV1o+U7VaLcQt/mdoNBrp9WHYou2O2y5sRyUfAAAOl+3GfPux/Ze/+yBs8slvE8lnMBhsxhn33RgOh2lfSj9Rp9MJrVarao2ntM8ln7yt/Vz8htbMOwDAwTbuuM74OU8+eaXls/v5fwAAAGBPjYr3Xq8X+v1+1QIAAABKMSre2+126Ha7VQsAAAAohWXzAAAAUDjFOwAAABRO8Q4AAACFGxXvCwsLodlsVi0AAACgFKPifXZ2NjQajaoFAAAAlMKyeQAAACic4h0AAAAKNyree71e6Pf7VQsAAAAoxah4b7fbodvtVi0AAACgFJbNAwAAQOEU7wAAAFA4xTsAAAAUrra+vr45NTUV1tbWQr1eD9PT09VbO7exsZH2sZ/dmFQ/0erqapifn69a4yntc8knb2s/8Zyem5sLS0tLYWVlJR0DAODgieO6mZmZsLi4GJaXl6ujl2f8nCefvNLymarVaiFu8T9Do9FIrw/DFm133HZhOyr5AABwuGw35tuP7b/83Qdhk09+m0g+g8FgM86478ZwOEz7UvqJOp1OaLVaVWs8pX0u+eRt7efiN7Rm3gEADrZxx3XGz3nyySstH8V7hpMnr/R8Lv0jDwDAwXb69GnFe6W0fiL55E20eO/1emnZfNz+LSdPnnzy9qqfi8U7AACHg+L9gtL6ieSTN9Hi/cyZM+HEiRPh5MmT1Vs75+TJk0/eXvUTi/dxnTt3Lpw6dapqjaf0fHZDPnnyyZNPnnzy5JMnnzz55B2UfI4fP169urxJ5qO+yJNPnuI9w8mTJ588+eTJJ08+efLJk0+efPLkkyefPPnkySdPPnmTyGf397wHAAAA9pTiHQAAAAo3Kt4XFhZCs9msWgAAAEApRsX77OzsWHeaBwAAAPaWZfMAAABQOMU7AAAAFG5UvPd6vdDv96sWAAAAUIpR8d5ut0O3261aAAAAQCksmwcAAIDCKd4BAACgcIp3AAAAKNyoeF9YWAjNZrNqAQAAAKWonT17drNWq1XN8WxubqZ9Kf1E58+fD8eOHata4yntc8knTz558smTT5588uSTJ588+eTJJ08+efLJk09eafnUBoPBZr1er5rjGQ6HaV9KP1Gn0wmtVqtqjae0zyWfPPnkySdPPnnyyZNPnnzy5JMnnzz55MknTz55peXjmncAAAAo3Kh47/V6od/vVy0AAACgFKPivd1uh263W7UAAACAMoTwP5VBSVHNI8k7AAAAAElFTkSuQmCC;" vertex="1" parent="1">
          <mxGeometry x="90" y="800" width="1007" height="711" as="geometry" />
        </mxCell>
      </root>
    </mxGraphModel>
  </diagram>
</mxfile>
